<?xml version="1.0" encoding="UTF-8"?>
<svg version="1.1" xmlns="http://www.w3.org/2000/svg" width="512" height="512">
<path d="M0 0 C3.68542158 1.04849302 5.21807188 3.58620864 7.4765625 6.546875 C12.05780172 11.85717165 19.83795095 15.18603754 26.71875 15.90625 C35.39624799 16.28673435 43.41080634 14.37506421 50.16796875 8.71484375 C52.20351648 6.82366111 53.92370575 4.90839755 55.73046875 2.77734375 C58.39345808 0.56901113 59.06874193 0.26570183 62.35546875 0.08984375 C66.8108074 0.7263207 67.59515202 1.21107856 70.29296875 4.65234375 C71.34765625 7.82421875 71.34765625 7.82421875 72.16796875 11.40234375 C74.74897028 21.00885139 78.65858805 26.0488867 86.94921875 31.42578125 C91.89643308 34.01482341 96.2256526 34.92885478 101.79296875 34.90234375 C103.4171875 34.91007812 103.4171875 34.91007812 105.07421875 34.91796875 C108.44030385 34.64018503 111.12504653 33.78594144 114.29296875 32.65234375 C118.35988447 32.22424736 120.57465706 32.28554629 124.23046875 34.15234375 C126.62318959 37.05261144 126.82650659 38.87876429 126.6015625 42.59375 C126.29296875 44.65234375 126.29296875 44.65234375 125.29296875 47.90234375 C122.88205766 56.94326035 123.65842373 65.4971948 128.29296875 73.65234375 C133.04352629 80.82228339 139.40593738 85.22657834 147.79296875 87.2578125 C148.96859375 87.48404297 148.96859375 87.48404297 150.16796875 87.71484375 C153.06971985 88.27366154 154.30283484 88.65925001 156.79296875 90.40234375 C158.70902635 93.27643015 159.22243153 95.19601975 159.29296875 98.65234375 C157.80761851 102.41523102 155.24008748 104.67917756 152.35546875 107.40234375 C146.46552546 113.11905342 143.27268377 120.48668394 142.98046875 128.71484375 C143.09078508 137.08509499 146.60619952 145.51063299 152.29296875 151.65234375 C153.36174498 152.50426683 154.44515769 153.33817765 155.54296875 154.15234375 C158.29296875 156.65234375 158.29296875 156.65234375 159.35546875 160.15234375 C159.28346484 164.18456278 158.78648082 165.52667369 156.29296875 168.65234375 C153.85429783 169.67869086 151.69639385 170.41908154 149.16796875 171.08984375 C139.60275891 173.98359775 132.74051647 177.62193882 127.4453125 186.4375 C122.83532889 195.29804478 123.48679414 204.35689035 126.29296875 213.65234375 C126.81188327 217.56644182 126.8845262 220.66641466 124.79296875 224.15234375 C121.30703966 226.2439012 118.20706682 226.17125827 114.29296875 225.65234375 C113.19984375 225.32234375 112.10671875 224.99234375 110.98046875 224.65234375 C101.88998616 222.18712813 93.66742989 223.46511318 85.29296875 227.65234375 C76.02299356 233.40672457 72.97637341 242.68041901 70.48046875 252.83203125 C69.01694621 256.30789728 67.71044011 257.1678313 64.29296875 258.65234375 C60.85546875 258.77734375 60.85546875 258.77734375 57.29296875 257.65234375 C55.69860214 256.06233333 54.39233556 254.35031773 53.01953125 252.56640625 C47.23198775 246.15035123 38.52312398 242.75763573 30.04296875 242.27734375 C19.26306522 242.58953857 12.00209349 247.87256153 4.71484375 255.25 C1.89526988 257.91375531 0.61253352 258.64683401 -3.33203125 258.71484375 C-7.04919624 257.54462514 -8.27181379 256.62533839 -10.70703125 253.65234375 C-11.54296875 250.953125 -11.54296875 250.953125 -12.08203125 247.96484375 C-14.08342106 239.17799331 -18.16862717 232.95437293 -25.65234375 227.87109375 C-32.85450803 223.59908756 -39.36500118 222.94852102 -47.70703125 223.65234375 C-50.05179676 224.27761455 -52.38763918 224.93868465 -54.70703125 225.65234375 C-57.62797861 226.09020872 -59.69442716 225.99805242 -62.70703125 225.65234375 C-65.96268852 222.9664265 -66.62503164 221.40400683 -67.08203125 217.21484375 C-66.70703125 213.65234375 -66.70703125 213.65234375 -65.70703125 210.8203125 C-63.21593216 202.92858843 -63.91876198 194.41255639 -67.3828125 186.9375 C-73.77232319 175.91135323 -82.10029133 172.88247183 -93.94921875 169.6796875 C-96.70703125 168.65234375 -96.70703125 168.65234375 -98.70703125 165.65234375 C-99.04644807 162.64608047 -99.25846313 160.55310518 -98.70703125 157.65234375 C-96.64453125 155.21484375 -96.64453125 155.21484375 -93.70703125 152.65234375 C-86.51156484 144.63813718 -83.02066352 137.30304502 -83.35546875 126.421875 C-84.28605831 119.09089721 -87.73188233 112.10941593 -92.70703125 106.65234375 C-93.79919287 105.84419579 -94.90340901 105.05206389 -96.01953125 104.27734375 C-98.93376582 101.43088208 -99.16258186 100.93697256 -99.33203125 97.08984375 C-99.30042749 94.05061503 -98.89633392 92.89874467 -97.0234375 90.4609375 C-94.30731844 88.34025769 -92.39254425 87.88580884 -89.01953125 87.27734375 C-79.94221174 85.22084993 -72.90086218 80.42644326 -67.70703125 72.65234375 C-63.72798447 65.97538268 -64.03348608 58.19255073 -64.70703125 50.65234375 C-65.33012077 48.63834179 -65.99147495 46.63537769 -66.70703125 44.65234375 C-67.25142669 40.21940946 -67.23547158 38.40497089 -64.64453125 34.71484375 C-60.95440411 32.12390342 -59.13996554 32.10794831 -54.70703125 32.65234375 C-53.7840625 32.98363281 -52.86109375 33.31492188 -51.91015625 33.65625 C-44.9567276 35.81859672 -36.63251782 35.84551918 -29.83203125 33.08984375 C-21.35110112 28.56563009 -16.05145226 22.68090418 -12.70703125 13.65234375 C-12.31555514 12.03592627 -11.95881154 10.41052682 -11.64453125 8.77734375 C-11.09690559 6.01476789 -10.64243804 4.54641089 -9.14453125 2.08984375 C-5.99188488 0.23059076 -3.640774 -0.14848181 0 0 Z " fill="#E88431" transform="translate(98.70703125,135.34765625)"/>
<path d="M0 0 C0.85207031 0.48339844 1.70414063 0.96679688 2.58203125 1.46484375 C22.60759293 13.91316588 35.36357223 34.4224447 41 57 C46.50508718 80.91304043 40.73201134 104.44719923 28.2421875 124.875 C15.05083347 144.5086432 -4.06596882 157.46958649 -27 163 C-42.70028418 165.93904974 -59.90931085 165.28521832 -75 160 C-76.03640625 159.649375 -77.0728125 159.29875 -78.140625 158.9375 C-101.49034631 150.13551082 -118.01546344 132.3890008 -128.15869141 109.98242188 C-136.31369316 90.76634113 -137.44944241 65.67316703 -130 46 C-127.70293589 40.46302789 -124.97749404 35.19807535 -122 30 C-121.51660156 29.14921875 -121.03320312 28.2984375 -120.53515625 27.421875 C-107.94107215 7.12532207 -87.81361352 -5.1541989 -65 -11 C-41.77792522 -15.3942908 -20.29152033 -11.51204411 0 0 Z " fill="#262524" transform="translate(334,12)"/>
<path d="M0 0 C18.38674221 14.65927658 30.80537007 34.33196328 34.29296875 57.828125 C35.19768718 72.21127615 35.08496085 86.1457265 30.29296875 99.828125 C29.94234375 100.86453125 29.59171875 101.9009375 29.23046875 102.96875 C21.08779869 124.56944418 4.62872168 141.72037065 -16.01953125 151.703125 C-38.2214684 161.65522417 -63.13559329 161.73289022 -85.91796875 153.6953125 C-88.92379413 152.52852681 -91.80702981 151.23635615 -94.70703125 149.828125 C-95.65707031 149.37179687 -96.60710937 148.91546875 -97.5859375 148.4453125 C-118.26803769 137.48462558 -132.25462351 117.65837363 -139.14453125 95.640625 C-144.04802058 78.51139545 -143.65834349 58.64449743 -137.70703125 41.828125 C-137.18109375 40.27544922 -137.18109375 40.27544922 -136.64453125 38.69140625 C-128.51177707 17.08877796 -112.03920635 -0.06585041 -91.39453125 -10.046875 C-61.32098326 -23.52745238 -26.34033624 -19.58979781 0 0 Z " fill="#252526" transform="translate(477.70703125,185.171875)"/>
<path d="M0 0 C7.65010864 4.02521451 12.74711733 3.8670341 21.07861328 2.05761719 C23.19250719 1.64521334 25.30709099 1.23632935 27.42236328 0.83105469 C28.44700684 0.62939697 29.47165039 0.42773926 30.52734375 0.2199707 C46.36093827 -2.56845477 65.73102911 -3.72133923 79.57861328 5.68261719 C83.54926331 9.24121863 86.14321695 13.32001784 86.83251953 18.64355469 C87.48923356 30.71861916 80.3131256 39.88029913 72.87939453 48.69824219 C66.01331702 56.04263072 56.61458166 64.164633 47.57861328 68.68261719 C47.17621144 70.51889836 47.17621144 70.51889836 47.08642578 72.73339844 C47.02366455 73.5712085 46.96090332 74.40901855 46.89624023 75.2722168 C46.83267334 76.17077393 46.76910645 77.06933105 46.70361328 77.99511719 C44.87258719 98.98434145 35.35646618 116.65744505 19.41455078 130.51464844 C0.19443184 145.20771457 -21.05408364 149.08595424 -44.84375 146.41015625 C-59.65864713 143.95664525 -73.90954279 135.19446112 -84.42138672 124.68261719 C-86.25780566 124.74820358 -88.09176588 124.88666777 -89.92138672 125.05761719 C-91.42185547 125.19296875 -91.42185547 125.19296875 -92.95263672 125.33105469 C-94.80084401 125.51837299 -96.64880232 125.71049463 -98.49267578 125.93652344 C-113.93431723 127.80659498 -132.56802176 129.17971369 -145.60888672 119.32714844 C-150.60083614 114.79781502 -151.67841677 111.05594314 -152.04638672 104.49511719 C-151.6166451 92.40690122 -144.73029812 83.86369918 -136.42138672 75.68261719 C-135.04080078 74.32136719 -135.04080078 74.32136719 -133.63232422 72.93261719 C-126.7541662 66.32747478 -119.39028441 60.90897217 -111.42138672 55.68261719 C-110.34630859 54.93882812 -109.27123047 54.19503906 -108.16357422 53.42871094 C-105.42138672 51.68261719 -105.42138672 51.68261719 -103.42138672 51.68261719 C-103.28603516 51.039375 -103.15068359 50.39613281 -103.01123047 49.73339844 C-98.80206998 32.06500619 -87.36348562 16.40319121 -72.12841797 6.55371094 C-51.68655352 -5.79317519 -22.1593168 -12.05602676 0 0 Z M36.07861328 16.55761719 C35.01803711 16.67520386 35.01803711 16.67520386 33.93603516 16.79516602 C29.81761132 17.24926934 29.81761132 17.24926934 26.57861328 19.68261719 C26.99111328 20.07449219 27.40361328 20.46636719 27.82861328 20.87011719 C35.42483625 28.73763384 40.38829302 39.28573593 43.57861328 49.68261719 C49.30908514 46.46050134 53.79840605 42.14912332 58.57861328 37.68261719 C59.25923828 37.05613281 59.93986328 36.42964844 60.64111328 35.78417969 C64.74699155 31.87297668 69.37158043 27.40920855 69.70361328 21.43261719 C67.86787162 18.57701905 65.71388443 17.87972072 62.57861328 16.68261719 C59.83014085 16.17873057 57.34491055 15.84182854 54.57861328 15.68261719 C53.86189453 15.64136719 53.14517578 15.60011719 52.40673828 15.55761719 C46.91393955 15.4101595 41.52654169 15.92279502 36.07861328 16.55761719 Z M-118.42138672 82.68261719 C-119.15486328 83.2665625 -119.88833984 83.85050781 -120.64404297 84.45214844 C-126.33083369 89.09881044 -133.79836202 95.85071452 -134.77294922 103.40917969 C-134.64723637 105.89229797 -134.64723637 105.89229797 -132.29638672 107.43261719 C-126.78130011 109.83048093 -121.11052747 109.87543007 -115.17138672 109.87011719 C-114.42574463 109.87076172 -113.68010254 109.87140625 -112.91186523 109.87207031 C-107.2421538 109.81798526 -101.90470833 109.19154107 -96.42138672 107.68261719 C-96.74751953 106.9671875 -97.07365234 106.25175781 -97.40966797 105.51464844 C-101.94158818 95.18080088 -104.46955915 84.9141825 -105.42138672 73.68261719 C-110.13623636 73.68261719 -114.94858533 79.75641683 -118.42138672 82.68261719 Z " fill="#252525" transform="translate(311.42138671875,365.3173828125)"/>
<path d="M0 0 C3.68542158 1.04849302 5.21807188 3.58620864 7.4765625 6.546875 C12.05780172 11.85717165 19.83795095 15.18603754 26.71875 15.90625 C35.39624799 16.28673435 43.41080634 14.37506421 50.16796875 8.71484375 C52.20351648 6.82366111 53.92370575 4.90839755 55.73046875 2.77734375 C58.39345808 0.56901113 59.06874193 0.26570183 62.35546875 0.08984375 C66.8108074 0.7263207 67.59515202 1.21107856 70.29296875 4.65234375 C71.34765625 7.82421875 71.34765625 7.82421875 72.16796875 11.40234375 C74.74897028 21.00885139 78.65858805 26.0488867 86.94921875 31.42578125 C91.89643308 34.01482341 96.2256526 34.92885478 101.79296875 34.90234375 C103.4171875 34.91007812 103.4171875 34.91007812 105.07421875 34.91796875 C108.44030385 34.64018503 111.12504653 33.78594144 114.29296875 32.65234375 C118.35988447 32.22424736 120.57465706 32.28554629 124.23046875 34.15234375 C126.62318959 37.05261144 126.82650659 38.87876429 126.6015625 42.59375 C126.29296875 44.65234375 126.29296875 44.65234375 125.29296875 47.90234375 C122.88205766 56.94326035 123.65842373 65.4971948 128.29296875 73.65234375 C133.04352629 80.82228339 139.40593738 85.22657834 147.79296875 87.2578125 C148.96859375 87.48404297 148.96859375 87.48404297 150.16796875 87.71484375 C153.06971985 88.27366154 154.30283484 88.65925001 156.79296875 90.40234375 C158.70902635 93.27643015 159.22243153 95.19601975 159.29296875 98.65234375 C157.80761851 102.41523102 155.24008748 104.67917756 152.35546875 107.40234375 C146.46552546 113.11905342 143.27268377 120.48668394 142.98046875 128.71484375 C143.09078508 137.08509499 146.60619952 145.51063299 152.29296875 151.65234375 C153.36174498 152.50426683 154.44515769 153.33817765 155.54296875 154.15234375 C158.29296875 156.65234375 158.29296875 156.65234375 159.35546875 160.15234375 C159.28346484 164.18456278 158.78648082 165.52667369 156.29296875 168.65234375 C153.85429783 169.67869086 151.69639385 170.41908154 149.16796875 171.08984375 C139.60275891 173.98359775 132.74051647 177.62193882 127.4453125 186.4375 C122.83532889 195.29804478 123.48679414 204.35689035 126.29296875 213.65234375 C126.81188327 217.56644182 126.8845262 220.66641466 124.79296875 224.15234375 C121.30703966 226.2439012 118.20706682 226.17125827 114.29296875 225.65234375 C113.19984375 225.32234375 112.10671875 224.99234375 110.98046875 224.65234375 C101.88998616 222.18712813 93.66742989 223.46511318 85.29296875 227.65234375 C76.02299356 233.40672457 72.97637341 242.68041901 70.48046875 252.83203125 C69.01694621 256.30789728 67.71044011 257.1678313 64.29296875 258.65234375 C60.85546875 258.77734375 60.85546875 258.77734375 57.29296875 257.65234375 C55.69860214 256.06233333 54.39233556 254.35031773 53.01953125 252.56640625 C47.23198775 246.15035123 38.52312398 242.75763573 30.04296875 242.27734375 C19.26306522 242.58953857 12.00209349 247.87256153 4.71484375 255.25 C1.89526988 257.91375531 0.61253352 258.64683401 -3.33203125 258.71484375 C-7.04919624 257.54462514 -8.27181379 256.62533839 -10.70703125 253.65234375 C-11.54296875 250.953125 -11.54296875 250.953125 -12.08203125 247.96484375 C-14.08342106 239.17799331 -18.16862717 232.95437293 -25.65234375 227.87109375 C-32.85450803 223.59908756 -39.36500118 222.94852102 -47.70703125 223.65234375 C-50.05179676 224.27761455 -52.38763918 224.93868465 -54.70703125 225.65234375 C-57.62797861 226.09020872 -59.69442716 225.99805242 -62.70703125 225.65234375 C-65.96268852 222.9664265 -66.62503164 221.40400683 -67.08203125 217.21484375 C-66.70703125 213.65234375 -66.70703125 213.65234375 -65.70703125 210.8203125 C-63.21593216 202.92858843 -63.91876198 194.41255639 -67.3828125 186.9375 C-73.77232319 175.91135323 -82.10029133 172.88247183 -93.94921875 169.6796875 C-96.70703125 168.65234375 -96.70703125 168.65234375 -98.70703125 165.65234375 C-99.04644807 162.64608047 -99.25846313 160.55310518 -98.70703125 157.65234375 C-96.64453125 155.21484375 -96.64453125 155.21484375 -93.70703125 152.65234375 C-86.51156484 144.63813718 -83.02066352 137.30304502 -83.35546875 126.421875 C-84.28605831 119.09089721 -87.73188233 112.10941593 -92.70703125 106.65234375 C-93.79919287 105.84419579 -94.90340901 105.05206389 -96.01953125 104.27734375 C-98.93376582 101.43088208 -99.16258186 100.93697256 -99.33203125 97.08984375 C-99.30042749 94.05061503 -98.89633392 92.89874467 -97.0234375 90.4609375 C-94.30731844 88.34025769 -92.39254425 87.88580884 -89.01953125 87.27734375 C-79.94221174 85.22084993 -72.90086218 80.42644326 -67.70703125 72.65234375 C-63.72798447 65.97538268 -64.03348608 58.19255073 -64.70703125 50.65234375 C-65.33012077 48.63834179 -65.99147495 46.63537769 -66.70703125 44.65234375 C-67.25142669 40.21940946 -67.23547158 38.40497089 -64.64453125 34.71484375 C-60.95440411 32.12390342 -59.13996554 32.10794831 -54.70703125 32.65234375 C-53.7840625 32.98363281 -52.86109375 33.31492188 -51.91015625 33.65625 C-44.9567276 35.81859672 -36.63251782 35.84551918 -29.83203125 33.08984375 C-21.35110112 28.56563009 -16.05145226 22.68090418 -12.70703125 13.65234375 C-12.31555514 12.03592627 -11.95881154 10.41052682 -11.64453125 8.77734375 C-11.09690559 6.01476789 -10.64243804 4.54641089 -9.14453125 2.08984375 C-5.99188488 0.23059076 -3.640774 -0.14848181 0 0 Z M1.29296875 24.65234375 C0.21229099 26.2808443 -0.79563997 27.95781897 -1.76953125 29.65234375 C-8.93924951 41.17722144 -19.12263757 47.45439362 -32.03515625 51.09375 C-36.87802891 52.10622192 -41.77357397 52.40651856 -46.70703125 52.65234375 C-46.79339844 53.57273437 -46.87976563 54.493125 -46.96875 55.44140625 C-48.48721541 69.12152578 -51.48876058 81.73461045 -61.70703125 91.65234375 C-64.91587516 94.2089449 -68.23032199 96.47862855 -71.70703125 98.65234375 C-73.19203125 99.64234375 -73.19203125 99.64234375 -74.70703125 100.65234375 C-73.16470088 104.63669719 -71.41495275 108.50102522 -69.609375 112.37109375 C-65.55258135 122.62723007 -66.12854679 136.93869101 -70.08203125 147.08984375 C-70.9317443 148.95573409 -71.80437906 150.81148035 -72.70703125 152.65234375 C-73.38625423 154.31393286 -74.05715311 155.97905937 -74.70703125 157.65234375 C-74.04316406 158.11125 -73.37929687 158.57015625 -72.6953125 159.04296875 C-71.37080078 159.96335937 -71.37080078 159.96335937 -70.01953125 160.90234375 C-69.14941406 161.505625 -68.27929688 162.10890625 -67.3828125 162.73046875 C-56.51567646 170.53576938 -50.42206248 180.51661464 -47.70703125 193.65234375 C-47.18293879 197.65246822 -46.8522945 201.62128852 -46.70703125 205.65234375 C-45.27423828 205.79929687 -45.27423828 205.79929687 -43.8125 205.94921875 C-28.87797431 207.67644206 -15.09809646 211.62598027 -5.20703125 223.77734375 C-2.81335024 226.9520139 -0.71073501 230.2191684 1.29296875 233.65234375 C5.73225519 232.28640946 9.8566909 230.53400798 14.046875 228.5546875 C24.34760573 224.41648089 37.70563339 225.67449594 47.83203125 229.55859375 C49.8691932 230.46399906 51.86854082 231.45395059 53.85546875 232.46484375 C56.33807175 234.02607599 56.33807175 234.02607599 59.29296875 232.65234375 C60.95189155 230.56829883 60.95189155 230.56829883 62.54296875 228.02734375 C69.71978763 217.58158045 78.24766168 211.66744611 90.29296875 207.65234375 C91.62660578 207.50831027 92.96514921 207.40643952 94.3046875 207.3359375 C95.44067383 207.2730957 95.44067383 207.2730957 96.59960938 207.20898438 C97.38529297 207.16966797 98.17097656 207.13035156 98.98046875 207.08984375 C100.17639648 207.02506836 100.17639648 207.02506836 101.39648438 206.95898438 C103.36178322 206.85307007 105.32735371 206.75221824 107.29296875 206.65234375 C107.30714844 205.564375 107.32132813 204.47640625 107.3359375 203.35546875 C107.71796421 189.11318787 111.10190667 177.79848227 121.4296875 167.52734375 C125.76478853 163.52344738 130.03974974 160.33483857 135.29296875 157.65234375 C134.88304687 156.79511719 134.473125 155.93789063 134.05078125 155.0546875 C133.51195312 153.91128906 132.973125 152.76789063 132.41796875 151.58984375 C131.88429687 150.46449219 131.350625 149.33914063 130.80078125 148.1796875 C128.07238997 141.79694831 126.92769434 136.20595025 126.98046875 129.33984375 C126.9846582 128.5929126 126.98884766 127.84598145 126.99316406 127.07641602 C127.15141341 119.31125528 128.96980133 113.0882283 132.54296875 106.21484375 C134.73453644 102.80686391 134.73453644 102.80686391 133.29296875 99.65234375 C131.00587684 98.09716091 131.00587684 98.09716091 128.23046875 96.58984375 C118.05883665 90.2836957 113.18164593 81.74930058 109.29296875 70.65234375 C108.67421875 68.88890625 108.67421875 68.88890625 108.04296875 67.08984375 C107.00035182 62.31118283 106.62786473 57.52596158 106.29296875 52.65234375 C105.57753906 52.6265625 104.86210937 52.60078125 104.125 52.57421875 C88.9964615 51.7130859 76.55087417 47.11706157 66.29296875 35.65234375 C63.33103751 32.15187955 60.79074617 28.48821622 58.29296875 24.65234375 C55.69420661 25.66166335 53.16839681 26.71342657 50.6640625 27.94140625 C39.06374343 33.22410814 24.35846218 34.05632716 12.2734375 29.5859375 C9.15936841 28.1179641 6.2395475 26.43256841 3.29296875 24.65234375 C2.63296875 24.65234375 1.97296875 24.65234375 1.29296875 24.65234375 Z " fill="#262625" transform="translate(98.70703125,135.34765625)"/>
<path d="M0 0 C3.98435344 1.54233037 7.84868147 3.2920785 11.71875 5.09765625 C21.97488632 9.1544499 36.28634726 8.57848446 46.4375 4.625 C48.30339034 3.77528695 50.1591366 2.90265219 52 2 C53.66158911 1.32077702 55.32671562 0.64987814 57 0 C57.44730469 0.66386719 57.89460937 1.32773438 58.35546875 2.01171875 C66.34934338 13.68720729 76.48832933 23.41636243 90.703125 26.62890625 C95.43665448 27.39367717 100.21810584 27.6971467 105 28 C105.08636719 28.93199219 105.17273438 29.86398438 105.26171875 30.82421875 C106.86235452 45.34741855 110.87649688 59.4873231 122.6328125 69.16796875 C125.04373438 70.87248349 127.47927079 72.46428043 130 74 C130.99 74.66 131.98 75.32 133 76 C131.63406571 80.43928644 129.88166423 84.56372215 127.90234375 88.75390625 C123.80336228 98.95699866 124.96582085 112.35346469 128.84375 122.39453125 C130.44663682 126.00644176 132.1260429 129.51979396 134 133 C133.29875 133.4125 132.5975 133.825 131.875 134.25 C119.04038359 142.0623752 111.77725026 150.66824922 107 165 C106.85596652 166.33363703 106.75409577 167.67218046 106.68359375 169.01171875 C106.64169922 169.76904297 106.59980469 170.52636719 106.55664062 171.30664062 C106.51732422 172.09232422 106.47800781 172.87800781 106.4375 173.6875 C106.37272461 174.88342773 106.37272461 174.88342773 106.30664062 176.10351562 C106.20072632 178.06881447 106.09987449 180.03438496 106 182 C104.91203125 182.01417969 103.8240625 182.02835938 102.703125 182.04296875 C88.49787492 182.42400217 77.05591777 185.76637817 66.875 196.171875 C63.17951765 200.22060199 59.87256535 204.33208131 57 209 C52.35122273 207.53196507 47.86973062 205.76087011 43.3671875 203.90234375 C33.28961093 200.06089129 19.84709658 200.70308513 10 205 C8.51359116 205.73554252 7.03398569 206.48503993 5.5625 207.25 C2 209 2 209 -1 208 C-2.47265625 205.77734375 -2.47265625 205.77734375 -4.0625 202.9375 C-10.98271778 191.69579602 -21.61360432 185.8119353 -34.1015625 182.59375 C-38.70322196 181.651092 -43.3155039 181.26276671 -48 181 C-48.02578125 180.28457031 -48.0515625 179.56914062 -48.078125 178.83203125 C-48.86987755 164.92237847 -52.79736972 153.55309191 -62 143 C-65.48289688 139.99605957 -69.10292428 137.43407516 -73 135 C-73.99 134.34 -74.98 133.68 -76 133 C-74.9906804 130.40123786 -73.93891718 127.87542806 -72.7109375 125.37109375 C-67.42134284 113.75563881 -66.61439334 99.08054506 -71.0625 86.9765625 C-72.03005366 84.93663687 -73.09920044 83.00447426 -74.25 81.0625 C-74.8275 80.051875 -75.405 79.04125 -76 78 C-74.71452979 74.14358938 -73.34638023 73.80357776 -69.875 71.8125 C-58.46056161 64.74501094 -52.80867301 54.6815458 -49.55859375 41.828125 C-48.65401646 37.24830709 -48.26118946 32.65637756 -48 28 C-47.30777344 27.98582031 -46.61554687 27.97164062 -45.90234375 27.95703125 C-31.34557438 27.24741272 -17.85082949 22.64457144 -7.875 11.66015625 C-4.93052433 7.97342733 -2.27146944 4.14209133 0 0 Z M-29 49 C-29.69996094 49.68707031 -30.39992188 50.37414062 -31.12109375 51.08203125 C-46.71081031 67.4618699 -51.71637802 88.0755163 -51.2421875 110.1015625 C-50.5735496 127.29416286 -43.76824026 142.77427752 -33 156 C-32.54367188 156.61875 -32.08734375 157.2375 -31.6171875 157.875 C-19.57958241 173.444597 1.03225602 182.37522081 20 185 C43.19793505 186.52695269 64.67902301 179.32115987 82.40234375 164.33984375 C94.10630484 153.79747879 101.51929146 141.05726475 106 126 C106.36480469 124.82050781 106.72960937 123.64101563 107.10546875 122.42578125 C110.838671 106.98473929 109.42338475 88.47380098 103 74 C102.31357422 72.37964844 102.31357422 72.37964844 101.61328125 70.7265625 C98.35457422 63.63775872 94.05089341 57.9015702 89 52 C88.2575 50.989375 87.515 49.97875 86.75 48.9375 C75.44179211 35.68860957 56.01024338 27.00222926 39 25 C12.42903678 23.46518309 -9.72083842 30.04269421 -29 49 Z " fill="#FBC93D" transform="translate(100,160)"/>
<path d="M0 0 C1.02738281 0.42410156 2.05476563 0.84820312 3.11328125 1.28515625 C10.58808134 4.69488081 16.24879757 9.17652034 22 15 C22.56332031 15.54140625 23.12664062 16.0828125 23.70703125 16.640625 C31.40261143 24.68138952 35.20351559 35.24687389 37 46 C13.90964682 59.78803535 -9.80306623 71.10639657 -35.18798828 80.00878906 C-37.56061219 80.84511942 -39.92146759 81.70386037 -42.27734375 82.5859375 C-63.42888824 90.43746695 -63.42888824 90.43746695 -72 90 C-80.71359462 73.66707613 -85.68350376 57.59802562 -80.375 39.0625 C-76.50244876 28.32190494 -71.04629096 20.07482391 -63 12 C-62.45859375 11.43539063 -61.9171875 10.87078125 -61.359375 10.2890625 C-45.35616415 -4.98672968 -19.95001931 -8.28454877 0 0 Z " fill="#C04C8F" transform="translate(304,380)"/>
<path d="M0 0 C0.61875 0.45632812 1.2375 0.91265625 1.875 1.3828125 C12.09676883 9.28575415 19.05260998 21.30736205 24 33 C24.65162109 34.49080078 24.65162109 34.49080078 25.31640625 36.01171875 C32.27550993 55.3371739 29.29844789 78.88415303 20.875 97.125 C10.62413902 116.4683091 -5.33635619 131.07116974 -26.33203125 137.96875 C-47.54633485 143.93315485 -68.30362018 143.62731886 -88 133 C-89.22203125 132.35611328 -89.22203125 132.35611328 -90.46875 131.69921875 C-109.37058002 121.08189334 -122.44754159 104.03606366 -128.9375 83.4375 C-134.51336646 63.31268395 -131.41641124 40.2757864 -121.4375 22.1640625 C-117.35511923 15.41679428 -112.52100385 9.61473906 -107 4 C-106.31292969 3.30003906 -105.62585938 2.60007813 -104.91796875 1.87890625 C-76.18091925 -25.47194049 -29.95558903 -24.38951674 0 0 Z M-99 18 C-112.44009188 33.76751024 -116.56343394 50.76332693 -115 71 C-112.85203375 87.1551776 -104.18683617 102.40169855 -91.24853516 112.34619141 C-74.49573681 124.27913831 -56.81414989 127.85705165 -36.48828125 124.59716797 C-19.70194894 120.68311966 -5.51146956 109.09735667 4 95 C6.01360275 91.43424514 7.58934984 87.84188433 9 84 C9.3196875 83.14535156 9.639375 82.29070312 9.96875 81.41015625 C13.88949673 68.7584874 14.2302958 51.29612938 9 39 C8.58621094 38.02160156 8.17242187 37.04320312 7.74609375 36.03515625 C-0.76067813 17.65403881 -14.56315668 7.01775248 -32.99609375 -0.16796875 C-56.97798473 -7.41356134 -81.66979478 0.62131868 -99 18 Z " fill="#282725" transform="translate(180,203)"/>
<path d="M0 0 C-1.38176945 3.28244373 -3.40449266 5.66049953 -5.69500732 8.35598755 C-13.19101977 17.56234519 -13.2788518 25.64394392 -12.75 37.125 C-12.71688805 38.80981398 -12.68821738 40.4947213 -12.6640625 42.1796875 C-13.02230634 51.08400722 -13.02230634 51.08400722 -10 59 C-7.15805459 60.82757863 -7.15805459 60.82757863 -3.71484375 62.41796875 C-3.09855606 62.72068192 -2.48226837 63.02339508 -1.8473053 63.33528137 C0.11727018 64.29751322 2.08939502 65.24290033 4.0625 66.1875 C6.03733948 67.14624149 8.01050918 68.10832514 9.98301697 69.07185364 C11.76852499 69.94190909 13.55812554 70.80355082 15.34790039 71.66479492 C18 73 18 73 19 74 C20.55050773 79.0756531 21.43646983 84.12230625 19 89 C15.88623875 91.52088617 12.33987461 93.24611005 8.8125 95.125 C-6.33085821 103.47114568 -9.33341711 117.75230171 -13.9296875 133.43359375 C-14.6386836 135.95126796 -15.32455205 138.47302772 -16 141 C-18.4377963 141.05397335 -20.87439685 141.09365616 -23.3125 141.125 C-24.00279297 141.14175781 -24.69308594 141.15851563 -25.40429688 141.17578125 C-29.17135396 141.21217794 -30.78431704 141.14378864 -34 139 C-34.96736863 136.08851129 -35.76317928 133.27458717 -36.48046875 130.30078125 C-36.69818436 129.43237106 -36.91589996 128.56396088 -37.14021301 127.66923523 C-37.59872953 125.82882425 -38.0514327 123.98695671 -38.4987793 122.14379883 C-39.18145422 119.3373539 -39.8850796 116.53680323 -40.59179688 113.73632812 C-41.03512139 111.94562575 -41.47721815 110.15461889 -41.91796875 108.36328125 C-42.12729538 107.53073318 -42.33662201 106.69818512 -42.55229187 105.84040833 C-44.33361089 98.41830067 -44.92507876 92.85833022 -41.19140625 85.91015625 C-40.31838867 84.23856445 -40.31838867 84.23856445 -39.42773438 82.53320312 C-38.81220703 81.38787109 -38.19667969 80.24253906 -37.5625 79.0625 C-31.72994293 69.09068153 -31.72994293 69.09068153 -30 58 C-32.52809859 54.31296496 -35.64532384 52.58590877 -39.51171875 50.546875 C-54.41902421 42.66457082 -59.52069311 33.41088781 -64.51293945 17.54272461 C-65.02019604 14.89456552 -65.00198555 13.48391088 -64 11 C-47.47781982 -3.09430255 -20.28740752 -7.65906621 0 0 Z " fill="#46B0AD" transform="translate(445,187)"/>
<path d="M0 0 C2.97709056 0.67427387 4.04912782 2.16381587 6.03515625 4.4609375 C7.48535156 7.41503906 7.48535156 7.41503906 8.86328125 10.8515625 C16.82651176 29.60620099 24.40490124 39.62673588 42.95654297 49.24121094 C45.03515625 50.4609375 45.03515625 50.4609375 46.03515625 52.4609375 C46.73480725 59.57405596 46.73480725 59.57405596 44.09375 62.921875 C41.55220328 65.03171583 39.63964567 66.25185218 36.734375 67.66796875 C20.1111528 76.05693198 14.1975729 89.19203411 7.30377197 105.68771362 C5.86415061 109.05190229 5.17188934 110.36978211 2.03515625 112.4609375 C-3.59666193 112.99730114 -3.59666193 112.99730114 -5.96484375 112.4609375 C-9.5789009 109.44175895 -11.05618354 106.40181295 -12.79296875 102.0703125 C-20.75619926 83.31567401 -28.33458874 73.29513912 -46.88623047 63.68066406 C-48.96484375 62.4609375 -48.96484375 62.4609375 -49.96484375 60.4609375 C-50.66449475 53.34781904 -50.66449475 53.34781904 -48.0234375 50 C-45.48189078 47.89015917 -43.56933317 46.67002282 -40.6640625 45.25390625 C-24.0408403 36.86494302 -18.1272604 23.72984089 -11.23345947 7.23416138 C-8.7006793 1.31541735 -6.38588597 0.27069266 0 0 Z " fill="#262525" transform="translate(457.96484375,367.5390625)"/>
<path d="M0 0 C2.97709056 0.67427387 4.04912782 2.16381587 6.03515625 4.4609375 C7.48535156 7.41503906 7.48535156 7.41503906 8.86328125 10.8515625 C16.82651176 29.60620099 24.40490124 39.62673588 42.95654297 49.24121094 C45.03515625 50.4609375 45.03515625 50.4609375 46.03515625 52.4609375 C46.73480725 59.57405596 46.73480725 59.57405596 44.09375 62.921875 C41.55220328 65.03171583 39.63964567 66.25185218 36.734375 67.66796875 C20.1111528 76.05693198 14.1975729 89.19203411 7.30377197 105.68771362 C5.86415061 109.05190229 5.17188934 110.36978211 2.03515625 112.4609375 C-3.59666193 112.99730114 -3.59666193 112.99730114 -5.96484375 112.4609375 C-9.5789009 109.44175895 -11.05618354 106.40181295 -12.79296875 102.0703125 C-20.75619926 83.31567401 -28.33458874 73.29513912 -46.88623047 63.68066406 C-48.96484375 62.4609375 -48.96484375 62.4609375 -49.96484375 60.4609375 C-50.66449475 53.34781904 -50.66449475 53.34781904 -48.0234375 50 C-45.48189078 47.89015917 -43.56933317 46.67002282 -40.6640625 45.25390625 C-24.0408403 36.86494302 -18.1272604 23.72984089 -11.23345947 7.23416138 C-8.7006793 1.31541735 -6.38588597 0.27069266 0 0 Z " fill="#262525" transform="translate(121.96484375,-0.4609375)"/>
<path d="M0 0 C14.01222158 10.88467726 25.88117225 25.48902109 28.7734375 43.51171875 C29.01845637 46.09766119 29.19276915 48.65380037 29.25 51.25 C12.07413327 52.6274705 12.07413327 52.6274705 7.96875 49.52734375 C6.625 47.25 6.625 47.25 5.4765625 44.765625 C1.7349147 37.09167218 -7.04870726 32.22086293 -14.75 29.25 C-23.63403109 27.01833139 -33.40461797 27.36328781 -41.75 31.25 C-50.13638687 36.30274001 -57.33593183 42.42186366 -61.75 51.25 C-78.58 51.25 -95.41 51.25 -112.75 51.25 C-112.75 43.37336374 -112.75 43.37336374 -111.69140625 40.35546875 C-111.47033203 39.71029297 -111.24925781 39.06511719 -111.02148438 38.40039062 C-110.78751953 37.75263672 -110.55355469 37.10488281 -110.3125 36.4375 C-110.08240234 35.77041016 -109.85230469 35.10332031 -109.61523438 34.41601562 C-108.76223938 31.96581841 -107.91143723 29.57287446 -106.75 27.25 C-105.71069336 27.23018066 -104.67138672 27.21036133 -103.60058594 27.18994141 C-99.73885164 27.11377876 -95.8774889 27.025078 -92.01611328 26.93261719 C-90.34594059 26.89437143 -88.67568677 26.85951085 -87.00537109 26.828125 C-84.60224443 26.78237839 -82.19967416 26.72440075 -79.796875 26.6640625 C-79.05193787 26.65251129 -78.30700073 26.64096008 -77.53948975 26.62905884 C-73.84049211 26.52412538 -70.83380486 26.42333899 -67.75 24.25 C-66.36449803 21.47899606 -66.5622533 19.3165294 -66.75 16.25 C-68.47226496 13.00150023 -68.47226496 13.00150023 -71.75 12.25 C-73.52166975 12.10164052 -75.29767612 12.00229982 -77.07421875 11.93359375 C-78.10224609 11.89169922 -79.13027344 11.84980469 -80.18945312 11.80664062 C-81.79723633 11.74766602 -81.79723633 11.74766602 -83.4375 11.6875 C-84.52095703 11.64431641 -85.60441406 11.60113281 -86.72070312 11.55664062 C-89.39700791 11.45053162 -92.07340526 11.34847639 -94.75 11.25 C-71.6816981 -16.95601925 -29.36239519 -20.44217387 0 0 Z " fill="#D15F11" transform="translate(329.75,28.75)"/>
<path d="M0 0 C7.15269442 -0.22849796 14.30444648 -0.38592406 21.45996094 -0.49438477 C23.89293585 -0.53960193 26.32566678 -0.60098912 28.7578125 -0.67895508 C32.25842416 -0.78834919 35.75580166 -0.83921234 39.2578125 -0.87890625 C40.34240753 -0.92535782 41.42700256 -0.97180939 42.54446411 -1.01966858 C49.97239513 -1.02461599 49.97239513 -1.02461599 52.98303223 1.9772644 C54.50120465 4.25885985 55.75249307 6.56346676 57 9 C63.91473707 16.69938809 72.88266442 22.42211022 83.359375 23.16796875 C96.24552164 23.27324773 105.50838228 19.46552186 115.2109375 10.98046875 C117.17974392 8.80102583 118.08734889 6.71699407 119.3125 4.0625 C120.68359375 1.7578125 120.68359375 1.7578125 123 0 C129.2378581 -1.1671668 135.71878043 -0.50374137 142 0 C142.62415278 15.25273355 134.19212663 29.30359908 124.4375 40.4375 C110.66441094 54.96014492 93.41525854 63.74297917 73.15356445 64.29272461 C54.02128282 64.47366037 36.07464361 58.44207536 22 45 C20.65485683 43.34285021 19.32004779 41.67720881 18 40 C18.91813477 39.98018066 19.83626953 39.96036133 20.78222656 39.93994141 C24.19671825 39.86173045 27.61077702 39.77503416 31.02490234 39.68261719 C32.50105536 39.64439334 33.97729943 39.60952897 35.45361328 39.578125 C37.57878094 39.53233014 39.70332542 39.47436163 41.828125 39.4140625 C43.7447998 39.36693115 43.7447998 39.36693115 45.70019531 39.31884766 C48.74248726 39.02488248 50.499947 38.70224419 53 37 C54.38550197 34.22899606 54.1877467 32.0665294 54 29 C52.27773504 25.75150023 52.27773504 25.75150023 49 25 C47.5735686 24.88677175 46.1427751 24.82404524 44.7121582 24.79467773 C43.85149246 24.77473251 42.99082672 24.75478729 42.1040802 24.73423767 C40.71644722 24.70916893 40.71644722 24.70916893 39.30078125 24.68359375 C38.35059616 24.66281265 37.40041107 24.64203156 36.4214325 24.62062073 C33.38519544 24.55521948 30.34887169 24.49628396 27.3125 24.4375 C25.25454831 24.39430583 23.19660541 24.35069124 21.13867188 24.30664062 C16.09253684 24.19954769 11.04631457 24.09825354 6 24 C5.16868782 22.07049681 4.36107721 20.13077995 3.5625 18.1875 C3.11003906 17.10855469 2.65757812 16.02960938 2.19140625 14.91796875 C0.47215369 10.1064221 0.30250107 5.06330543 0 0 Z " fill="#D15F11" transform="translate(217,96)"/>
<path d="M0 0 C16.71371649 9.12401169 28.12496207 24.31932533 33.875 42.375 C39.03812413 61.98220146 36.11346537 81.8195329 26.08496094 99.22851562 C23.45933981 103.51553337 20.3805939 107.29448194 17 111 C16.48308594 111.6084375 15.96617187 112.216875 15.43359375 112.84375 C8.07120366 120.96267642 -2.44313738 127.26977691 -13 130 C-12.58824869 128.4153813 -12.1701861 126.83240298 -11.75 125.25 C-11.51796875 124.36828125 -11.2859375 123.4865625 -11.046875 122.578125 C-10.70140625 121.39734375 -10.3559375 120.2165625 -10 119 C-9.71612427 117.63016968 -9.71612427 117.63016968 -9.42651367 116.23266602 C-7.39743826 108.13876035 -4.16306783 104.80232303 2.83398438 100.40429688 C3.94064453 99.75525391 5.04730469 99.10621094 6.1875 98.4375 C8.39333559 97.08857115 10.59537796 95.73341324 12.79296875 94.37109375 C13.7677417 93.79286865 14.74251465 93.21464355 15.74682617 92.61889648 C18.2817944 91.13114882 18.2817944 91.13114882 19 88 C19.24870792 83.8700764 19.27066387 79.74013364 19.29516602 75.60327148 C19.3067077 74.24444178 19.32719454 72.88565819 19.35668945 71.52709961 C19.39935549 69.56136325 19.41293055 67.59506359 19.42578125 65.62890625 C19.44036377 64.45400635 19.45494629 63.27910645 19.4699707 62.06860352 C18.8897264 58.27998499 18.02312661 57.29606937 15 55 C13.02634447 53.86008643 11.00603373 52.79893351 8.95703125 51.80078125 C7.80138672 51.23166016 6.64574219 50.66253906 5.45507812 50.07617188 C4.24106452 49.48791148 3.02686961 48.90002512 1.8125 48.3125 C-0.5783535 47.14502075 -2.96692896 45.97299692 -5.35546875 44.80078125 C-6.94331177 44.02988159 -6.94331177 44.02988159 -8.56323242 43.2434082 C-11 42 -11 42 -12 41 C-13.56726102 29.8907 -14.46863183 17.96356152 -7.70581055 8.52172852 C-5.25861207 5.53164216 -2.73528321 2.73121285 0 0 Z " fill="#418BE5" transform="translate(460,194)"/>
<path d="M0 0 C1.82342565 2.73513848 2.57542403 4.56303138 3.49609375 7.6484375 C8.60765215 23.16153373 15.62412927 30.42083229 30 38 C29.40458173 41.78579379 28.30140491 44.68285788 26.49609375 48.0546875 C26.00302734 48.99957031 25.50996094 49.94445312 25.00195312 50.91796875 C23.96135417 52.88484367 22.91449701 54.84842069 21.86132812 56.80859375 C17.32908532 65.54043768 17.467845 71.22910061 20.25 80.4375 C20.70870834 82.02034828 21.16570324 83.60369399 21.62109375 85.1875 C21.8516748 85.98414063 22.08225586 86.78078125 22.31982422 87.6015625 C23.3865323 91.36299115 24.36006901 95.14575472 25.3125 98.9375 C25.48362305 99.60515381 25.65474609 100.27280762 25.83105469 100.96069336 C26.52358897 103.73119044 27 106.13008834 27 109 C12.60979256 104.79233701 1.09503832 92.02474755 -6.24609375 79.43359375 C-9.12112533 73.80519116 -11.20744464 68.05259583 -13 62 C-13.24621094 61.17242187 -13.49242187 60.34484375 -13.74609375 59.4921875 C-18.38742284 40.60677947 -13.76297424 21.37867389 -4 5 C-2.70152306 3.30603625 -1.37854728 1.62946707 0 0 Z " fill="#418BE5" transform="translate(367,212)"/>
<path d="M0 0 C7.22538503 4.30603754 11.61183794 10.13263188 14.4375 18 C15.58377924 27.37083278 15.35041227 36.25894094 9.4375 44 C4.17173342 49.79454649 -1.46288906 53.49851854 -9.39453125 54.46875 C-18.96468152 54.54388366 -26.27935606 53.80103194 -33.6171875 47.1328125 C-40.09535088 40.22456359 -42.12992353 33.50211038 -42.04296875 24.06860352 C-41.74395838 15.54582427 -38.83865527 9.83070397 -32.6875 4.0625 C-23.90268227 -3.41745987 -10.46364874 -4.75036814 0 0 Z " fill="#252524" transform="translate(49.5625,386)"/>
<path d="M0 0 C7.22538503 4.30603754 11.61183794 10.13263188 14.4375 18 C15.58377924 27.37083278 15.35041227 36.25894094 9.4375 44 C4.17173342 49.79454649 -1.46288906 53.49851854 -9.39453125 54.46875 C-18.96468152 54.54388366 -26.27935606 53.80103194 -33.6171875 47.1328125 C-40.09535088 40.22456359 -42.12992353 33.50211038 -42.04296875 24.06860352 C-41.74395838 15.54582427 -38.83865527 9.83070397 -32.6875 4.0625 C-23.90268227 -3.41745987 -10.46364874 -4.75036814 0 0 Z " fill="#252524" transform="translate(433.5625,10)"/>
<path d="M0 0 C-1.00860462 14.45666624 -9.13996574 27.02528547 -19.36328125 36.83203125 C-33.16448494 48.17968761 -48.93177134 52.48932901 -66.58007812 51.27490234 C-76.27620393 50.17342558 -86.38412164 46.1106224 -94 40 C-94 39.34 -94 38.68 -94 38 C-93.03513672 37.68885254 -92.07027344 37.37770508 -91.07617188 37.05712891 C-61.59760756 27.52181004 -31.76358898 17.41038539 -4.91015625 1.6484375 C-2 0 -2 0 0 0 Z " fill="#BE4C8E" transform="translate(341,445)"/>
<path d="M0 0 C0.66 -0.0103125 1.32 -0.020625 2 -0.03125 C5.15312765 0.80629953 6.15596991 1.77475199 8 4.5 C8.48952097 7.92968726 8.37582359 11.29469075 8.25 14.75 C8.23195312 15.68585938 8.21390625 16.62171875 8.1953125 17.5859375 C8.14825673 19.89167015 8.08253713 22.19530945 8 24.5 C8.81984375 24.45359375 9.6396875 24.4071875 10.484375 24.359375 C11.56203125 24.32328125 12.6396875 24.2871875 13.75 24.25 C15.35101563 24.18039062 15.35101563 24.18039062 16.984375 24.109375 C20 24.5 20 24.5 22.359375 26.265625 C24.09023982 28.62289805 24.54492653 29.62470206 24.5 32.5 C24.5103125 33.16 24.520625 33.82 24.53125 34.5 C23.73922269 37.48174986 22.45326814 38.66411059 20 40.5 C16.984375 40.890625 16.984375 40.890625 13.75 40.75 C12.67234375 40.71390625 11.5946875 40.6778125 10.484375 40.640625 C9.66453125 40.59421875 8.8446875 40.5478125 8 40.5 C8.02094727 41.08491211 8.04189453 41.66982422 8.06347656 42.27246094 C8.14680115 44.93146465 8.19870897 47.59019355 8.25 50.25 C8.30027344 51.63058594 8.30027344 51.63058594 8.3515625 53.0390625 C8.45005258 59.83487804 8.45005258 59.83487804 6.234375 63.109375 C3.90397303 64.55976504 2.71714866 65.04245545 0 65 C-0.66 65.0103125 -1.32 65.020625 -2 65.03125 C-5.15312765 64.19370047 -6.15596991 63.22524801 -8 60.5 C-8.48952097 57.07031274 -8.37582359 53.70530925 -8.25 50.25 C-8.23195313 49.31414062 -8.21390625 48.37828125 -8.1953125 47.4140625 C-8.14825673 45.10832985 -8.08253713 42.80469055 -8 40.5 C-8.81984375 40.54640625 -9.6396875 40.5928125 -10.484375 40.640625 C-12.10085937 40.69476563 -12.10085937 40.69476563 -13.75 40.75 C-14.81734375 40.79640625 -15.8846875 40.8428125 -16.984375 40.890625 C-20 40.5 -20 40.5 -22.359375 38.734375 C-24.09023982 36.37710195 -24.54492653 35.37529794 -24.5 32.5 C-24.51546875 31.51 -24.51546875 31.51 -24.53125 30.5 C-23.73922269 27.51825014 -22.45326814 26.33588941 -20 24.5 C-16.984375 24.109375 -16.984375 24.109375 -13.75 24.25 C-12.67234375 24.28609375 -11.5946875 24.3221875 -10.484375 24.359375 C-9.25460938 24.42898438 -9.25460938 24.42898438 -8 24.5 C-8.02094727 23.91508789 -8.04189453 23.33017578 -8.06347656 22.72753906 C-8.14680115 20.06853535 -8.19870897 17.40980645 -8.25 14.75 C-8.28351563 13.82960938 -8.31703125 12.90921875 -8.3515625 11.9609375 C-8.45005258 5.16512196 -8.45005258 5.16512196 -6.234375 1.890625 C-3.90397303 0.44023496 -2.71714866 -0.04245545 0 0 Z " fill="#252525" transform="translate(112,431.5)"/>
<path d="M0 0 C0.66 -0.0103125 1.32 -0.020625 2 -0.03125 C5.15312765 0.80629953 6.15596991 1.77475199 8 4.5 C8.48952097 7.92968726 8.37582359 11.29469075 8.25 14.75 C8.23195313 15.68585938 8.21390625 16.62171875 8.1953125 17.5859375 C8.14825673 19.89167015 8.08253713 22.19530945 8 24.5 C8.81984375 24.45359375 9.6396875 24.4071875 10.484375 24.359375 C11.56203125 24.32328125 12.6396875 24.2871875 13.75 24.25 C15.35101563 24.18039063 15.35101563 24.18039063 16.984375 24.109375 C20 24.5 20 24.5 22.359375 26.265625 C24.09023982 28.62289805 24.54492653 29.62470206 24.5 32.5 C24.5103125 33.16 24.520625 33.82 24.53125 34.5 C23.73922269 37.48174986 22.45326814 38.66411059 20 40.5 C16.984375 40.890625 16.984375 40.890625 13.75 40.75 C12.67234375 40.71390625 11.5946875 40.6778125 10.484375 40.640625 C9.66453125 40.59421875 8.8446875 40.5478125 8 40.5 C8.02094727 41.08491211 8.04189453 41.66982422 8.06347656 42.27246094 C8.14680115 44.93146465 8.19870897 47.59019355 8.25 50.25 C8.30027344 51.63058594 8.30027344 51.63058594 8.3515625 53.0390625 C8.45005258 59.83487804 8.45005258 59.83487804 6.234375 63.109375 C3.90397303 64.55976504 2.71714866 65.04245545 0 65 C-0.66 65.0103125 -1.32 65.020625 -2 65.03125 C-5.15312765 64.19370047 -6.15596991 63.22524801 -8 60.5 C-8.48952097 57.07031274 -8.37582359 53.70530925 -8.25 50.25 C-8.23195313 49.31414062 -8.21390625 48.37828125 -8.1953125 47.4140625 C-8.14825673 45.10832985 -8.08253713 42.80469055 -8 40.5 C-8.81984375 40.54640625 -9.6396875 40.5928125 -10.484375 40.640625 C-12.10085938 40.69476563 -12.10085938 40.69476563 -13.75 40.75 C-14.81734375 40.79640625 -15.8846875 40.8428125 -16.984375 40.890625 C-20 40.5 -20 40.5 -22.359375 38.734375 C-24.09023982 36.37710195 -24.54492653 35.37529794 -24.5 32.5 C-24.51546875 31.51 -24.51546875 31.51 -24.53125 30.5 C-23.73922269 27.51825014 -22.45326814 26.33588941 -20 24.5 C-16.984375 24.109375 -16.984375 24.109375 -13.75 24.25 C-12.67234375 24.28609375 -11.5946875 24.3221875 -10.484375 24.359375 C-9.25460937 24.42898437 -9.25460937 24.42898437 -8 24.5 C-8.02094727 23.91508789 -8.04189453 23.33017578 -8.06347656 22.72753906 C-8.14680115 20.06853535 -8.19870897 17.40980645 -8.25 14.75 C-8.28351563 13.82960937 -8.31703125 12.90921875 -8.3515625 11.9609375 C-8.45005258 5.16512196 -8.45005258 5.16512196 -6.234375 1.890625 C-3.90397303 0.44023496 -2.71714866 -0.04245545 0 0 Z " fill="#252525" transform="translate(296,207.5)"/>
<path d="M0 0 C0.66 -0.0103125 1.32 -0.020625 2 -0.03125 C5.15312765 0.80629953 6.15596991 1.77475199 8 4.5 C8.48952097 7.92968726 8.37582359 11.29469075 8.25 14.75 C8.23195313 15.68585938 8.21390625 16.62171875 8.1953125 17.5859375 C8.14825673 19.89167015 8.08253713 22.19530945 8 24.5 C8.81984375 24.45359375 9.6396875 24.4071875 10.484375 24.359375 C11.56203125 24.32328125 12.6396875 24.2871875 13.75 24.25 C15.35101563 24.18039063 15.35101563 24.18039063 16.984375 24.109375 C20 24.5 20 24.5 22.359375 26.265625 C24.09023982 28.62289805 24.54492653 29.62470206 24.5 32.5 C24.5103125 33.16 24.520625 33.82 24.53125 34.5 C23.73922269 37.48174986 22.45326814 38.66411059 20 40.5 C16.984375 40.890625 16.984375 40.890625 13.75 40.75 C12.67234375 40.71390625 11.5946875 40.6778125 10.484375 40.640625 C9.66453125 40.59421875 8.8446875 40.5478125 8 40.5 C8.02094727 41.08491211 8.04189453 41.66982422 8.06347656 42.27246094 C8.14680115 44.93146465 8.19870897 47.59019355 8.25 50.25 C8.30027344 51.63058594 8.30027344 51.63058594 8.3515625 53.0390625 C8.45005258 59.83487804 8.45005258 59.83487804 6.234375 63.109375 C3.90397303 64.55976504 2.71714866 65.04245545 0 65 C-0.66 65.0103125 -1.32 65.020625 -2 65.03125 C-5.15312765 64.19370047 -6.15596991 63.22524801 -8 60.5 C-8.48952097 57.07031274 -8.37582359 53.70530925 -8.25 50.25 C-8.23195313 49.31414062 -8.21390625 48.37828125 -8.1953125 47.4140625 C-8.14825673 45.10832985 -8.08253713 42.80469055 -8 40.5 C-8.81984375 40.54640625 -9.6396875 40.5928125 -10.484375 40.640625 C-12.10085938 40.69476563 -12.10085938 40.69476563 -13.75 40.75 C-14.81734375 40.79640625 -15.8846875 40.8428125 -16.984375 40.890625 C-20 40.5 -20 40.5 -22.359375 38.734375 C-24.09023982 36.37710195 -24.54492653 35.37529794 -24.5 32.5 C-24.51546875 31.51 -24.51546875 31.51 -24.53125 30.5 C-23.73922269 27.51825014 -22.45326814 26.33588941 -20 24.5 C-16.984375 24.109375 -16.984375 24.109375 -13.75 24.25 C-12.67234375 24.28609375 -11.5946875 24.3221875 -10.484375 24.359375 C-9.25460937 24.42898437 -9.25460937 24.42898437 -8 24.5 C-8.02094727 23.91508789 -8.04189453 23.33017578 -8.06347656 22.72753906 C-8.14680115 20.06853535 -8.19870897 17.40980645 -8.25 14.75 C-8.28351563 13.82960938 -8.31703125 12.90921875 -8.3515625 11.9609375 C-8.45005258 5.16512196 -8.45005258 5.16512196 -6.234375 1.890625 C-3.90397303 0.44023496 -2.71714866 -0.04245545 0 0 Z " fill="#252525" transform="translate(472,87.5)"/>
<path d="M0 0 C0.66 -0.0103125 1.32 -0.020625 2 -0.03125 C5.15312765 0.80629953 6.15596991 1.77475199 8 4.5 C8.48952097 7.92968726 8.37582359 11.29469075 8.25 14.75 C8.23195312 15.68585938 8.21390625 16.62171875 8.1953125 17.5859375 C8.14825673 19.89167015 8.08253713 22.19530945 8 24.5 C8.81984375 24.45359375 9.6396875 24.4071875 10.484375 24.359375 C11.56203125 24.32328125 12.6396875 24.2871875 13.75 24.25 C15.35101563 24.18039063 15.35101563 24.18039063 16.984375 24.109375 C20 24.5 20 24.5 22.359375 26.265625 C24.09023982 28.62289805 24.54492653 29.62470206 24.5 32.5 C24.5103125 33.16 24.520625 33.82 24.53125 34.5 C23.73922269 37.48174986 22.45326814 38.66411059 20 40.5 C16.984375 40.890625 16.984375 40.890625 13.75 40.75 C12.67234375 40.71390625 11.5946875 40.6778125 10.484375 40.640625 C9.66453125 40.59421875 8.8446875 40.5478125 8 40.5 C8.02094727 41.08491211 8.04189453 41.66982422 8.06347656 42.27246094 C8.14680115 44.93146465 8.19870897 47.59019355 8.25 50.25 C8.30027344 51.63058594 8.30027344 51.63058594 8.3515625 53.0390625 C8.45005258 59.83487804 8.45005258 59.83487804 6.234375 63.109375 C3.90397303 64.55976504 2.71714866 65.04245545 0 65 C-0.66 65.0103125 -1.32 65.020625 -2 65.03125 C-5.15312765 64.19370047 -6.15596991 63.22524801 -8 60.5 C-8.48952097 57.07031274 -8.37582359 53.70530925 -8.25 50.25 C-8.23195313 49.31414062 -8.21390625 48.37828125 -8.1953125 47.4140625 C-8.14825673 45.10832985 -8.08253713 42.80469055 -8 40.5 C-8.81984375 40.54640625 -9.6396875 40.5928125 -10.484375 40.640625 C-12.10085937 40.69476563 -12.10085937 40.69476563 -13.75 40.75 C-14.81734375 40.79640625 -15.8846875 40.8428125 -16.984375 40.890625 C-20 40.5 -20 40.5 -22.359375 38.734375 C-24.09023982 36.37710195 -24.54492653 35.37529794 -24.5 32.5 C-24.51546875 31.51 -24.51546875 31.51 -24.53125 30.5 C-23.73922269 27.51825014 -22.45326814 26.33588941 -20 24.5 C-16.984375 24.109375 -16.984375 24.109375 -13.75 24.25 C-12.67234375 24.28609375 -11.5946875 24.3221875 -10.484375 24.359375 C-9.25460938 24.42898437 -9.25460938 24.42898437 -8 24.5 C-8.02094727 23.91508789 -8.04189453 23.33017578 -8.06347656 22.72753906 C-8.14680115 20.06853535 -8.19870897 17.40980645 -8.25 14.75 C-8.28351562 13.82960938 -8.31703125 12.90921875 -8.3515625 11.9609375 C-8.45005258 5.16512196 -8.45005258 5.16512196 -6.234375 1.890625 C-3.90397303 0.44023496 -2.71714866 -0.04245545 0 0 Z " fill="#252525" transform="translate(48,79.5)"/>
<path d="M0 0 C3.48061257 0.69313058 6.69767471 1.70827412 10 3 C10.67546875 3.25523437 11.3509375 3.51046875 12.046875 3.7734375 C23.13220229 8.6066402 31.94749998 18.94370809 36.875 29.8125 C38.69786597 34.9772869 39.18022183 39.64741364 39.25 45.125 C39.27578125 46.34445312 39.3015625 47.56390625 39.328125 48.8203125 C39 52 39 52 37.73046875 53.90234375 C34.71281456 55.81647655 31.39674389 55.63688948 28 55 C25.56880377 53.12984906 24.35930827 51.71861655 23 49 C22.75889038 47.00140461 22.531959 45.00108848 22.3125 43 C21.10237557 35.11242639 18.68278241 29.21645607 12.59375 23.8984375 C6.51624421 19.4501426 1.46142421 17.14181648 -6.0625 16.6875 C-9.75138674 16.35922803 -10.9421272 16.0393535 -14.125 13.875 C-16.50342498 10.2280817 -16.69990157 8.27717625 -16 4 C-11.66051502 -1.63830995 -6.55960826 -0.67215739 0 0 Z " fill="#282625" transform="translate(137,217)"/>
<path d="M0 0 C0.66 0 1.32 0 2 0 C2.22961426 0.52843506 2.45922852 1.05687012 2.69580078 1.60131836 C7.74588744 12.91158816 12.11967459 20.69316147 23.2890625 26.50390625 C24.18367188 26.99761719 25.07828125 27.49132812 26 28 C26 28.66 26 29.32 26 30 C24.38257879 30.9546834 22.76109547 31.90306009 21.12133789 32.81884766 C10.47781877 38.9250193 6.4775685 46.86068326 2 58 C1.34 58 0.68 58 0 58 C-0.22961426 57.47156494 -0.45922852 56.94312988 -0.69580078 56.39868164 C-5.74588744 45.08841184 -10.11967459 37.30683853 -21.2890625 31.49609375 C-22.18367188 31.00238281 -23.07828125 30.50867188 -24 30 C-24 29.34 -24 28.68 -24 28 C-22.38257879 27.0453166 -20.76109547 26.09693991 -19.12133789 25.18115234 C-8.47781877 19.0749807 -4.4775685 11.13931674 0 0 Z " fill="#E78331" transform="translate(455,395)"/>
<path d="M0 0 C0.66 0 1.32 0 2 0 C2.22961426 0.52843506 2.45922852 1.05687012 2.69580078 1.60131836 C7.74588744 12.91158816 12.11967459 20.69316147 23.2890625 26.50390625 C24.18367188 26.99761719 25.07828125 27.49132812 26 28 C26 28.66 26 29.32 26 30 C24.38257879 30.9546834 22.76109547 31.90306009 21.12133789 32.81884766 C10.47781877 38.9250193 6.4775685 46.86068326 2 58 C1.34 58 0.68 58 0 58 C-0.22961426 57.47156494 -0.45922852 56.94312988 -0.69580078 56.39868164 C-5.74588744 45.08841184 -10.11967459 37.30683853 -21.2890625 31.49609375 C-22.18367188 31.00238281 -23.07828125 30.50867188 -24 30 C-24 29.34 -24 28.68 -24 28 C-22.38257879 27.0453166 -20.76109547 26.09693991 -19.12133789 25.18115234 C-8.47781877 19.0749807 -4.4775685 11.13931674 0 0 Z " fill="#E78331" transform="translate(119,27)"/>
<path d="M0 0 C5.70198435 3.61662965 9.99102727 7.98803026 12.2109375 14.40234375 C0.30524702 28.54878777 0.30524702 28.54878777 -8.76953125 29.640625 C-15.89574847 29.8802677 -20.56089553 28.13914371 -25.99609375 23.53125 C-29.67639604 20.02335826 -32.11321168 17.26908224 -33.7890625 12.40234375 C-24.23648908 1.27890271 -15.00136157 -7.39540807 0 0 Z " fill="#E78331" transform="translate(314.7890625,74.59765625)"/>
<path d="M0 0 C3.12578143 1.6720747 5.39281175 3.7856235 7 7 C7.51512617 11.09157355 7.94367269 15.23589546 5.953125 18.95703125 C3.55501226 21.85592636 1.60351712 23.79811835 -2.171875 24.2734375 C-9.98876369 24.58137554 -9.98876369 24.58137554 -13.5625 21.625 C-17.3057723 17.59378368 -17.39037018 14.90519941 -17.359375 9.55078125 C-16.78039966 5.44131496 -15.00085071 3.78650423 -12 1 C-8.27533151 -0.86233425 -4.05504687 -0.57130829 0 0 Z " fill="#252525" transform="translate(289,312)"/>
<path d="M0 0 C4.08998175 1.80720124 6.66247347 4.19069751 9 8 C9.62819266 13.0255413 9.03320735 15.95572354 6 20 C3.24705395 23.21177039 0.96958591 23.86947882 -3.25 24.4375 C-8.1843364 23.86182742 -10.79803186 21.71753928 -14 18 C-15.23534045 14.29397865 -15.45528745 11.90246386 -15 8 C-10.91704021 1.64314568 -7.65816344 -0.51919752 0 0 Z " fill="#FAC83D" transform="translate(39,400)"/>
<path d="M0 0 C4.08998175 1.80720124 6.66247347 4.19069751 9 8 C9.62819266 13.0255413 9.03320735 15.95572354 6 20 C3.24705395 23.21177039 0.96958591 23.86947882 -3.25 24.4375 C-8.1843364 23.86182742 -10.79803186 21.71753928 -14 18 C-15.23534045 14.29397865 -15.45528745 11.90246386 -15 8 C-10.91704021 1.64314568 -7.65816344 -0.51919752 0 0 Z " fill="#FAC83D" transform="translate(423,24)"/>
</svg>
