<svg width="31" height="32" viewBox="0 0 31 32" fill="none" xmlns="http://www.w3.org/2000/svg">
<g clip-path="url(#clip0_1_17566)">
<path d="M3.92644 14.1563C3.92644 10.4418 3.92496 6.72664 3.92644 3.0122C3.92717 1.34766 5.27378 0.00728358 6.96643 0.00509819C11.8493 -0.000729531 16.7328 -0.00218646 21.6157 0.00364126C23.3142 0.00582665 24.6616 1.36368 24.6608 3.04352C24.6608 3.58987 24.6557 4.13622 24.6572 4.68257C24.6579 4.98853 24.5475 5.20925 24.2117 5.23548C23.9253 5.25879 23.7692 5.07521 23.7611 4.70005C23.7501 4.19013 23.7611 3.6802 23.756 3.17028C23.7442 1.82189 22.8268 0.912765 21.4618 0.911308C17.6826 0.907666 13.9042 0.911308 10.125 0.912037C9.13102 0.912037 8.13708 0.917865 7.14387 0.906209C5.71553 0.888726 4.81657 1.94864 4.82172 3.20743C4.85338 10.5394 4.83865 17.8722 4.84013 25.2042C4.84013 26.4731 5.78253 27.399 7.07392 27.399C11.8957 27.399 16.7174 27.399 21.5391 27.3976C22.815 27.3976 23.767 26.4564 23.767 25.1816C23.7663 22.8264 23.7567 20.4713 23.7508 18.1162C23.7508 18.0193 23.7125 17.8896 23.7611 17.8314C23.8892 17.6784 24.0453 17.4671 24.2088 17.4489C24.3413 17.4343 24.521 17.6522 24.6395 17.7986C24.6947 17.8671 24.6601 18.0098 24.6601 18.1184C24.6623 20.5099 24.6645 22.9015 24.6645 25.293C24.6645 26.9233 23.3238 28.2608 21.6746 28.2622C16.7542 28.2666 11.8345 28.2666 6.91416 28.2637C5.26936 28.263 3.92791 26.9262 3.92717 25.2989C3.92644 21.5844 3.92717 17.8692 3.92717 14.1548L3.92644 14.1563Z" fill="#851739"/>
<path d="M31 7.51266C30.9845 7.941 30.7408 8.53615 30.2299 9.05409C28.3038 11.0071 26.4021 12.9842 24.4834 14.9445C22.6589 16.8086 20.8029 18.6436 19.0071 20.5347C18.5028 21.0657 17.8475 21.2355 17.2504 21.5378C16.1939 22.0718 15.1035 22.5416 14.0131 23.0056C13.8187 23.088 13.5147 23.0887 13.335 22.9918C13.0781 22.8534 13.1355 22.5562 13.2194 22.3012C13.6921 20.861 14.1935 19.4282 14.6213 17.9749C14.7921 17.3943 15.1948 17.0286 15.5754 16.633C17.0803 15.0712 18.5978 13.521 20.1189 11.9752C22.3328 9.72573 24.5497 7.47988 26.7739 5.24058C27.5447 4.46476 29.1034 4.42761 29.9523 5.12839C30.6193 5.67838 31.0095 6.35731 31 7.51193V7.51266ZM24.3339 8.9674C21.5553 11.8026 18.7877 14.6254 16.079 17.3892C16.9147 18.1628 17.7378 18.9248 18.5668 19.6926C21.2829 16.9222 24.0431 14.1075 26.8077 11.2883C25.9581 10.4914 25.1497 9.73375 24.3339 8.96813V8.9674ZM28.9414 9.06283C29.2138 8.76853 29.3861 8.54489 29.5952 8.36351C30.0959 7.92934 30.1953 7.38882 30.0532 6.78419C29.8087 5.74759 28.4673 5.16627 27.5705 5.74759C27.2038 5.9858 26.9359 6.37334 26.6922 6.6232C27.4255 7.41869 28.1676 8.22364 28.9414 9.06283ZM17.7791 20.3329C17.5862 19.9578 17.3793 19.6744 16.9802 19.5709C16.8632 19.5403 16.6997 19.4231 16.6813 19.3233C16.5591 18.6582 15.9399 18.5613 15.476 18.2284C15.2242 18.986 14.9805 19.7188 14.8134 20.2207C15.183 20.6301 15.4576 20.9339 15.7786 21.2901C16.3699 21.0067 17.0612 20.676 17.7783 20.3329H17.7791ZM28.3384 9.78255C27.5168 8.90184 26.7628 8.09397 25.9949 7.27081C25.6319 7.64888 25.3235 7.96868 24.9899 8.31543C25.8072 9.09707 26.6053 9.85977 27.3563 10.578C27.7185 10.2845 28.0586 10.0091 28.3384 9.78255ZM14.5417 21.0942C14.4298 21.3994 14.3349 21.6573 14.2045 22.012C14.5601 21.8503 14.8083 21.7381 15.0998 21.6055C14.9084 21.43 14.7501 21.2857 14.541 21.0942H14.5417Z" fill="#851739"/>
<path d="M0 19.2366C0 15.8987 0 12.5616 0 9.22382C0 8.01238 0.967439 6.87889 2.13661 6.71207C2.53419 6.65525 2.82722 6.78273 2.83532 7.05518C2.84489 7.37352 2.62548 7.48789 2.32436 7.55418C1.4276 7.75159 0.891604 8.46476 0.891604 9.41613C0.891604 14.1497 0.892341 18.8825 0.893077 23.6161C0.893077 25.4001 0.893077 27.1841 0.890132 28.9681C0.887187 30.3435 1.65657 31.1215 3.04073 31.1222C7.54219 31.1251 12.0444 31.1237 16.5458 31.1244C17.6304 31.1244 18.2959 30.6567 18.628 29.6332C18.7156 29.363 18.8923 29.2464 19.1448 29.2843C19.376 29.3193 19.5321 29.4453 19.485 29.7396C19.2766 31.0319 18.1457 31.9927 16.7719 31.9949C13.472 32.0015 10.1728 31.9956 6.87294 31.9956C5.54841 31.9956 4.22316 31.9956 2.89863 31.9985C1.20083 32.0015 0.00589004 30.8257 0.00441753 29.1386C0.00147251 25.8372 0.00368127 22.5365 0.00368127 19.2351H0V19.2366Z" fill="#851739"/>
<path d="M14.2901 6.12131C12.5856 6.12131 10.8805 6.12131 9.17603 6.12131C9.0781 6.12131 8.97797 6.13078 8.88226 6.11548C8.63046 6.07396 8.44787 5.90496 8.50162 5.67039C8.53769 5.51086 8.73795 5.37828 8.88594 5.25881C8.93822 5.21656 9.05233 5.24934 9.13774 5.24934C12.5591 5.24934 15.9812 5.24934 19.4026 5.24934C19.513 5.24934 19.6596 5.21146 19.7258 5.26682C19.8694 5.38702 20.0557 5.5502 20.0652 5.70536C20.0733 5.8343 19.8694 5.99747 19.728 6.10456C19.6566 6.15774 19.5145 6.12131 19.4041 6.12131C17.6996 6.12131 15.9945 6.12131 14.2901 6.12131Z" fill="#851739"/>
<path d="M13.0227 10.4797C11.71 10.4797 10.3972 10.4812 9.08447 10.479C8.69279 10.479 8.48737 10.3238 8.48443 10.0397C8.48074 9.75123 8.67585 9.59388 9.07564 9.59388C11.7136 9.59388 14.3516 9.60044 16.9896 9.60044C17.3003 9.60044 17.5264 9.68494 17.5367 10.0361C17.5455 10.3398 17.3666 10.4782 16.9624 10.4782C15.6497 10.4797 14.3369 10.4782 13.0242 10.4782L13.0227 10.4797Z" fill="#851739"/>
<path d="M11.0404 14.8104C10.3799 14.8104 9.71878 14.8141 9.05836 14.809C8.69465 14.8061 8.46715 14.6392 8.49439 14.3814C8.52826 14.063 8.74177 13.9348 9.05542 13.9348C10.377 13.9363 11.6986 13.9297 13.0201 13.9341C13.3721 13.9348 13.5642 14.1089 13.548 14.3952C13.5304 14.7194 13.3183 14.8177 13.0224 14.8163C12.3619 14.8126 11.7008 14.8155 11.0404 14.8155V14.8104Z" fill="#851739"/>
<path d="M10.0143 19.155C9.67191 19.155 9.32955 19.1564 8.98719 19.155C8.70447 19.1528 8.50053 19.0231 8.49243 18.7361C8.48433 18.4287 8.68238 18.2844 8.99013 18.2859C9.68663 18.2881 10.3839 18.2888 11.0804 18.2888C11.3542 18.2888 11.542 18.4141 11.5427 18.6902C11.5427 18.9699 11.3653 19.1382 11.0774 19.1477C10.7233 19.1593 10.3684 19.1506 10.0135 19.1506V19.1557L10.0143 19.155Z" fill="#851739"/>
</g>
<defs>
<clipPath id="clip0_1_17566">
<rect width="31" height="32" fill="white"/>
</clipPath>
</defs>
</svg>
