<svg width="20" height="20" viewBox="0 0 20 20" fill="none" xmlns="http://www.w3.org/2000/svg">
<path d="M4.375 0C4.0625 0 3.75 0.25 3.75 0.625V1.25H1.875C0.875 1.25 0 2.0625 0 3.125V5.625V18.125C0 19.1875 0.8125 20 1.875 20H18.125C19.1875 20 20 19.1875 20 18.125V5.625V3.125C20 2.0625 19.1875 1.25 18.125 1.25H16.25V0.625C16.25 0.25 16 0 15.625 0C15.25 0 15 0.25 15 0.625V1.25H5V0.625C5 0.25 4.75 0 4.375 0ZM18.75 18.125C18.75 18.5 18.5 18.75 18.125 18.75H1.875C1.5 18.75 1.25 18.5 1.25 18.125V6.25H18.75V18.125ZM15 2.5V3.125C15 3.5 15.25 3.75 15.625 3.75C16 3.75 16.25 3.5 16.25 3.125V2.5H18.125C18.5 2.5 18.75 2.75 18.75 3.125V5H1.25V3.125C1.25 2.75 1.5 2.5 1.875 2.5H3.75V3.125C3.75 3.5 4 3.75 4.375 3.75C4.75 3.75 5 3.5 5 3.125V2.5H15Z" fill="#851739"/>
<path d="M15 2.5V3.125C15 3.5 15.25 3.75 15.625 3.75C16 3.75 16.25 3.5 16.25 3.125V2.5H18.125C18.5 2.5 18.75 2.75 18.75 3.125V5H1.25V3.125C1.25 2.75 1.5 2.5 1.875 2.5H3.75V3.125C3.75 3.5 4 3.75 4.375 3.75C4.75 3.75 5 3.5 5 3.125V2.5H15Z" fill="#851739"/>
</svg>
