<svg width="35" height="35" viewBox="0 0 35 35" fill="none" xmlns="http://www.w3.org/2000/svg">
<foreignObject x="-534" y="-534" width="1103" height="1103"><div xmlns="http://www.w3.org/1999/xhtml" style="backdrop-filter:blur(267px);clip-path:url(#bgblur_0_1_17664_clip_path);height:100%;width:100%"></div></foreignObject><circle data-figma-bg-blur-radius="534" cx="17.5" cy="17.5" r="17.5" fill="#851739"/>
<path d="M7.58679 13.7425C9.08742 13.0184 10.488 12.3419 11.9124 11.6512C12.6222 12.2752 13.3082 12.8755 14.1133 13.5805C12.8509 13.8854 11.7933 14.1427 10.6833 14.4095C11.0597 13.6615 11.6456 13.0041 11.6456 12.1418C11.5837 12.1133 11.517 12.0847 11.4551 12.0608C11.1025 12.8135 10.7453 13.5567 10.3737 14.3475C9.93063 14.0093 9.53523 13.7187 9.14459 13.4281C9.08266 13.4853 9.01596 13.5329 8.9588 13.5901C9.19223 13.9188 9.4066 14.257 9.65909 14.5667C11.2931 16.5484 12.9224 18.5302 14.5707 20.4977C15.5806 21.6982 16.6144 22.8797 17.6481 24.0659C17.9102 24.366 18.0816 24.3136 18.215 23.923C18.9773 21.703 19.7585 19.4878 20.5208 17.263C20.8685 16.2436 21.1925 15.2193 21.5498 14.1331C22.7455 14.3428 23.8984 14.5381 25.1417 14.7572C22.8979 17.768 20.6923 20.7359 18.4866 23.6991C21.7403 20.5454 24.0222 16.5675 27.195 13.3852C27.9334 13.8664 27.9715 14.0331 27.4856 14.5619C24.5796 17.6823 21.6689 20.7979 18.7438 23.9039C17.9911 24.6995 17.9483 24.6947 17.1765 23.9134C14.8803 21.5839 12.5794 19.2496 10.3165 16.8867C9.39708 15.9244 8.55863 14.8763 7.58203 13.752H7.59156L7.58679 13.7425Z" fill="white"/>
<path d="M20.8472 14.3761C19.8944 17.3869 18.9416 20.3929 17.9841 23.399C17.9269 23.399 17.865 23.3894 17.8078 23.3847C17.2123 21.5839 16.6121 19.7784 16.0166 17.9872C17.6411 16.7771 19.2227 15.5909 20.8472 14.3809V14.3761Z" fill="white"/>
<path d="M10.7548 14.8288C11.7933 14.5858 12.6556 14.3762 13.5226 14.1856C13.8942 14.1047 14.0752 14.2571 14.2134 14.6382C15.1137 17.1964 16.0427 19.7451 16.9669 22.2843C17.0907 22.6273 17.2432 22.956 17.3861 23.2895C17.3337 23.3276 17.2813 23.3609 17.2289 23.399C15.1042 20.5836 12.9747 17.7729 10.75 14.8288H10.7548Z" fill="white"/>
<path d="M14.6335 14.1047H14.627L14.6317 14.0999C14.6323 14.1015 14.6329 14.1031 14.6335 14.1047L20.7666 14.1047L15.9323 17.5109C15.4898 16.3501 15.0664 15.2368 14.6335 14.1047Z" fill="white"/>
<path d="M20.7319 13.6046L14.7246 13.6046C15.7393 12.6423 17.8663 10.9236 17.8663 10.9236L20.7319 13.6046Z" fill="white"/>
<path d="M21.1868 13.3472C20.2149 12.5088 18.7496 11.2575 17.873 10.5C17.873 10.5 21.7632 11.2368 23.3734 11.4464C22.6112 12.1039 21.8966 12.7232 21.1868 13.3377V13.3472Z" fill="white"/>
<path d="M12.2852 11.5179C13.0521 12.1562 13.7143 12.7041 14.4289 13.2996L17.4468 10.5L12.2852 11.5179Z" fill="white"/>
<path d="M21.5713 13.5853C22.2144 12.9707 22.8575 12.3657 23.5912 11.6702C24.0342 12.5134 24.4392 13.2708 24.9394 14.2046C23.7341 14.0521 22.6908 13.9187 21.6428 13.7853C21.6189 13.7186 21.5903 13.6567 21.5713 13.59V13.5853Z" fill="white"/>
<path d="M23.9512 11.6271C25.0516 12.1559 26.0663 12.6418 27.1382 13.1611C26.4903 13.6042 25.9568 13.971 25.428 14.3378C24.9706 13.4946 24.5085 12.6466 23.9512 11.6319V11.6271Z" fill="white"/>
<defs>
<clipPath id="bgblur_0_1_17664_clip_path" transform="translate(534 534)"><circle cx="17.5" cy="17.5" r="17.5"/>
</clipPath></defs>
</svg>
