<svg width="34" height="34" viewBox="0 0 34 34" fill="none" xmlns="http://www.w3.org/2000/svg">
<g clip-path="url(#clip0_1_19871)">
<path d="M33.9628 17C33.9628 7.61115 26.36 0 16.9814 0C7.60283 0 0 7.61115 0 17C0 25.4851 6.20982 32.5181 14.3281 33.7935V21.9141H10.0164V17H14.3281V13.2547C14.3281 8.99406 16.8633 6.64062 20.7422 6.64062C22.5995 6.64062 24.5434 6.97265 24.5434 6.97265V11.1562H22.4022C20.2928 11.1562 19.6348 12.4668 19.6348 13.8125V17H24.3444L23.5916 21.9141H19.6348V33.7935C27.753 32.5181 33.9628 25.4851 33.9628 17Z" fill="#851739"/>
</g>
<defs>
<clipPath id="clip0_1_19871">
<rect width="33.9628" height="34" fill="white"/>
</clipPath>
</defs>
</svg>
