<svg width="32" height="32" viewBox="0 0 32 32" fill="none" xmlns="http://www.w3.org/2000/svg">
<g clip-path="url(#clip0_1_17545)">
<path d="M31.9997 16.506C31.9517 20.1487 30.711 23.5322 28.1945 26.4208C26.1608 28.7548 23.6582 30.4279 20.6721 31.29C15.807 32.6948 11.2168 32.0217 7.00453 29.2056C3.32676 26.7477 1.06683 23.3074 0.256891 18.9681C-0.255158 16.2293 0.00390002 13.5327 0.983709 10.9172C2.23532 7.57478 4.39514 4.94411 7.4195 3.06144C11.2732 0.662176 15.4436 0.00602019 19.8743 1.05309C20.12 1.11109 20.3645 1.17393 20.6072 1.2422C20.8365 1.30685 20.9603 1.4579 20.8753 1.69535C20.794 1.92313 20.606 1.93642 20.3985 1.86996C18.8211 1.36788 17.1976 1.20414 15.551 1.25006C13.0727 1.31894 10.7466 1.95757 8.57465 3.15267C6.70057 4.18403 5.08859 5.52776 3.78966 7.22132C2.06423 9.47014 1.02436 12.0005 0.746492 14.8306C0.558417 16.7483 0.723437 18.6315 1.28827 20.4731C2.1704 23.3491 3.76297 25.7617 6.08417 27.6951C8.15906 29.4231 10.5161 30.5729 13.174 31.0538C16.5369 31.6628 19.7797 31.2435 22.8483 29.7137C25.8884 28.1984 28.2909 25.981 29.7446 22.9129C32.3819 17.3452 31.8061 12.0398 28.1411 7.0745C28.0513 6.95306 27.9567 6.83464 27.8632 6.71621C27.7225 6.53737 27.6618 6.34282 27.8723 6.18936C28.064 6.04979 28.2236 6.15069 28.365 6.31684C29.1737 7.26603 29.8501 8.30042 30.401 9.41636C31.4767 11.5945 31.9918 13.9019 31.999 16.5054L31.9997 16.506Z" fill="#851739"/>
<path d="M16.0869 13.3207C16.2999 12.8495 16.4752 12.3341 16.7494 11.8779C17.4914 10.6447 19.0081 9.96321 20.3307 10.2508C22.766 10.7807 23.3102 13.5588 22.0149 15.1974C21.8171 15.4475 21.5405 15.4928 21.3542 15.3297C21.1862 15.1816 21.2141 14.9394 21.3912 14.6808C22.4366 13.1582 21.6485 11.3776 20.2003 11.1202C19.1404 10.9323 18.3244 11.3788 17.6971 12.1945C17.2238 12.8102 16.9751 13.534 16.9557 14.3007C16.9132 15.9907 16.9254 17.6818 16.8968 19.3723C16.8896 19.7923 16.8386 20.2158 16.7567 20.6279C16.7027 20.8979 16.588 21.1674 16.4455 21.4049C16.2392 21.7492 15.9073 21.7619 15.7441 21.403C15.5433 20.9626 15.3437 20.4774 15.3273 20.0061C15.2709 18.3368 15.3085 16.6643 15.2758 14.9937C15.2654 14.4554 15.1932 13.908 15.0658 13.3848C14.8857 12.6458 14.4943 12.0132 13.8676 11.5474C13.0892 10.9692 12.0748 10.9148 11.3122 11.4103C10.515 11.9287 10.1704 12.8289 10.4319 13.8144C10.5102 14.1086 10.6606 14.3926 10.8208 14.6554C10.9907 14.9345 11.021 15.1768 10.8348 15.3303C10.6431 15.488 10.3731 15.4149 10.1613 15.1472C9.41936 14.2119 9.28831 12.7498 9.89622 11.7009C10.5496 10.5741 11.5786 10.0877 12.8538 10.217C14.3038 10.3638 15.209 11.2695 15.8018 12.5292C15.9267 12.7957 16.0038 13.0845 16.0875 13.3201L16.0869 13.3207ZM16.0651 19.9838C16.0808 19.9862 16.0966 19.9886 16.1124 19.991V15.4692C16.0966 15.4692 16.0808 15.4692 16.0651 15.4692V19.9838Z" fill="#851739"/>
<path d="M25.5633 0C25.6834 0.174612 25.7762 0.263429 25.8126 0.370976C25.9606 0.808413 26.0626 1.26398 26.2409 1.68812C26.3216 1.87965 26.5109 2.07662 26.7008 2.16242C27.1303 2.35636 27.5945 2.47478 28.0361 2.64396C28.1381 2.68323 28.2078 2.80407 28.2922 2.88745C28.2103 2.96479 28.1417 3.07838 28.044 3.11281C27.6551 3.25178 27.2559 3.36235 26.8634 3.49104C26.5358 3.59859 26.3125 3.82214 26.1991 4.14418C26.0753 4.49461 25.9752 4.85411 25.8393 5.19971C25.7792 5.35257 25.6731 5.58277 25.5602 5.60029C25.2915 5.64198 25.3333 5.35075 25.2733 5.18823C25.1483 4.84867 25.0451 4.50186 24.9347 4.15686C24.8364 3.84872 24.6368 3.63121 24.3341 3.52185C23.9458 3.38108 23.5472 3.26749 23.162 3.11946C23.0503 3.07656 22.9696 2.95512 22.875 2.86932C22.9696 2.78353 23.0497 2.65906 23.1608 2.61919C23.5399 2.48264 23.9294 2.37449 24.3153 2.25788C24.6423 2.15879 24.8474 1.93645 24.9487 1.62045C25.0803 1.20839 25.1938 0.790892 25.3285 0.380643C25.3643 0.271888 25.4498 0.18005 25.5626 0L25.5633 0ZM24.3523 2.86812C24.9911 3.05481 25.3558 3.49285 25.576 4.09101C25.8053 3.485 26.1754 3.06629 26.7942 2.86691C26.1645 2.66994 25.761 2.2893 25.5724 1.66698C25.3861 2.3189 24.9535 2.65967 24.3523 2.86751V2.86812Z" fill="#851739"/>
<path d="M5.22319 20.4254C5.11823 20.2907 5.03451 20.2212 5.00174 20.1336C4.8798 19.8037 4.80518 19.4533 4.6529 19.1391C4.56068 18.9482 4.38595 18.7567 4.19909 18.6606C3.90727 18.5101 3.56995 18.4497 3.25993 18.3313C3.16225 18.2938 3.08824 18.1929 3.00391 18.121C3.09066 18.0413 3.16468 17.9289 3.26721 17.8884C3.5384 17.7815 3.82112 17.7023 4.10081 17.6177C4.43024 17.5181 4.62499 17.2933 4.72145 16.9731C4.81185 16.6746 4.89375 16.3737 4.99932 16.0813C5.03147 15.9925 5.13158 15.9278 5.20013 15.8517C5.27718 15.9302 5.39063 15.9955 5.424 16.0891C5.53199 16.3918 5.61268 16.7042 5.70005 17.0136C5.78377 17.3084 5.97367 17.5011 6.26063 17.5984C6.5664 17.7017 6.87824 17.7881 7.17916 17.9029C7.27441 17.9392 7.34418 18.0437 7.42548 18.1168C7.34176 18.1893 7.27017 18.292 7.17249 18.3283C6.89887 18.4304 6.61737 18.512 6.33465 18.5881C6.01249 18.6745 5.81168 18.8739 5.71461 19.1874C5.61936 19.495 5.52653 19.8031 5.42036 20.1064C5.38821 20.1983 5.31662 20.2768 5.22258 20.4248L5.22319 20.4254ZM5.24746 17.3277C4.99022 17.5984 4.73237 17.8703 4.47878 18.1374C4.59162 18.2177 4.76331 18.3083 4.89133 18.4407C5.01752 18.5718 5.09882 18.7452 5.16798 18.8515C5.43371 18.579 5.69641 18.3096 5.95486 18.0449C5.57932 17.9591 5.37547 17.6455 5.24746 17.3277Z" fill="#851739"/>
<path d="M26.6519 15.5496C26.7417 15.6849 26.8102 15.755 26.8412 15.839C26.934 16.0933 27.0153 16.3519 27.0942 16.6111C27.1646 16.8425 27.3211 16.9821 27.5431 17.0613C27.7712 17.1422 28.0018 17.2171 28.2232 17.3132C28.3118 17.3519 28.3792 17.4407 28.4562 17.5066C28.3767 17.5833 28.3094 17.689 28.2141 17.7307C28.04 17.8068 27.8519 17.854 27.6657 17.8975C27.3271 17.9766 27.1215 18.1845 27.0287 18.5125C26.971 18.7155 26.9249 18.9228 26.8466 19.1179C26.8078 19.214 26.7095 19.2865 26.6379 19.3699C26.5639 19.2901 26.4693 19.2213 26.4208 19.1282C26.3619 19.0146 26.3316 18.8829 26.3067 18.7554C26.1975 18.1953 25.8596 17.8799 25.2965 17.7948C25.2074 17.7815 25.1067 17.7748 25.0351 17.7283C24.9447 17.6703 24.8434 17.5845 24.8173 17.4908C24.8045 17.4443 24.9368 17.3253 25.0248 17.2896C25.2292 17.2075 25.4452 17.1519 25.6587 17.0939C25.9336 17.0196 26.1174 16.8649 26.1957 16.5815C26.2648 16.3302 26.3486 16.0825 26.442 15.839C26.476 15.7502 26.556 15.6795 26.6525 15.5502L26.6519 15.5496ZM27.0645 17.3996C27.0596 17.4649 27.0547 17.5295 27.0505 17.5948C26.8855 17.402 26.7199 17.2093 26.5712 17.0353C26.4632 17.1483 26.2891 17.3301 26.1981 17.4256C26.354 17.5966 26.5245 17.7839 26.6216 17.8902C26.7344 17.7651 26.9 17.5827 27.0657 17.3996H27.0645Z" fill="#851739"/>
<path d="M9.41091 7.91799C9.32415 8.02433 9.292 8.09019 9.23861 8.12282C9.18097 8.15786 9.10513 8.16692 9.03597 8.179C8.45112 8.28051 8.06466 8.58684 7.96577 9.19647C7.95485 9.26535 7.94575 9.34269 7.90813 9.39706C7.86202 9.46352 7.788 9.55294 7.72491 9.55355C7.66242 9.55476 7.5702 9.47017 7.54047 9.4019C7.46828 9.23756 7.41732 9.06234 7.36999 8.88833C7.2802 8.55602 7.07332 8.35422 6.73479 8.27809C6.56795 8.24063 6.39989 8.19713 6.24458 8.12825C6.17845 8.09925 6.11293 8.00258 6.10565 7.93068C6.10079 7.88355 6.19665 7.78628 6.2555 7.77963C7.02357 7.68719 7.44098 7.25761 7.54715 6.50115C7.55625 6.4359 7.65999 6.33983 7.72127 6.33863C7.78497 6.33802 7.86202 6.42623 7.90934 6.4927C7.94756 6.54647 7.96091 6.62441 7.96819 6.69329C8.03189 7.33555 8.43595 7.62738 9.0293 7.74157C9.15064 7.76513 9.26045 7.84609 9.41091 7.91739V7.91799ZM7.71278 8.36389C7.84989 8.21586 7.97608 8.07931 8.09924 7.94639C7.96759 7.80743 7.84139 7.67329 7.7152 7.53977C7.73644 7.56877 7.75706 7.59837 7.7783 7.62737C7.64543 7.75365 7.51257 7.87932 7.38637 7.99895C7.46828 8.09079 7.5878 8.22432 7.71278 8.36389Z" fill="#851739"/>
<path d="M23.0364 25.2523C22.9369 25.3617 22.8999 25.4209 22.8465 25.4565C22.798 25.4886 22.7337 25.5025 22.6742 25.5103C22.1094 25.5858 21.7957 25.9121 21.7053 26.4643C21.6987 26.5036 21.6968 26.5525 21.6726 26.5791C21.6161 26.6408 21.5476 26.735 21.4833 26.735C21.419 26.735 21.334 26.6498 21.2946 26.5809C21.2461 26.4964 21.2279 26.3918 21.2103 26.2933C21.1338 25.865 20.8796 25.6312 20.4525 25.5448C20.2851 25.5109 19.9975 25.5423 20.0345 25.2717C20.0485 25.1701 20.2936 25.0608 20.4495 25.0251C20.8924 24.923 21.1636 24.6789 21.243 24.2282C21.257 24.1497 21.2746 24.0633 21.3201 24.001C21.3735 23.9279 21.4517 23.8464 21.5318 23.8307C21.5755 23.8216 21.6519 23.9352 21.7011 24.0022C21.729 24.0403 21.7387 24.0965 21.7436 24.1454C21.7969 24.7188 22.1664 24.9708 22.6857 25.0838C22.7943 25.1073 22.892 25.1816 23.0358 25.2529L23.0364 25.2523ZM21.5173 24.9714C21.4099 25.0674 21.3025 25.1641 21.1866 25.2674C21.2964 25.3852 21.3959 25.4922 21.4833 25.5864C21.6028 25.4722 21.7096 25.3701 21.7751 25.3073C21.6956 25.204 21.6107 25.094 21.5167 24.9714H21.5173Z" fill="#851739"/>
<path d="M12.7316 25.8251C12.6073 25.9139 12.5375 26.0034 12.4568 26.0148C12.0133 26.0807 11.7955 26.3417 11.7221 26.7665C11.7094 26.8402 11.5965 26.8964 11.5298 26.9604C11.4655 26.8939 11.3575 26.8347 11.3435 26.7592C11.2653 26.3236 11.0299 26.0608 10.5876 25.9737C10.5214 25.9605 10.4717 25.8638 10.4141 25.8058C10.4747 25.7478 10.5287 25.6487 10.5961 25.639C11.0353 25.5774 11.2695 25.3236 11.3672 24.9061C11.3823 24.8415 11.4897 24.7527 11.5498 24.7557C11.6129 24.7587 11.7142 24.853 11.7251 24.9188C11.7961 25.3569 12.0552 25.5834 12.4817 25.6578C12.5539 25.6704 12.6158 25.7448 12.731 25.8245L12.7316 25.8251Z" fill="#851739"/>
</g>
<defs>
<clipPath id="clip0_1_17545">
<rect width="32" height="32" fill="white"/>
</clipPath>
</defs>
</svg>
