<svg width="34" height="34" viewBox="0 0 34 34" fill="none" xmlns="http://www.w3.org/2000/svg">
<g clip-path="url(#clip0_1_19875)">
<path d="M16.9814 3.06133C21.5186 3.06133 22.0559 3.08125 23.8403 3.16094C25.4986 3.23398 26.3942 3.51289 26.9912 3.74531C27.7805 4.05078 28.351 4.42266 28.9414 5.01367C29.5384 5.61133 29.9032 6.17578 30.2083 6.96602C30.4405 7.56367 30.7191 8.4668 30.7921 10.1203C30.8717 11.9133 30.8916 12.4512 30.8916 16.9867C30.8916 21.5289 30.8717 22.0668 30.7921 23.8531C30.7191 25.5133 30.4405 26.4098 30.2083 27.0074C29.9032 27.7977 29.5317 28.3687 28.9414 28.9598C28.3444 29.5574 27.7805 29.9227 26.9912 30.2281C26.3942 30.4605 25.492 30.7395 23.8403 30.8125C22.0493 30.8922 21.512 30.9121 16.9814 30.9121C12.4442 30.9121 11.9069 30.8922 10.1225 30.8125C8.46417 30.7395 7.56867 30.4605 6.97166 30.2281C6.18229 29.9227 5.61182 29.5508 5.02146 28.9598C4.42445 28.3621 4.05962 27.7977 3.75448 27.0074C3.52232 26.4098 3.24371 25.5066 3.17075 23.8531C3.09115 22.0602 3.07125 21.5223 3.07125 16.9867C3.07125 12.4445 3.09115 11.9066 3.17075 10.1203C3.24371 8.46015 3.52232 7.56367 3.75448 6.96602C4.05962 6.17578 4.43109 5.60469 5.02146 5.01367C5.61846 4.41602 6.18229 4.05078 6.97166 3.74531C7.56867 3.51289 8.47081 3.23398 10.1225 3.16094C11.9069 3.08125 12.4442 3.06133 16.9814 3.06133ZM16.9814 0C12.3712 0 11.7941 0.0199219 9.98321 0.0996094C8.17894 0.179297 6.9385 0.471484 5.86389 0.889844C4.74285 1.32812 3.79428 1.90586 2.85235 2.85547C1.90378 3.79844 1.32667 4.74805 0.888871 5.86367C0.470969 6.94609 0.179101 8.18125 0.0995005 9.9875C0.0199001 11.807 0 12.3848 0 17C0 21.6152 0.0199001 22.193 0.0995005 24.0059C0.179101 25.8121 0.470969 27.0539 0.888871 28.1297C1.32667 29.252 1.90378 30.2016 2.85235 31.1445C3.79428 32.0875 4.74286 32.6719 5.85726 33.1035C6.9385 33.5219 8.1723 33.8141 9.97658 33.8937C11.7875 33.9734 12.3646 33.9934 16.9748 33.9934C21.585 33.9934 22.1621 33.9734 23.973 33.8937C25.7772 33.8141 27.0177 33.5219 28.0923 33.1035C29.2067 32.6719 30.1553 32.0875 31.0972 31.1445C32.0391 30.2016 32.6229 29.252 33.054 28.1363C33.472 27.0539 33.7638 25.8187 33.8434 24.0125C33.923 22.1996 33.9429 21.6219 33.9429 17.0066C33.9429 12.3914 33.923 11.8137 33.8434 10.0008C33.7638 8.19453 33.472 6.95273 33.054 5.87695C32.6361 4.74805 32.059 3.79844 31.1105 2.85547C30.1685 1.9125 29.22 1.32812 28.1056 0.896484C27.0243 0.478125 25.7905 0.185937 23.9862 0.10625C22.1687 0.0199219 21.5916 0 16.9814 0Z" fill="#851739"/>
<path d="M16.9807 8.26758C12.1649 8.26758 8.25781 12.1789 8.25781 17C8.25781 21.8211 12.1649 25.7324 16.9807 25.7324C21.7965 25.7324 25.7036 21.8211 25.7036 17C25.7036 12.1789 21.7965 8.26758 16.9807 8.26758ZM16.9807 22.6645C13.8564 22.6645 11.3224 20.1277 11.3224 17C11.3224 13.8723 13.8564 11.3355 16.9807 11.3355C20.105 11.3355 22.6389 13.8723 22.6389 17C22.6389 20.1277 20.105 22.6645 16.9807 22.6645Z" fill="#851739"/>
<path d="M28.0846 7.92149C28.0846 9.05039 27.1692 9.96016 26.0482 9.96016C24.9205 9.96016 24.0117 9.04375 24.0117 7.92149C24.0117 6.79258 24.9271 5.88281 26.0482 5.88281C27.1692 5.88281 28.0846 6.79922 28.0846 7.92149Z" fill="#851739"/>
</g>
<defs>
<clipPath id="clip0_1_19875">
<rect width="33.9628" height="34" fill="white"/>
</clipPath>
</defs>
</svg>
