<svg width="38" height="32" viewBox="0 0 38 32" fill="none" xmlns="http://www.w3.org/2000/svg">
<g clip-path="url(#clip0_1_17444)">
<path d="M2.78191 16.0872C2.79389 11.8371 4.29699 7.95509 7.44753 4.80699C10.9053 1.35147 15.1293 -0.296105 20.0337 0.043924C25.2394 0.404581 29.3809 2.79676 32.304 7.08073C35.384 11.5949 36.0185 16.559 34.0086 21.6554C31.8364 27.1637 27.7075 30.5847 21.8893 31.6853C16.3458 32.7346 11.4806 31.1456 7.46482 27.1737C4.45462 24.196 2.94819 20.5249 2.78125 16.0872H2.78191ZM28.4524 25.6333C25.7415 28.1532 22.5538 29.4428 18.8838 29.4468C15.2032 29.4508 12.0413 28.0947 9.37829 25.6286C8.89677 26.1037 8.43054 26.5649 7.96364 27.0253C14.5773 33.5391 24.5876 32.5197 29.8471 27.0493C29.4654 26.6467 29.0856 26.2435 28.7025 25.8442C28.6347 25.773 28.5515 25.7165 28.4518 25.6333H28.4524ZM28.8083 6.35542C31.2758 8.94657 32.6705 12.0993 32.6831 15.7784C32.6957 19.4569 31.3429 22.6229 28.8183 25.254C29.2964 25.7497 29.7547 26.2248 30.2129 26.6993C36.2347 20.7291 36.0318 10.7924 29.9748 5.0146C29.5917 5.45445 29.2073 5.89628 28.8083 6.35476V6.35542ZM9.02978 25.268C6.49579 22.6203 5.16693 19.4589 5.15696 15.817C5.14698 12.1679 6.51441 9.02176 9.00651 6.39136C8.58151 5.95484 8.17581 5.53829 7.7701 5.1224C1.54218 11.3873 2.01639 21.1623 7.6311 26.6614C8.09134 26.2029 8.55158 25.7444 9.02978 25.2686V25.268ZM15.3082 19.6738C13.7493 21.2535 12.1903 22.8332 10.626 24.4182C12.8654 26.4903 15.5257 27.6462 18.6596 27.714V21.1064C17.5108 20.8815 16.3937 20.404 15.3082 19.6738ZM22.4899 11.8897C24.0495 10.3093 25.5959 8.74228 27.1475 7.1699C24.8949 5.12107 22.2365 3.99518 19.1378 3.92598V10.5662C20.3864 10.804 21.5038 11.2451 22.4899 11.8897ZM6.88952 15.5908H13.6216C13.7167 14.3232 14.1517 13.2225 14.8773 12.428C13.3203 10.8004 11.7939 9.20608 10.2562 7.59843C8.1625 9.8868 6.96135 12.4819 6.89018 15.5908H6.88952ZM30.91 15.6067C31.1301 13.2059 29.208 8.715 27.4741 7.54719C25.9298 9.10959 24.3834 10.674 22.8158 12.259C23.7296 13.164 24.134 14.3258 24.2484 15.6061H30.91V15.6067ZM30.9459 16.0912C30.8501 16.0739 30.8182 16.0626 30.7856 16.0626C28.6806 16.0626 26.5756 16.0652 24.4705 16.0586C24.2504 16.0579 24.2444 16.175 24.2005 16.34C24.0349 16.9675 23.8919 17.6083 23.6425 18.2039C23.4629 18.6324 23.1291 18.9957 22.9176 19.3085C24.4626 20.8875 26.0076 22.4665 27.5646 24.0582C29.7168 21.8311 30.8262 19.1867 30.9452 16.0918L30.9459 16.0912ZM19.1305 21.0758V27.726C22.2704 27.6249 24.9501 26.513 27.1515 24.4595C25.5926 22.8518 24.0602 21.2715 22.5172 19.6804C21.5368 20.5468 20.4241 21.0139 19.1305 21.0752V21.0758ZM18.6603 3.9333C15.5084 4.01248 12.866 5.19094 10.6519 7.20583C12.2069 8.81415 13.7466 10.4065 15.289 12.0015C16.2859 11.1345 17.3946 10.6587 18.6603 10.5961V3.9333ZM13.6369 16.0725H6.89484C6.97665 19.182 8.12725 21.8038 10.2436 24.0536C11.8298 22.4333 13.3821 20.8469 14.9484 19.2473C14.1443 18.3882 13.7114 17.3209 13.6369 16.0719V16.0725ZM9.37364 6.02138C12.0553 3.5773 15.1972 2.2072 18.8665 2.20254C22.5365 2.19789 25.707 3.52074 28.4431 6.00209C28.8675 5.54894 29.2652 5.1244 29.6629 4.69986C23.1976 -1.40403 13.5677 -0.599536 8.12992 4.82163C8.53629 5.21356 8.94266 5.6055 9.3743 6.02138H9.37364ZM18.9436 20.6187C21.5714 20.6207 23.8068 18.4075 23.8008 15.809C23.7941 13.2432 21.5967 11.0546 19.0121 11.04C16.3112 11.0247 14.0885 13.1667 14.0798 15.7924C14.0712 18.4334 16.2713 20.616 18.9436 20.6187ZM18.663 28.1665C15.394 28.1113 12.616 26.8736 10.219 24.6751C10.0746 24.8268 9.94761 24.9599 9.8239 25.0903C11.2705 27.004 16.8054 29.2725 18.663 28.7248V28.1665ZM31.9808 15.5961C32.3326 13.2452 30.2016 8.2705 28.2163 6.81124C28.0926 6.92569 27.9656 7.04347 27.816 7.18187C30.07 9.54544 31.301 12.3282 31.4081 15.5961H31.9814H31.9808ZM31.4055 16.0712C31.2877 19.3244 30.1158 22.0893 27.8612 24.4142C28.0095 24.5553 28.1485 24.6884 28.2868 24.8201C30.5269 22.603 32.5068 17.9031 31.9781 16.0712H31.4061H31.4055ZM27.5705 24.6977C25.1616 26.9661 22.3429 28.076 19.0973 28.1911C19.1079 28.4134 19.1166 28.5944 19.1265 28.8033C22.5511 28.6709 25.4835 27.4638 27.9942 25.1509C27.8432 24.9892 27.7162 24.8534 27.5712 24.697L27.5705 24.6977ZM6.43526 15.6054C6.46453 14.0264 6.7718 12.5265 7.39632 11.1005C8.01885 9.67853 8.84489 8.38828 9.94561 7.27836C9.80395 7.12864 9.67692 6.99489 9.55255 6.8638C7.59984 8.34436 5.33653 13.7509 5.88723 15.6054H6.43593H6.43526ZM27.953 6.48052C25.4403 4.17684 22.5252 2.96312 19.1232 2.85199V3.46218C20.6928 3.52673 22.1979 3.8062 23.6392 4.39377C25.0871 4.98399 26.3607 5.84904 27.5107 6.88976C27.675 6.73804 27.804 6.6196 27.9536 6.48119L27.953 6.48052ZM5.80742 16.0599C5.93245 19.4788 7.20876 22.3561 9.48205 24.8048C9.65497 24.6471 9.79065 24.5234 9.94761 24.3803C7.71224 22.0613 6.53636 19.3038 6.44191 16.0938C6.38139 16.0799 6.33949 16.0626 6.29825 16.0619C6.15526 16.0586 6.0116 16.0606 5.80808 16.0606L5.80742 16.0599ZM10.2635 6.9543C11.4075 5.84771 12.7131 5.02924 14.149 4.41373C15.5889 3.79689 17.1073 3.53804 18.6756 3.46152C18.6756 3.33176 18.6789 3.24392 18.6749 3.15675C18.6703 3.06226 18.659 2.96844 18.6497 2.85865C15.2251 2.97443 12.326 4.25004 9.81858 6.53442C9.97089 6.67815 10.1052 6.80458 10.2635 6.95364V6.9543Z" fill="#851739"/>
<path d="M35.7739 2.50597C35.6456 2.54523 35.5192 2.59713 35.3875 2.62175C34.5215 2.78212 34.2322 3.06426 34.0267 3.93396C33.9915 4.08235 33.905 4.21809 33.8418 4.35983C33.7766 4.21077 33.6842 4.06704 33.6516 3.91133C33.4927 3.14278 33.1022 2.75284 32.3347 2.62308C32.2908 2.61576 32.2423 2.61709 32.205 2.59713C32.1106 2.54656 32.0208 2.48601 31.9297 2.42878C32.0261 2.37355 32.1172 2.30435 32.2203 2.26642C32.3327 2.22516 32.4571 2.21452 32.5748 2.18657C33.2452 2.0282 33.5665 1.57172 33.6563 0.917614C33.6696 0.819132 33.6609 0.71333 33.6948 0.622833C33.7208 0.552964 33.7966 0.502393 33.8498 0.442505C33.905 0.500396 33.9888 0.550303 34.0094 0.618841C34.058 0.77588 34.0719 0.943565 34.1072 1.10526C34.2455 1.74806 34.6366 2.13001 35.2857 2.24845C35.4507 2.2784 35.6116 2.32631 35.7746 2.36557L35.7732 2.50464L35.7739 2.50597ZM33.9456 3.00437C34.0746 2.8826 34.332 2.63972 34.5548 2.43011C34.332 2.21651 34.0746 1.97031 33.9376 1.83855C33.7161 2.06812 33.4734 2.32032 33.2306 2.57185C33.2412 2.47869 33.2512 2.38553 33.2619 2.29237C33.4933 2.53259 33.7241 2.77347 33.9456 3.00437Z" fill="#851739"/>
<path d="M3.78703 26.6993C3.68727 26.7831 3.6467 26.8357 3.59415 26.8563C3.51235 26.8876 3.42256 26.8982 3.3361 26.9149C2.49941 27.0753 2.21542 27.3587 2.04715 28.2025C2.0405 28.2351 2.0425 28.2717 2.02653 28.2996C1.96801 28.4041 1.90349 28.5046 1.84164 28.607C1.78976 28.5079 1.70995 28.4141 1.69 28.3089C1.50843 27.3607 1.2098 27.0593 0.260051 26.8656C0.166938 26.847 0.0864619 26.7678 0 26.7166C0.0811412 26.6614 0.156962 26.5675 0.244089 26.5562C1.12533 26.4411 1.60753 25.946 1.71594 25.067C1.72724 24.9739 1.80971 24.89 1.85893 24.8015C1.91945 24.8913 2.02321 24.9772 2.03318 25.0723C2.11898 25.9294 2.57922 26.4172 3.42788 26.5516C3.53496 26.5682 3.63406 26.6347 3.78703 26.6993ZM1.9261 27.2609C2.0844 27.1185 2.33514 26.8936 2.54664 26.7039C2.32117 26.489 2.08307 26.2621 1.88221 26.0705C1.64078 26.2861 1.3947 26.5043 1.14928 26.7232C1.19517 26.67 1.24106 26.6174 1.28695 26.5642C1.50577 26.8031 1.72458 27.0413 1.9261 27.2616V27.2609Z" fill="#851739"/>
<path d="M36.7688 5.34467C36.7854 6.14916 37.2064 6.5697 37.9992 6.63824C37.9832 6.66486 37.9673 6.69147 37.9506 6.71809C37.6613 6.84319 37.3088 6.90507 37.0993 7.11135C36.8832 7.32362 36.8053 7.67696 36.6191 8.01433C36.538 7.28436 36.2094 6.79062 35.4492 6.68216C35.7352 6.54175 36.0837 6.45991 36.2892 6.24365C36.4914 6.03071 36.5486 5.68004 36.6697 5.38991C36.7029 5.37461 36.7362 5.35997 36.7688 5.34467ZM36.6224 6.32815C36.5366 6.41932 36.4063 6.55839 36.3145 6.65488C36.4555 6.79328 36.5879 6.9237 36.6743 7.00821C36.7634 6.9104 36.8951 6.76534 37.0268 6.62094C37.0215 6.67018 37.0168 6.72009 37.0115 6.76933C36.8838 6.62493 36.7561 6.47987 36.6224 6.32815Z" fill="#851739"/>
<path d="M4.19141 29.8959C4.46941 29.7615 4.80263 29.6823 5.00947 29.4767C5.21099 29.2758 5.28415 28.9457 5.42981 28.6363C5.55285 28.9317 5.60938 29.2691 5.80359 29.4787C6.00245 29.693 6.33633 29.7828 6.61832 29.9312C6.33566 30.0629 5.99314 30.1328 5.79561 30.3404C5.59674 30.5494 5.54154 30.8954 5.37327 31.2175C5.30011 30.4702 4.93697 30.0084 4.19141 29.8959ZM5.4338 30.2699C5.5575 30.1521 5.68121 30.035 5.74706 29.9725C5.63066 29.8281 5.51361 29.6823 5.4052 29.5473C5.27551 29.6617 5.14515 29.7755 5.05669 29.854C5.17641 29.9864 5.30011 30.1222 5.4338 30.2699Z" fill="#851739"/>
<path d="M15.1266 23.0781C15.2496 23.265 15.3873 23.3848 15.3687 23.4693C15.3427 23.5884 15.1997 23.6816 15.1073 23.7861C15.0162 23.6789 14.8732 23.5805 14.8526 23.4613C14.8379 23.3755 14.9876 23.2617 15.1266 23.0781Z" fill="#851739"/>
<path d="M22.8679 8.08681C22.7149 8.19461 22.6211 8.26049 22.528 8.32636C22.4668 8.22123 22.387 8.12075 22.3558 8.00696C22.3478 7.97702 22.5008 7.85325 22.5593 7.86589C22.6544 7.88652 22.7335 7.98434 22.8679 8.08681Z" fill="#851739"/>
<path d="M11.2258 12.4154C11.14 12.287 10.9837 12.1559 10.9884 12.0301C10.9924 11.917 11.1547 11.748 11.277 11.714C11.4726 11.6595 11.6415 11.8032 11.6176 12.0095C11.6009 12.1505 11.4659 12.2776 11.3841 12.4107C11.3316 12.4127 11.2784 12.4141 11.2258 12.4161V12.4154Z" fill="#851739"/>
<path d="M27.4455 13.2911C27.7548 13.2831 28.0308 13.5426 28.0368 13.8467C28.0421 14.1368 27.7913 14.4003 27.4954 14.4143C27.1841 14.4289 26.9241 14.1794 26.9181 13.8593C26.9121 13.5506 27.1449 13.2997 27.4455 13.2917V13.2911Z" fill="#851739"/>
<path d="M26.4565 20.0218C26.3274 19.8122 26.1818 19.6771 26.2057 19.5879C26.239 19.4655 26.3999 19.377 26.5064 19.2739C26.5908 19.381 26.7391 19.4868 26.7418 19.5959C26.7445 19.7051 26.6015 19.8175 26.4565 20.0218Z" fill="#851739"/>
<path d="M22.0043 23.8872C22.3083 23.8872 22.5491 24.1328 22.5464 24.4402C22.5437 24.7383 22.287 24.9905 21.9917 24.9852C21.7011 24.9798 21.461 24.7163 21.4689 24.4102C21.4763 24.1181 21.7124 23.8872 22.0043 23.8872Z" fill="#851739"/>
<path d="M16.0949 7.68294C16.0875 7.97971 15.8268 8.22592 15.5315 8.21527C15.2302 8.20462 15.0041 7.9531 15.0161 7.64168C15.0281 7.3296 15.2708 7.0987 15.5741 7.11067C15.874 7.12265 16.1028 7.37418 16.0949 7.68294Z" fill="#851739"/>
<path d="M10.762 18.0355C10.7706 18.343 10.5319 18.5938 10.2266 18.5972C9.93061 18.6005 9.67455 18.3456 9.67189 18.0462C9.66989 17.7727 9.89403 17.5451 10.1787 17.5305C10.5013 17.5145 10.7533 17.7328 10.762 18.0349V18.0355Z" fill="#851739"/>
<path d="M18.9561 11.6635C21.2992 11.6688 23.2127 13.5679 23.2 15.8749C23.1874 18.1427 21.234 20.0245 18.9055 20.0125C16.5644 20.0005 14.6736 18.1067 14.6955 15.7698C14.7161 13.6172 16.4979 11.6189 18.9561 11.6641V11.6635ZM18.9614 19.5693C20.9939 19.5667 22.7351 17.8446 22.7385 15.8323C22.7418 13.7995 21.0066 12.0947 18.9375 12.0973C16.8657 12.1 15.1538 13.7775 15.1544 15.8044C15.1544 17.8665 16.8797 19.572 18.9621 19.5693H18.9614Z" fill="#851739"/>
</g>
<defs>
<clipPath id="clip0_1_17444">
<rect width="38" height="32" fill="white"/>
</clipPath>
</defs>
</svg>
