<svg width="34" height="32" viewBox="0 0 34 32" fill="none" xmlns="http://www.w3.org/2000/svg">
<path d="M29.5451 9.31384H15.9082C14.9039 9.31519 13.9411 9.76165 13.2309 10.5553C12.5208 11.3489 12.1213 12.425 12.1201 13.5474V23.7078C12.1213 24.8302 12.5208 25.9062 13.2309 26.6998C13.9411 27.4935 14.9039 27.94 15.9082 27.9413H23.5494L26.8473 31.6278C27.0062 31.8056 27.2087 31.9266 27.4293 31.9757C27.6498 32.0247 27.8783 31.9996 28.0861 31.9034C28.2938 31.8072 28.4713 31.6444 28.5962 31.4354C28.721 31.2264 28.7876 30.9808 28.7875 30.7295V27.9413H29.5451C30.5494 27.94 31.5122 27.4935 32.2223 26.6998C32.9325 25.9062 33.332 24.8302 33.3332 23.7078V13.5474C33.332 12.425 32.9325 11.3489 32.2223 10.5553C31.5122 9.76165 30.5494 9.31519 29.5451 9.31384ZM26.5147 17.3575H26.0912C25.9161 19.1058 25.2035 20.7319 24.0752 21.9585C24.7262 22.2716 25.4271 22.4346 26.1359 22.4377C26.3397 22.4365 26.5359 22.5244 26.6825 22.6826C26.8291 22.8408 26.9146 23.0568 26.9208 23.2844C26.9238 23.3941 26.9072 23.5032 26.8718 23.6056C26.8365 23.7079 26.7832 23.8012 26.7151 23.8802C26.6469 23.9591 26.5653 24.0219 26.4751 24.065C26.3848 24.1082 26.2878 24.1306 26.1897 24.1311C24.9786 24.1274 23.7897 23.7683 22.7418 23.0897C21.7036 23.7711 20.5214 24.1306 19.3174 24.1311C19.1136 24.1323 18.9174 24.0445 18.7708 23.8863C18.6242 23.7281 18.5386 23.5121 18.5325 23.2844C18.5295 23.1748 18.5461 23.0656 18.5815 22.9633C18.6168 22.861 18.6701 22.7676 18.7382 22.6887C18.8064 22.6098 18.888 22.5469 18.9782 22.5038C19.0684 22.4607 19.1655 22.4382 19.2636 22.4377C19.9956 22.4387 20.7202 22.2734 21.3933 21.9517C20.8059 21.3274 20.3246 20.5893 19.9727 19.7732C19.9264 19.6723 19.8986 19.562 19.8912 19.4489C19.8837 19.3358 19.8966 19.2221 19.9292 19.1147C19.9617 19.0073 20.0133 18.9083 20.0807 18.8235C20.1482 18.7388 20.2302 18.6701 20.3219 18.6215C20.4136 18.5728 20.5131 18.5453 20.6145 18.5405C20.7159 18.5357 20.8171 18.5536 20.9121 18.5934C21.0072 18.6331 21.0941 18.6938 21.1678 18.7718C21.2415 18.8498 21.3004 18.9436 21.341 19.0475C21.6678 19.8147 22.1389 20.4939 22.7221 21.039C23.72 20.1071 24.3746 18.796 24.5601 17.3575H18.9386C18.7377 17.3575 18.545 17.2683 18.4029 17.1095C18.2608 16.9507 18.181 16.7354 18.181 16.5108C18.181 16.2863 18.2608 16.0709 18.4029 15.9121C18.545 15.7533 18.7377 15.6641 18.9386 15.6641H21.969V13.9707C21.969 13.7461 22.0489 13.5308 22.1909 13.372C22.333 13.2132 22.5257 13.124 22.7266 13.124C22.9276 13.124 23.1203 13.2132 23.2624 13.372C23.4044 13.5308 23.4843 13.7461 23.4843 13.9707V15.6641H26.5147C26.7156 15.6641 26.9083 15.7533 27.0504 15.9121C27.1925 16.0709 27.2723 16.2863 27.2723 16.5108C27.2723 16.7354 27.1925 16.9507 27.0504 17.1095C26.9083 17.2683 26.7156 17.3575 26.5147 17.3575Z" fill="#851739"/>
<path d="M10.6091 7.12659L9.375 10.1603H11.5668C11.6213 10.0757 11.6796 9.99098 11.7387 9.90631L10.6091 7.12659Z" fill="#851739"/>
<path d="M17.425 0H3.78805C2.78376 0.00134444 1.82096 0.447806 1.11082 1.24145C0.400686 2.0351 0.00120298 3.11113 0 4.23351V14.3939C0.00120298 15.5163 0.400686 16.5924 1.11082 17.386C1.82096 18.1796 2.78376 18.6261 3.78805 18.6275H4.54565V21.4156C4.54555 21.6669 4.61215 21.9126 4.73701 22.1216C4.86187 22.3305 5.0394 22.4934 5.24711 22.5896C5.45483 22.6857 5.6834 22.7109 5.90391 22.6618C6.12442 22.6128 6.32696 22.4917 6.48589 22.314L9.78376 18.6275H10.6065V13.5472C10.6081 12.9734 10.6846 12.4029 10.8338 11.8538H8.68371L7.50791 14.7445C7.42189 14.9438 7.26949 15.0975 7.08332 15.1728C6.89715 15.2481 6.69201 15.239 6.5118 15.1473C6.33158 15.0557 6.19063 14.8889 6.11909 14.6826C6.04756 14.4762 6.05114 14.2468 6.12906 14.0434L9.9171 4.72968C9.97737 4.58186 10.0744 4.45653 10.1967 4.36864C10.3189 4.28076 10.4612 4.23403 10.6065 4.23403C10.7519 4.23403 10.8942 4.28076 11.0164 4.36864C11.1386 4.45653 11.2357 4.58186 11.296 4.72968L12.8998 8.67277C13.7834 7.98658 14.8338 7.6193 15.9098 7.62032H21.2131V4.23351C21.2119 3.11113 20.8124 2.0351 20.1022 1.24145C19.3921 0.447806 18.4293 0.00134444 17.425 0Z" fill="#851739"/>
</svg>
