<svg width="25" height="24" viewBox="0 0 25 24" fill="none" xmlns="http://www.w3.org/2000/svg">
<path d="M22.1581 6.98529H11.9308C11.1776 6.9863 10.4555 7.32114 9.92293 7.91638C9.39035 8.51161 9.09075 9.31864 9.08984 10.1604V17.7807C9.09075 18.6225 9.39035 19.4296 9.92293 20.0248C10.4555 20.62 11.1776 20.9549 11.9308 20.9559H17.6615L20.1348 23.7208C20.254 23.8541 20.4059 23.9449 20.5712 23.9817C20.7366 24.0185 20.908 23.9996 21.0638 23.9275C21.2196 23.8553 21.3527 23.7332 21.4464 23.5765C21.54 23.4197 21.59 23.2355 21.5899 23.047V20.9559H22.1581C22.9113 20.9549 23.6333 20.62 24.1659 20.0248C24.6985 19.4296 24.9981 18.6225 24.999 17.7807V10.1604C24.9981 9.31864 24.6985 8.51161 24.1659 7.91638C23.6333 7.32114 22.9113 6.9863 22.1581 6.98529ZM19.8853 13.018H19.5677C19.4364 14.3292 18.902 15.5489 18.0558 16.4688C18.544 16.7036 19.0697 16.8259 19.6012 16.8282C19.7541 16.8273 19.9012 16.8932 20.0112 17.0118C20.1212 17.1305 20.1853 17.2925 20.1899 17.4632C20.1922 17.5454 20.1797 17.6273 20.1532 17.7041C20.1267 17.7808 20.0867 17.8508 20.0356 17.91C19.9845 17.9692 19.9233 18.0164 19.8556 18.0487C19.788 18.081 19.7152 18.0979 19.6416 18.0983C18.7333 18.0955 17.8416 17.8261 17.0558 17.3172C16.2771 17.8283 15.3906 18.0979 14.4876 18.0983C14.3347 18.0992 14.1876 18.0333 14.0777 17.9146C13.9677 17.796 13.9035 17.634 13.899 17.4632C13.8967 17.381 13.9092 17.2991 13.9357 17.2224C13.9622 17.1457 14.0021 17.0756 14.0532 17.0164C14.1043 16.9573 14.1655 16.9101 14.2332 16.8778C14.3009 16.8454 14.3737 16.8286 14.4473 16.8282C14.9962 16.8289 15.5396 16.7049 16.0444 16.4637C15.6039 15.9955 15.2429 15.4419 14.9791 14.8298C14.9443 14.7541 14.9235 14.6714 14.9179 14.5866C14.9123 14.5017 14.922 14.4165 14.9464 14.3359C14.9708 14.2554 15.0095 14.1811 15.0601 14.1176C15.1107 14.054 15.1722 14.0025 15.2409 13.966C15.3097 13.9295 15.3843 13.9089 15.4604 13.9053C15.5364 13.9016 15.6123 13.9151 15.6836 13.9449C15.7549 13.9748 15.8201 14.0203 15.8753 14.0788C15.9306 14.1373 15.9747 14.2076 16.0052 14.2856C16.2503 14.8609 16.6036 15.3704 17.041 15.7791C17.7894 15.0802 18.2803 14.0969 18.4194 13.018H14.2035C14.0528 13.018 13.9083 12.9511 13.8017 12.832C13.6952 12.713 13.6353 12.5514 13.6353 12.383C13.6353 12.2146 13.6952 12.0531 13.8017 11.934C13.9083 11.8149 14.0528 11.748 14.2035 11.748H16.4762V10.4779C16.4762 10.3095 16.5361 10.148 16.6427 10.0289C16.7492 9.90981 16.8937 9.84291 17.0444 9.84291C17.1951 9.84291 17.3396 9.90981 17.4462 10.0289C17.5527 10.148 17.6126 10.3095 17.6126 10.4779V11.748H19.8853C20.036 11.748 20.1806 11.8149 20.2871 11.934C20.3937 12.0531 20.4535 12.2146 20.4535 12.383C20.4535 12.5514 20.3937 12.713 20.2871 12.832C20.1806 12.9511 20.036 13.018 19.8853 13.018Z" fill="white"/>
<path d="M7.95682 5.34503L7.03125 7.62033H8.67501C8.71592 7.55683 8.75967 7.49333 8.80398 7.42983L7.95682 5.34503Z" fill="white"/>
<path d="M13.0682 0H2.84092C2.08774 0.00100833 1.36566 0.335854 0.833083 0.931089C0.300502 1.52632 0.000902195 2.33335 0 3.17513V10.7955C0.000902195 11.6372 0.300502 12.4443 0.833083 13.0395C1.36566 13.6347 2.08774 13.9696 2.84092 13.9706H3.4091V16.0617C3.40903 16.2502 3.45897 16.4344 3.55261 16.5912C3.64626 16.7479 3.77939 16.87 3.93518 16.9422C4.09096 17.0143 4.26238 17.0332 4.42776 16.9964C4.59313 16.9596 4.74503 16.8688 4.86422 16.7355L7.33753 13.9706H7.95458V10.1604C7.95573 9.73006 8.01316 9.30218 8.12503 8.89037H6.51252L5.6307 11.0584C5.5662 11.2078 5.4519 11.3231 5.31228 11.3796C5.17266 11.4361 5.0188 11.4292 4.88365 11.3605C4.7485 11.2918 4.64278 11.1667 4.58914 11.0119C4.53549 10.8572 4.53817 10.6851 4.59661 10.5326L7.43753 3.54726C7.48272 3.43639 7.5555 3.34239 7.64718 3.27648C7.73886 3.21057 7.84557 3.17552 7.95458 3.17552C8.06358 3.17552 8.17029 3.21057 8.26197 3.27648C8.35365 3.34239 8.42643 3.43639 8.47162 3.54726L9.67447 6.50458C10.3371 5.98994 11.1249 5.71447 11.9319 5.71524H15.9092V3.17513C15.9082 2.33335 15.6086 1.52632 15.0761 0.931089C14.5435 0.335854 13.8214 0.00100833 13.0682 0Z" fill="white"/>
</svg>
