<svg width="34" height="34" viewBox="0 0 34 34" fill="none" xmlns="http://www.w3.org/2000/svg">
<g clip-path="url(#clip0_1_19880)">
<path d="M31.4488 0H2.50741C1.12104 0 0 1.0957 0 2.45039V31.543C0 32.8977 1.12104 34 2.50741 34H31.4488C32.8351 34 33.9628 32.8977 33.9628 31.5496V2.45039C33.9628 1.0957 32.8351 0 31.4488 0ZM10.0761 28.973H5.03472V12.7434H10.0761V28.973ZM7.5554 10.532C5.93686 10.532 4.63009 9.22383 4.63009 7.61016C4.63009 5.99648 5.93686 4.68828 7.5554 4.68828C9.16731 4.68828 10.4741 5.99648 10.4741 7.61016C10.4741 9.21719 9.16731 10.532 7.5554 10.532ZM28.9414 28.973H23.9066V21.084C23.9066 19.2047 23.8735 16.7809 21.2865 16.7809C18.6663 16.7809 18.2683 18.8328 18.2683 20.9512V28.973H13.2402V12.7434H18.0693V14.9613H18.1356C18.8056 13.6863 20.4507 12.3383 22.8984 12.3383C27.9994 12.3383 28.9414 15.6984 28.9414 20.068V28.973Z" fill="#851739"/>
</g>
<defs>
<clipPath id="clip0_1_19880">
<rect width="33.9628" height="34" fill="white"/>
</clipPath>
</defs>
</svg>
