<svg width="24" height="32" viewBox="0 0 24 32" fill="none" xmlns="http://www.w3.org/2000/svg">
<path d="M11.5892 0C5.19887 0 0 5.19887 0 11.5891C0 19.5196 10.3712 31.1621 10.8127 31.6538C11.2275 32.1157 11.9516 32.1149 12.3656 31.6538C12.8072 31.1621 23.1784 19.5196 23.1784 11.5891C23.1782 5.19887 17.9794 0 11.5892 0ZM11.5892 17.4199C8.37406 17.4199 5.75844 14.8042 5.75844 11.5891C5.75844 8.374 8.37412 5.75838 11.5892 5.75838C14.8043 5.75838 17.4199 8.37406 17.4199 11.5892C17.4199 14.8043 14.8043 17.4199 11.5892 17.4199Z" fill="#851739"/>
</svg>
