<svg width="236" height="80" viewBox="0 0 236 80" fill="none" xmlns="http://www.w3.org/2000/svg">
<g clip-path="url(#clip0_1_17378)">
<path d="M79.8012 52.1365C79.7123 51.8528 79.5968 51.5047 79.4456 51.0976C79.2887 50.6945 79.103 50.2295 78.8781 49.7135C78.7589 49.4599 78.6341 49.1898 78.4982 48.9081C78.4647 48.8383 78.4308 48.7665 78.3962 48.695C78.36 48.6238 78.3201 48.5532 78.2816 48.4809C78.2043 48.3367 78.125 48.1904 78.0443 48.0397C77.963 47.8894 77.8801 47.7345 77.796 47.5782C77.7028 47.4255 77.6088 47.2706 77.5131 47.1129C77.4163 46.9546 77.3177 46.7935 77.2172 46.6289C77.1917 46.5881 77.1665 46.5469 77.1413 46.5058C77.1144 46.4658 77.0872 46.4247 77.0595 46.3852C77.0043 46.3038 76.9491 46.2221 76.8944 46.1393C76.6707 45.8111 76.4442 45.4655 76.1815 45.1333C76.0526 44.9643 75.9227 44.7918 75.7904 44.6184C75.7573 44.5745 75.7239 44.5308 75.6902 44.4874C75.6565 44.4437 75.6203 44.4028 75.5852 44.3603C75.5144 44.2752 75.4422 44.1887 75.3708 44.103C75.2264 43.9308 75.0812 43.7552 74.9311 43.5799C74.7782 43.4068 74.6165 43.24 74.456 43.0652C74.3761 42.979 74.2937 42.8913 74.2127 42.804C74.1306 42.7172 74.0508 42.6258 73.9627 42.5433C73.79 42.3747 73.6147 42.2031 73.4386 42.0301C72.0169 40.6494 70.2847 39.3495 68.3103 38.2332C68.188 38.1594 68.0611 38.0973 67.9348 38.0301C67.8085 37.9645 67.6811 37.8987 67.5549 37.8323C67.4274 37.7665 67.2989 37.7004 67.1712 37.6338C67.0412 37.5685 66.9093 37.5115 66.7776 37.4502C66.5146 37.3291 66.2501 37.204 65.9811 37.0857C65.7087 36.9762 65.4355 36.8658 65.1603 36.7552C64.8862 36.6403 64.6039 36.5501 64.3219 36.4499C64.039 36.3546 63.7559 36.2494 63.4657 36.1716C63.1757 36.0865 62.8855 36.0023 62.5933 35.9177C62.2983 35.8451 62.0018 35.7776 61.7039 35.7067C61.4061 35.6309 61.1045 35.5818 60.8018 35.5248C60.4994 35.4689 60.1948 35.4085 59.8881 35.3742C59.5815 35.3359 59.274 35.2919 58.9645 35.2573C58.6544 35.2321 58.3438 35.2077 58.0321 35.1833C56.7851 35.1129 55.522 35.1288 54.2637 35.259C53.0074 35.3991 51.7562 35.6352 50.5324 35.9753C50.2294 36.0695 49.9259 36.1628 49.6229 36.257L49.3947 36.3288L49.1634 36.4147L48.701 36.5889L48.2395 36.7645L48.1826 36.7861L48.1325 36.8091L48.0319 36.8528L47.8306 36.9413L47.428 37.1174L47.2267 37.206L47.1262 37.2499C47.0316 37.2933 47.0851 37.2695 47.0565 37.2828L47.0302 37.2962L46.9778 37.3234C45.837 37.8749 44.7477 38.5277 43.7188 39.2573C43.4659 39.4462 43.2137 39.6352 42.9611 39.8227C42.7142 40.0179 42.4772 40.225 42.2365 40.4258L42.0567 40.5773L41.9664 40.653L41.8806 40.7336C41.7662 40.8411 41.651 40.9481 41.5371 41.055C41.3095 41.2695 41.077 41.4791 40.8667 41.7109C39.9852 42.5955 39.2105 43.5736 38.5098 44.5799C38.4237 44.7078 38.3379 44.8343 38.2515 44.9611C38.1663 45.0888 38.0802 45.2142 38.0032 45.3475C37.8455 45.6085 37.6881 45.8704 37.5312 46.1296C37.3797 46.3932 37.2424 46.6644 37.1003 46.9302C37.0306 47.0641 36.9556 47.1938 36.8921 47.3313C36.8282 47.4678 36.7644 47.6034 36.7007 47.7393C36.637 47.8763 36.5742 48.0116 36.5102 48.1467C36.479 48.215 36.4468 48.2811 36.4179 48.3495L36.3332 48.5574C36.2219 48.8343 36.1107 49.1095 36.0008 49.3835C35.8991 49.6613 35.8046 49.9404 35.7086 50.2179C35.6636 50.3566 35.6106 50.4925 35.5716 50.6343C35.5305 50.7736 35.49 50.9138 35.4498 51.0539C35.409 51.1932 35.3688 51.3322 35.3289 51.4709L35.2697 51.6792L35.2188 51.8894C35.1531 52.1694 35.0891 52.4482 35.0242 52.726C34.9888 52.8633 34.9679 53.0045 34.9407 53.1435C34.9155 53.2831 34.89 53.4221 34.8645 53.5609C34.8399 53.6993 34.8156 53.8366 34.7906 53.975C34.7674 54.1123 34.7533 54.2522 34.7343 54.3904C34.6986 54.6655 34.6638 54.9404 34.6287 55.2119C34.6063 55.4868 34.5856 55.7586 34.5641 56.0287C34.5536 56.164 34.5437 56.2979 34.5338 56.4321C34.5299 56.5668 34.5262 56.7016 34.5216 56.8343C34.5146 57.1016 34.5078 57.366 34.501 57.6284C34.5066 57.8925 34.512 58.1529 34.5177 58.4116C34.5208 58.541 34.5245 58.6695 34.527 58.7972C34.5333 58.9251 34.5451 59.0528 34.5528 59.1796C34.5715 59.4326 34.5907 59.6845 34.6086 59.9328C34.6151 60.0562 34.6341 60.1807 34.6488 60.3027C34.6635 60.4253 34.6791 60.5475 34.6944 60.6692C34.7102 60.7904 34.7252 60.9112 34.7402 61.0306C34.7558 61.1509 34.7691 61.2692 34.7923 61.3872C34.8331 61.6233 34.8747 61.8567 34.9144 62.0868C34.9348 62.2023 34.9546 62.3169 34.975 62.4304C34.997 62.5436 35.0245 62.6559 35.048 62.7671C35.0978 62.9906 35.1505 63.2105 35.1995 63.427C35.2465 63.6445 35.3099 63.8559 35.368 64.0647C35.4263 64.2738 35.4843 64.4789 35.5421 64.6814C35.5565 64.7322 35.5707 64.7827 35.5849 64.8326C35.5996 64.8828 35.618 64.9319 35.6338 64.9816C35.667 65.0803 35.6995 65.1779 35.7312 65.2749C35.7984 65.4684 35.8635 65.6587 35.9272 65.8457C36.2035 66.5892 36.4734 67.2769 36.7721 67.8928C36.8437 68.0477 36.9142 68.198 36.9828 68.3464C37.0592 68.4933 37.1337 68.6372 37.2059 68.777C37.2786 68.9157 37.3503 69.0516 37.4194 69.185C37.491 69.3158 37.5553 69.4488 37.6286 69.5651C37.7699 69.8034 37.9041 70.0292 38.0298 70.2411C38.0958 70.3489 38.1587 70.4533 38.2198 70.5546C38.283 70.6533 38.3444 70.7481 38.4036 70.8397C38.6406 71.2045 38.8541 71.5064 39.031 71.7484C39.2054 71.9906 39.3476 72.1711 39.4422 72.2925C39.5379 72.4139 39.5866 72.476 39.5866 72.476C39.5866 72.476 39.4521 72.187 39.2202 71.6437C39.1038 71.3716 38.9659 71.0355 38.8107 70.6389C38.7728 70.5401 38.7334 70.4369 38.6932 70.3297C38.6556 70.2236 38.6174 70.1129 38.5777 69.9994C38.495 69.7677 38.4078 69.522 38.3144 69.2618C38.2643 69.1314 38.2311 68.9994 38.189 68.8638C38.1479 68.7288 38.1054 68.5898 38.0624 68.4485C38.0188 68.3078 37.9735 68.164 37.9285 68.0165C37.8885 67.8672 37.8492 67.7135 37.8084 67.5566C37.6391 66.9325 37.4851 66.2533 37.3457 65.5299C37.0731 64.0809 36.8955 62.44 36.9057 60.6792C36.8984 59.7983 36.9709 58.8908 37.062 57.9623C37.0943 57.7308 37.1272 57.4984 37.1597 57.2641C37.1756 57.1475 37.1909 57.0292 37.2073 56.9115C37.2291 56.7949 37.25 56.6783 37.2727 56.5603C37.3157 56.326 37.3596 56.0891 37.4035 55.8511C37.4576 55.617 37.5122 55.3801 37.568 55.1416C37.5958 55.0235 37.6198 54.9033 37.6521 54.7844C37.6855 54.6675 37.7184 54.5498 37.7529 54.4309C37.7855 54.3121 37.8177 54.1932 37.8512 54.074C37.8854 53.9552 37.9137 53.8346 37.9562 53.7175C38.0335 53.4823 38.1122 53.2451 38.1906 53.0071L38.2487 52.8292L38.3161 52.6536C38.3608 52.5359 38.4061 52.4182 38.4506 52.2999C38.4953 52.1824 38.5398 52.0638 38.5848 51.9467C38.6281 51.8278 38.6842 51.7143 38.7329 51.5963C38.8359 51.3651 38.9336 51.1296 39.0384 50.8965C39.1511 50.6681 39.2635 50.4386 39.3773 50.2085L39.4617 50.0355C39.4911 49.9773 39.5243 49.9223 39.5546 49.8658C39.6166 49.7526 39.6783 49.6403 39.7406 49.5274C39.8026 49.4133 39.8643 49.301 39.926 49.187C39.9881 49.0735 40.0605 48.966 40.1271 48.855C40.195 48.7447 40.2627 48.634 40.3318 48.5237C40.4009 48.4139 40.4635 48.2999 40.5371 48.1929C40.6835 47.9784 40.8301 47.7628 40.9782 47.5464C41.0493 47.4366 41.1283 47.333 41.209 47.2295C41.2874 47.1257 41.3667 47.021 41.4457 46.9163C41.5238 46.8119 41.6028 46.7069 41.6827 46.6017C41.7662 46.5016 41.8506 46.4011 41.9347 46.2999C42.0191 46.1991 42.1032 46.0979 42.1881 45.9966L42.3138 45.8448C42.3571 45.7955 42.4039 45.7487 42.4475 45.6999C42.6261 45.5058 42.8051 45.3115 42.9837 45.1169C43.1695 44.9291 43.3623 44.7464 43.5498 44.56C44.3196 43.8318 45.1382 43.1458 46.0199 42.541C46.1252 42.4596 46.2394 42.3889 46.3518 42.3174L47.0273 41.8826L47.3759 41.6834L47.7245 41.4828C47.8403 41.4156 47.9558 41.3472 48.0781 41.2888L48.797 40.9257L48.8641 40.8919C48.8585 40.8939 48.8735 40.8877 48.8794 40.8843L48.9445 40.8556L49.1456 40.7662L49.5465 40.5878L49.7475 40.4984L49.8976 40.4309C49.9137 40.425 49.9282 40.4196 49.9435 40.4142L50.3039 40.278L50.6641 40.1413L50.8433 40.0718L51.035 40.0096C51.291 39.9254 51.5466 39.8417 51.802 39.7586C52.8341 39.4593 53.886 39.2286 54.9472 39.0777C55.2137 39.0468 55.4798 39.0162 55.7454 38.9847C55.8774 38.966 56.011 38.9597 56.1449 38.9512C56.2786 38.9433 56.4114 38.9342 56.545 38.926C56.6787 38.9166 56.8115 38.9075 56.9445 38.8987C57.0779 38.8959 57.2121 38.8933 57.3452 38.8911C57.4791 38.8888 57.6119 38.8865 57.7447 38.8837L57.9438 38.8794L58.1439 38.886C58.4107 38.893 58.6762 38.9007 58.9413 38.9075C59.206 38.9237 59.471 38.9475 59.7338 38.966C59.9985 38.9804 60.2607 39.0196 60.5224 39.0505C60.784 39.0834 61.0462 39.1064 61.3044 39.1574C62.3441 39.3081 63.3569 39.5657 64.3434 39.8482C64.5898 39.9248 64.8338 40.0006 65.077 40.0769C65.3169 40.162 65.557 40.2477 65.7951 40.3333C65.9137 40.3759 66.0341 40.4153 66.1507 40.463C66.2674 40.5109 66.3832 40.5591 66.4996 40.6062C66.6154 40.6545 66.7317 40.7018 66.847 40.7492C66.9617 40.7972 67.0797 40.8389 67.191 40.8939C69.0065 41.7061 70.6646 42.6811 72.094 43.7546C72.2729 43.8894 72.451 44.0221 72.626 44.1538C72.7152 44.2176 72.7967 44.2913 72.8817 44.3597C72.9658 44.4287 73.049 44.4979 73.1314 44.5657C73.2968 44.7038 73.4641 44.8357 73.6238 44.9756C73.7787 45.1177 73.9347 45.2553 74.0887 45.3929C74.1666 45.4624 74.243 45.5302 74.3198 45.5983C74.3566 45.6326 74.3957 45.6652 74.4328 45.6996C74.4693 45.7362 74.505 45.7713 74.5412 45.806C74.685 45.9472 74.8277 46.0874 74.9679 46.2247C75.2556 46.4948 75.5084 46.7821 75.7669 47.0505C76.7803 48.1435 77.5859 49.1869 78.2181 50.0769C78.3011 50.1855 78.3699 50.299 78.4421 50.4065C78.5137 50.514 78.5831 50.619 78.6505 50.7194C78.7841 50.9237 78.9172 51.1112 79.0325 51.2922C79.2593 51.6525 79.4484 51.9651 79.5999 52.2201C79.9006 52.7316 80.0535 53.0108 80.0535 53.0108C80.0535 53.0108 80.0325 52.9345 79.9923 52.787C79.9521 52.6397 79.8915 52.4204 79.8012 52.1365Z" fill="#F68A32"/>
<path d="M84.1259 46.5254C84.054 46.5546 83.9733 46.5923 83.9036 46.6304C83.0004 47.1407 82.7209 48.3387 83.281 49.3067C83.8405 50.2746 85.026 50.6462 85.9298 50.1367L110.951 36.0267L84.1259 46.5254Z" fill="#7C1531"/>
<path d="M34.253 71.8757C33.6938 70.9072 32.5077 70.5359 31.6039 71.0454L15.4912 80.002L33.4079 74.6564C33.4798 74.6272 33.5605 74.5901 33.6293 74.5509C34.5334 74.0414 34.8125 72.8434 34.253 71.8757Z" fill="#7C1531"/>
<path d="M30.1152 51.7699C31.1498 52.0936 32.1856 51.5095 32.4294 50.4647C32.6723 49.4204 32.031 48.3098 30.9972 47.9853L2.35156 39.0111L29.8748 51.6772C29.9487 51.7112 30.0359 51.7453 30.1152 51.7699Z" fill="#7C1531"/>
<path d="M43.302 33.9027C43.862 34.8715 45.0484 35.2426 45.9522 34.7333C46.8555 34.223 47.1338 33.0255 46.5754 32.0579L31.0859 5.25487L43.1848 33.667C43.2173 33.7438 43.2595 33.8295 43.302 33.9027Z" fill="#7C1531"/>
<path d="M67.017 34.2536C68.0522 34.577 69.0883 33.9929 69.3309 32.9475L76.0726 4.01819L65.6582 31.5325C65.6305 31.6065 65.603 31.6939 65.5849 31.7742C65.3411 32.8187 65.983 33.9282 67.017 34.2536Z" fill="#7C1531"/>
<path d="M29.6708 63.2831C30.721 63.192 31.4414 62.2352 31.28 61.145C31.118 60.0542 30.1349 59.2454 29.0842 59.3353L0 61.8499L29.4205 63.2877C29.4995 63.2913 29.5899 63.2902 29.6708 63.2831Z" fill="#7C1531"/>
<path d="M35.0364 41.1538C35.8938 41.8601 37.098 41.7563 37.7269 40.9209C38.3549 40.086 38.1695 38.8366 37.3129 38.1296L13.5791 18.5633L34.8445 40.9739C34.9022 41.0338 34.9716 41.099 35.0364 41.1538Z" fill="#7C1531"/>
<path d="M54.3377 30.5146C54.4994 31.6043 55.4822 32.4148 56.5324 32.3237C57.5837 32.2332 58.3037 31.2757 58.1415 30.1861L53.6621 0L54.3156 30.2553C54.3179 30.3367 54.325 30.4304 54.3377 30.5146Z" fill="#7C1531"/>
<path d="M76.6783 40.3881C77.5351 41.095 78.7401 40.9909 79.3682 40.1557L96.7666 17.034L76.4251 37.4108C76.3716 37.4658 76.3125 37.5328 76.2638 37.5969C75.6357 38.4318 75.8215 39.6814 76.6783 40.3881Z" fill="#7C1531"/>
<path d="M30.827 68.9719C30.8771 68.9626 30.9357 68.9484 30.987 68.9325C31.6283 68.7257 31.9485 68.0085 31.7025 67.3313C31.4559 66.6548 30.7358 66.2743 30.0928 66.4809L12.8047 72.057L30.827 68.9719Z" fill="#F68A32"/>
<path d="M33.1577 43.5651L16.2432 34.6227L31.9971 45.7381C32.0421 45.7708 32.0953 45.8042 32.1443 45.8292C32.7732 46.1617 33.5088 45.9245 33.7888 45.2993C34.0691 44.6737 33.786 43.8984 33.1577 43.5651Z" fill="#F68A32"/>
<path d="M48.9278 31.4752C49.1742 32.1532 49.8953 32.5342 50.5369 32.3265C51.1788 32.1191 51.4999 31.4028 51.2525 30.7254L44.6152 12.4978L48.8788 31.3084C48.891 31.362 48.908 31.4227 48.9278 31.4752Z" fill="#F68A32"/>
<path d="M72.1418 36.0176C72.7695 36.3498 73.506 36.1123 73.7857 35.4868L81.3143 18.6591L71.5874 34.137C71.5605 34.1813 71.5316 34.2346 71.5101 34.2843C71.2309 34.9089 71.5129 35.6851 72.1418 36.0176Z" fill="#F68A32"/>
<path d="M29.4219 54.2874L10.918 52.2979L29.168 56.8068C29.2206 56.819 29.2806 56.8306 29.335 56.8372C30.0219 56.9109 30.5993 56.3997 30.6233 55.6947C30.6471 54.9915 30.1091 54.3608 29.4219 54.2874Z" fill="#F68A32"/>
<path d="M40.9829 36.8562C41.4858 36.4102 41.5135 35.6025 41.0443 35.0528L28.4141 20.241L39.1181 36.5259C39.1484 36.5725 39.1855 36.6232 39.2231 36.6667C39.692 37.2173 40.4798 37.3021 40.9829 36.8562Z" fill="#F68A32"/>
<path d="M60.5926 30.6159C60.568 31.3194 61.1062 31.9506 61.794 32.0255C62.4806 32.0982 63.058 31.5872 63.0815 30.884L63.7267 11.9298L60.6088 30.4465C60.6008 30.4993 60.594 30.5603 60.5926 30.6159Z" fill="#F68A32"/>
<path d="M80.9252 42.2272C80.4223 42.6718 80.3946 43.4794 80.8646 44.0298C81.3332 44.5796 82.1215 44.6638 82.6243 44.2193L96.1678 32.2213L81.0554 42.1274C81.0127 42.1563 80.9648 42.1915 80.9252 42.2272Z" fill="#F68A32"/>
<path d="M44.6533 71.8996C44.6533 63.246 58.6973 59.9393 58.6973 56.2809C58.6973 55.6125 58.3111 55.3311 57.8547 55.3311C56.1694 55.3311 55.1161 59.0247 53.1148 59.0247C52.1318 59.0247 51.9562 58.0749 52.3073 57.1603C54.449 51.4967 55.7481 48.0142 57.96 42.1748H58.3111L69.5464 71.8996C71.0912 75.7691 72.2147 77.7038 74.3564 77.7038V78.0556H62.8403V77.7038C67.7909 77.7038 67.6153 74.8545 66.2811 71.3016L61.9275 59.7986C62.0679 60.9243 62.1381 62.3314 62.1381 64.0199C62.1381 72.5679 58.0303 78.7592 51.0434 78.7592C46.9706 78.7592 44.6533 75.558 44.6533 71.8996ZM47.6377 71.2312C47.6377 74.5379 49.7092 77.0706 53.15 77.0706C59.0133 77.0706 61.787 69.8593 61.787 64.0902C61.787 61.4871 61.6817 59.5523 61.0497 57.4769L56.8014 46.2553L52.7637 57.0196C52.3073 58.2508 52.5882 58.6729 53.15 58.6729C54.765 58.6729 56.0641 54.9793 57.9249 54.9793C58.592 54.9793 59.0836 55.4366 59.0836 56.3512C59.0836 61.065 47.6377 62.5424 47.6377 71.2312ZM76.4622 77.3169V71.4423H76.6377C77.1293 73.9399 79.7625 77.9149 83.9055 77.9149C86.1877 77.9149 88.3294 76.6837 88.3294 74.8193C88.3294 70.4221 76.708 70.2111 76.708 64.055C76.708 61.2409 79.0955 59.1302 83.2384 59.1302C86.5388 59.1302 89.804 60.467 89.804 62.3314C89.804 63.457 88.6103 64.2661 87.0654 64.2661C85.5557 64.2661 84.4673 63.5274 84.4673 62.5072H84.5375C84.5375 62.8942 84.9588 63.4218 85.4855 63.4218C86.0823 63.4218 86.5388 62.7887 86.5388 61.9444C86.5388 60.467 85.0993 59.4116 82.9576 59.4116C80.7105 59.4116 79.0954 60.5725 79.0954 62.2962C79.0954 66.8692 90.7169 67.3617 90.7169 73.2715C90.7169 76.4023 87.4165 78.1963 83.73 78.1963C80.6403 78.1963 78.8146 76.9299 77.5155 76.9299C77.024 76.9299 76.6377 77.1058 76.5675 77.3169H76.4622ZM95.7829 74.1509V62.7887C95.7829 60.7836 94.9052 59.7282 93.2901 59.7282H93.0092V59.3413C95.3265 59.1654 97.3278 58.0749 98.9428 56.1401H99.2939V59.2006H103.156L102.84 59.7282H99.2939V73.8695C99.2939 75.4877 99.8908 76.7541 101.085 76.7541C102.278 76.7541 102.98 75.5228 103.086 75.1007H103.296C103.191 75.8746 102.419 78.0556 99.645 78.0556C96.8713 78.0556 95.7829 75.8394 95.7829 74.1509ZM118.898 61.9796C117.669 61.3464 116.581 61.1001 115.703 61.1001C112.824 61.1001 111.665 63.8088 111.665 66.3064V75.6635C111.665 77.0355 112.262 77.739 113.526 77.8797V78.0556H106.294V77.8797C107.558 77.739 108.154 77.1058 108.154 75.8746V62.1906C108.154 60.4318 107.347 59.9041 106.364 59.8338V59.6579L111.069 59.2006L111.665 59.3765V64.2309C112.262 61.276 114.404 58.7433 117.915 58.7433C118.336 58.7433 118.793 58.7784 119.249 58.8488L118.898 61.9796ZM121.515 69.2261C121.515 63.8792 124.851 60.0096 129.521 60.0096C134.155 60.0096 137.491 63.8792 137.491 69.1909C137.491 74.5379 134.155 78.4074 129.485 78.4074C124.851 78.4074 121.515 74.5379 121.515 69.2261ZM125.764 71.2312C126.817 75.1711 128.959 77.739 131.206 77.739C134.05 77.739 134.928 73.7288 133.418 67.7838C132.329 63.4922 130.047 60.6428 127.765 60.6428C124.956 60.6428 124.079 64.8993 125.764 71.2312ZM140.647 78.0556V77.8797C141.91 77.7038 142.507 76.8244 142.507 75.1359V56.3512C142.507 54.6627 141.91 53.7833 140.647 53.6074V53.4315H151.917C156.797 53.4315 160.062 55.718 160.062 58.9192C160.062 63.0349 154.585 64.8289 150.969 64.8289H146.018V75.5228C146.018 76.9651 146.615 77.739 147.879 77.8797V78.0556H140.647ZM146.018 64.4772H151.074C154.375 64.4772 156.657 62.0148 156.657 59.0599C156.657 56.0698 154.304 53.7833 151.566 53.7833H146.018V64.4772ZM166.405 67.7838C166.405 73.1308 169.214 76.6485 173.497 76.6485C176.376 76.6485 178.939 75.0304 179.923 72.6383L180.168 72.7438C179.255 75.8746 175.674 78.1611 171.672 78.1611C166.475 78.1611 162.859 74.2916 162.894 68.6633C162.929 62.5424 167.248 59.0599 172.023 59.0599C176.096 59.0599 179.185 61.6278 179.185 64.5123V64.9345H166.686C166.51 65.8139 166.405 66.7637 166.405 67.7838ZM166.756 64.6531H175.92C175.92 61.5574 174.235 59.4116 171.777 59.4116C169.354 59.4116 167.494 61.5223 166.756 64.6531ZM186.187 67.7838C186.187 73.1308 188.996 76.6485 193.28 76.6485C196.159 76.6485 198.722 75.0304 199.705 72.6383L199.951 72.7438C199.038 75.8746 195.456 78.1611 191.454 78.1611C186.258 78.1611 182.641 74.2916 182.676 68.6633C182.712 62.5424 187.03 59.0599 191.805 59.0599C195.878 59.0599 198.967 61.6278 198.967 64.5123V64.9345H186.468C186.293 65.8139 186.187 66.7637 186.187 67.7838ZM186.538 64.6531H195.702C195.702 61.5574 194.017 59.4116 191.559 59.4116C189.137 59.4116 187.276 61.5223 186.538 64.6531ZM204.671 74.1509V62.7887C204.671 60.7836 203.793 59.7282 202.178 59.7282H201.897V59.3413C204.214 59.1654 206.216 58.0749 207.831 56.1401H208.182V59.2006H212.044L211.728 59.7282H208.182V73.8695C208.182 75.4877 208.779 76.7541 209.972 76.7541C211.166 76.7541 211.868 75.5228 211.974 75.1007H212.184C212.079 75.8746 211.307 78.0556 208.533 78.0556C205.759 78.0556 204.671 75.8394 204.671 74.1509ZM229.382 75.1007V67.2562C229.382 63.3163 227.451 60.9594 224.993 60.9594C222.149 60.9594 219.867 64.1254 219.867 68.0653V74.9952C219.867 76.7892 220.464 77.7038 221.728 77.8797V78.0556H214.495V77.8797C215.759 77.7038 216.356 76.8244 216.356 75.1359V56.4216C216.356 54.6627 215.549 54.135 214.566 54.0647V53.8888L219.27 53.4315L219.867 53.6074V65.2862C220.78 62.0499 223.238 59.3413 226.714 59.3413C230.295 59.3413 232.893 62.261 232.893 66.5526V74.9952C232.893 76.7892 233.49 77.7038 234.754 77.8797V78.0556H227.521V77.8797C228.785 77.7038 229.382 76.8244 229.382 75.1007Z" fill="#851739"/>
<path d="M52.3068 57.1603L52.6372 57.2877L52.6378 57.286L52.3068 57.1603ZM57.9595 42.1748V41.8201H57.7151L57.6285 42.0488L57.9595 42.1748ZM58.3106 42.1748L58.6416 42.0491L58.5549 41.8201H58.3106V42.1748ZM69.5458 71.8996L69.2148 72.0252L69.2159 72.0281L69.2171 72.0312L69.5458 71.8996ZM74.3559 77.7038H74.7098V77.3492H74.3559V77.7038ZM74.3559 78.0556V78.4102H74.7098V78.0556H74.3559ZM62.8398 78.0556H62.4858V78.4102H62.8398V78.0556ZM62.8398 77.7038V77.3492H62.4858V77.7038H62.8398ZM66.2806 71.3016L66.6119 71.1767L66.6116 71.1759L66.2806 71.3016ZM61.9269 59.7986L62.2579 59.6729L61.5758 59.8426L61.9269 59.7986ZM61.0492 57.4769L61.3878 57.3733L61.3844 57.362L61.3802 57.3512L61.0492 57.4769ZM56.8008 46.2553L57.1318 46.1296L56.7994 45.2513L56.4696 46.1305L56.8008 46.2553ZM52.7632 57.0196L52.4319 56.8948L52.4313 56.8962L52.7632 57.0196ZM44.6528 71.8996H45.0067C45.0067 67.7787 48.3512 64.8837 51.8724 62.5112C53.5937 61.3515 55.3936 60.2945 56.7105 59.3345C57.377 58.8488 57.9527 58.366 58.3641 57.8757C58.7747 57.3867 59.0507 56.8559 59.0507 56.2809H58.6968H58.3429C58.3429 56.6204 58.18 56.9932 57.8224 57.419C57.466 57.8437 56.9447 58.2871 56.2943 58.7611C54.978 59.7206 53.2669 60.7169 51.4771 61.9228C47.9763 64.2817 44.2988 67.3668 44.2988 71.8996H44.6528ZM58.6968 56.2809H59.0507C59.0507 55.8777 58.9327 55.5407 58.6968 55.3047C58.4626 55.0698 58.1537 54.9765 57.8541 54.9765V55.3311V55.6857C58.011 55.6857 58.1234 55.7331 58.1965 55.806C58.2678 55.8774 58.3429 56.0156 58.3429 56.2809H58.6968ZM57.8541 55.3311V54.9765C57.2978 54.9765 56.8317 55.2817 56.4413 55.6499C56.0502 56.019 55.6787 56.507 55.3245 56.9589C54.9598 57.4235 54.6084 57.8576 54.233 58.1773C53.8607 58.4945 53.4982 58.6701 53.1143 58.6701V59.0247V59.3793C53.731 59.3793 54.2508 59.093 54.6914 58.7177C55.1289 58.345 55.5213 57.8556 55.8809 57.3969C56.2507 56.9254 56.5837 56.4899 56.9266 56.1662C57.2703 55.8423 57.5679 55.6857 57.8541 55.6857V55.3311ZM53.1143 59.0247V58.6701C52.9263 58.6701 52.8045 58.6252 52.7252 58.5702C52.6462 58.5157 52.5848 58.434 52.5443 58.3183C52.4591 58.074 52.4789 57.6999 52.6372 57.2877L52.3068 57.1603L51.9763 57.0329C51.7835 57.5353 51.7155 58.093 51.8761 58.5526C51.9585 58.7887 52.1032 59.0017 52.3229 59.1538C52.5418 59.3052 52.8108 59.3793 53.1143 59.3793V59.0247ZM52.3068 57.1603L52.6378 57.286C54.7806 51.619 56.0777 48.1418 58.2905 42.3007L57.9595 42.1748L57.6285 42.0488C55.4174 47.8865 54.1163 51.3745 51.9758 57.0346L52.3068 57.1603ZM57.9595 42.1748V42.5294H58.3106V42.1748V41.8201H57.9595V42.1748ZM58.3106 42.1748L57.9796 42.3004L69.2148 72.0252L69.5458 71.8996L69.8768 71.7739L58.6416 42.0491L58.3106 42.1748ZM69.5458 71.8996L69.2171 72.0312C69.9886 73.9634 70.671 75.4576 71.4463 76.4687C72.2371 77.5001 73.1488 78.0584 74.3559 78.0584V77.7038V77.3492C73.4215 77.3492 72.7003 76.9401 72.0078 76.0366C71.2996 75.1132 70.6478 73.7052 69.8745 71.7679L69.5458 71.8996ZM74.3559 77.7038H74.002V78.0556H74.3559H74.7098V77.7038H74.3559ZM74.3559 78.0556V77.701H62.8398V78.0556V78.4102H74.3559V78.0556ZM62.8398 78.0556H63.1937V77.7038H62.8398H62.4858V78.0556H62.8398ZM62.8398 77.7038V78.0584C64.1057 78.0584 65.0831 77.8772 65.8088 77.5217C66.5467 77.1603 67.0139 76.6235 67.2506 75.9532C67.4825 75.2964 67.4828 74.5401 67.3511 73.743C67.2189 72.9433 66.9491 72.0743 66.6119 71.1767L66.2806 71.3016L65.9493 71.4264C66.2792 72.3052 66.5314 73.1248 66.6529 73.8587C66.7744 74.5949 66.7597 75.2173 66.5833 75.7169C66.4117 76.2028 66.0781 76.6006 65.4982 76.8845C64.9062 77.1745 64.0491 77.3492 62.8398 77.3492V77.7038ZM66.2806 71.3016L66.6116 71.1759L62.2579 59.6729L61.9269 59.7986L61.5959 59.9243L65.9496 71.4272L66.2806 71.3016ZM61.9269 59.7986L61.5758 59.8426C61.7137 60.9484 61.7836 62.3396 61.7836 64.0199H62.1376H62.4915C62.4915 62.3231 62.421 60.9001 62.278 59.7546L61.9269 59.7986ZM62.1376 64.0199H61.7836C61.7836 68.242 60.7686 71.8471 58.9242 74.3864C57.0874 76.9152 54.4182 78.4045 51.0428 78.4045V78.7591V79.1138C54.6543 79.1138 57.5325 77.5075 59.4964 74.8037C61.4527 72.1104 62.4915 68.3458 62.4915 64.0199H62.1376ZM51.0428 78.7591V78.4045C49.1069 78.4045 47.6077 77.6471 46.5878 76.4689C45.5631 75.2848 45.0067 73.6562 45.0067 71.8996H44.6528H44.2988C44.2988 73.8014 44.9011 75.6026 46.0532 76.9336C47.2101 78.2706 48.9059 79.1138 51.0428 79.1138V78.7591ZM47.6371 71.2312H47.2832C47.2832 72.9577 47.8246 74.5072 48.8408 75.6292C49.8609 76.7552 51.3367 77.4252 53.1494 77.4252V77.0706V76.716C51.5213 76.716 50.2409 76.1197 49.3652 75.1526C48.4854 74.1816 47.991 72.8113 47.991 71.2312H47.6371ZM53.1494 77.0706V77.4252C56.2521 77.4252 58.5105 75.5095 59.9746 72.9186C61.4368 70.3311 62.1404 67.0233 62.1404 64.0902H61.7865H61.4325C61.4325 66.9262 60.7493 70.1087 59.3588 72.5691C57.9702 75.0261 55.9101 76.716 53.1494 76.716V77.0706ZM61.7865 64.0902H62.1404C62.1404 61.4797 62.0357 59.5013 61.3878 57.3733L61.0492 57.4769L60.7105 57.5804C61.3266 59.6034 61.4325 61.4945 61.4325 64.0902H61.7865ZM61.0492 57.4769L61.3802 57.3512L57.1318 46.1296L56.8008 46.2553L56.4699 46.381L60.7182 57.6026L61.0492 57.4769ZM56.8008 46.2553L56.4696 46.1305L52.4319 56.8948L52.7632 57.0196L53.0945 57.1444L57.1321 46.3801L56.8008 46.2553ZM52.7632 57.0196L52.4313 56.8962C52.1986 57.5243 52.1153 58.036 52.2377 58.4167C52.3036 58.6221 52.4291 58.7858 52.6063 58.8922C52.7762 58.9938 52.9679 59.0275 53.1494 59.0275V58.6729V58.3183C53.05 58.3183 52.9959 58.2993 52.9696 58.2834C52.9503 58.2718 52.9288 58.253 52.9113 58.1991C52.8668 58.061 52.8713 57.7461 53.095 57.143L52.7632 57.0196ZM53.1494 58.6729V59.0275C53.6891 59.0275 54.1574 58.7209 54.5541 58.3574C54.9547 57.9904 55.3452 57.505 55.7178 57.0516C56.1003 56.5864 56.4684 56.1495 56.849 55.8272C57.2298 55.5044 57.5803 55.3339 57.9244 55.3339V54.9793V54.6247C57.338 54.6247 56.8283 54.9157 56.3917 55.2857C55.9551 55.6559 55.5482 56.1424 55.1716 56.6006C54.7851 57.0706 54.4315 57.5087 54.0764 57.834C53.7171 58.1631 53.4173 58.3183 53.1494 58.3183V58.6729ZM57.9244 54.9793V55.3339C58.1741 55.3339 58.3624 55.417 58.4912 55.56C58.6235 55.7064 58.7291 55.9555 58.7291 56.3512H59.083H59.4369C59.4369 55.8323 59.2971 55.3955 59.0165 55.0845C58.7328 54.7702 58.3417 54.6247 57.9244 54.6247V54.9793ZM59.083 56.3512H58.7291C58.7291 57.3711 58.1138 58.257 57.0619 59.1756C56.0061 60.0979 54.6118 60.9705 53.1545 62.0119C50.284 64.0633 47.2832 66.6979 47.2832 71.2312H47.6371H47.991C47.991 67.0757 50.7132 64.6272 53.5656 62.5892C54.9697 61.5858 56.437 60.6621 57.5271 59.7104C58.6215 58.7546 59.4369 57.6882 59.4369 56.3512H59.083ZM76.4616 77.3169H76.1077V77.6715H76.4616V77.3169ZM76.4616 71.4423V71.0877H76.1077V71.4423H76.4616ZM76.6372 71.4423L76.9846 71.3736L76.9283 71.0877H76.6372V71.4423ZM84.4667 62.5072V62.1526H84.1128V62.5072H84.4667ZM84.537 62.5072H84.8909V62.1526H84.537V62.5072ZM76.567 77.3169V77.6715H76.8221L76.9028 77.4289L76.567 77.3169ZM76.4616 77.3169H76.8156V71.4423H76.4616H76.1077V77.3169H76.4616ZM76.4616 71.4423V71.7969H76.6372V71.4423V71.0877H76.4616V71.4423ZM76.6372 71.4423L76.2901 71.5109C76.5494 72.8292 77.364 74.5075 78.6453 75.8593C79.9307 77.2159 81.712 78.2695 83.905 78.2695V77.9149V77.5603C81.955 77.5603 80.3484 76.6264 79.1586 75.3711C77.9643 74.1109 77.2165 72.5526 76.9846 71.3736L76.6372 71.4423ZM83.905 77.9149V78.2695C85.1044 78.2695 86.2803 77.9469 87.1674 77.3625C88.0562 76.7767 88.6828 75.9041 88.6828 74.8193H88.3288H87.9749C87.9749 75.5989 87.5307 76.274 86.7783 76.7699C86.0238 77.2672 84.9877 77.5603 83.905 77.5603V77.9149ZM88.3288 74.8193H88.6828C88.6828 73.5376 87.8285 72.6074 86.7107 71.8539C85.592 71.0999 84.1026 70.4528 82.6691 69.7759C81.2148 69.0894 79.8042 68.3665 78.7563 67.4488C77.7191 66.5404 77.0613 65.463 77.0613 64.055H76.7074H76.3535C76.3535 65.7251 77.1486 66.9827 78.2905 67.9827C79.4214 68.9733 80.9161 69.7322 82.3672 70.4176C83.8393 71.1126 85.255 71.7274 86.3154 72.4423C87.3766 73.1574 87.9749 73.9024 87.9749 74.8193H88.3288ZM76.7074 64.055H77.0613C77.0613 62.7574 77.6078 61.6287 78.6379 60.8159C79.6748 59.998 81.2233 59.4848 83.2379 59.4848V59.1302V58.7756C81.1095 58.7756 79.3931 59.3177 78.2002 60.2587C77.0008 61.2048 76.3535 62.5384 76.3535 64.055H76.7074ZM83.2379 59.1302V59.4848C84.8462 59.4848 86.4355 59.8113 87.6102 60.3538C88.8156 60.9101 89.4495 61.6227 89.4495 62.3313H89.8035H90.1574C90.1574 61.1756 89.1587 60.2877 87.9064 59.7095C86.6235 59.1174 84.93 58.7756 83.2379 58.7756V59.1302ZM89.8035 62.3313H89.4495C89.4495 62.7546 89.2287 63.1384 88.8113 63.4298C88.39 63.7237 87.7795 63.9115 87.0649 63.9115V64.2661V64.6207C87.8951 64.6207 88.6539 64.4037 89.2159 64.0119C89.7814 63.6173 90.1574 63.0338 90.1574 62.3313H89.8035ZM87.0649 64.2661V63.9115C86.3635 63.9115 85.7873 63.7393 85.398 63.4755C85.0132 63.2148 84.8207 62.876 84.8207 62.5072H84.4667H84.1128C84.1128 63.1586 84.4645 63.6993 85.0013 64.063C85.5336 64.4235 86.2565 64.6207 87.0649 64.6207V64.2661ZM84.4667 62.5072V62.8618H84.537V62.5072V62.1526H84.4667V62.5072ZM84.537 62.5072H84.183C84.183 62.8162 84.3424 63.1279 84.5571 63.354C84.7768 63.5855 85.101 63.7765 85.4849 63.7765V63.4218V63.0672C85.3422 63.0672 85.1924 62.9943 85.0698 62.8652C84.9421 62.7308 84.8909 62.5852 84.8909 62.5072H84.537ZM85.4849 63.4218V63.7765C85.9201 63.7765 86.2823 63.543 86.5232 63.2062C86.7619 62.8723 86.8922 62.4272 86.8922 61.9444H86.5382H86.1843C86.1843 62.3058 86.0863 62.5994 85.9479 62.7932C85.8111 62.9841 85.6466 63.0672 85.4849 63.0672V63.4218ZM86.5382 61.9444H86.8922C86.8922 61.0769 86.4649 60.3416 85.7562 59.8352C85.0546 59.3336 84.082 59.057 82.957 59.057V59.4116V59.7662C83.9738 59.7662 84.7918 60.0173 85.3453 60.4128C85.8918 60.8034 86.1843 61.3345 86.1843 61.9444H86.5382ZM82.957 59.4116V59.057C81.7766 59.057 80.7323 59.3617 79.9732 59.922C79.2073 60.4877 78.741 61.3106 78.741 62.2962H79.0949H79.4488C79.4488 61.558 79.79 60.9387 80.3934 60.4931C81.0039 60.042 81.8907 59.7662 82.957 59.7662V59.4116ZM79.0949 62.2962H78.741C78.741 63.6133 79.5845 64.5938 80.7049 65.3974C81.8244 66.2008 83.3129 66.8919 84.7493 67.6006C86.2053 68.3191 87.6182 69.0596 88.6683 69.9742C89.7095 70.8806 90.3624 71.9296 90.3624 73.2715H90.7163H91.0703C91.0703 71.6584 90.2707 70.4298 89.1327 69.4389C88.0038 68.4559 86.5113 67.6794 85.0619 66.9645C83.593 66.2397 82.1761 65.581 81.1168 64.821C80.0582 64.0616 79.4488 63.2655 79.4488 62.2962H79.0949ZM90.7163 73.2715H90.3624C90.3624 74.6928 89.62 75.8221 88.4121 76.6108C87.1966 77.4048 85.5212 77.8417 83.7294 77.8417V78.1963V78.5509C85.6242 78.5509 87.4426 78.0908 88.7986 77.2051C90.1628 76.314 91.0703 74.981 91.0703 73.2715H90.7163ZM83.7294 78.1963V77.8417C82.2353 77.8417 81.0452 77.5362 80.057 77.225C79.5754 77.0732 79.1011 76.9061 78.6996 76.7875C78.2893 76.6667 77.8921 76.5753 77.5149 76.5753V76.9299V77.2845C77.7873 77.2845 78.1053 77.3515 78.4994 77.4681C78.9024 77.5869 79.3209 77.7364 79.8447 77.9013C80.8663 78.2233 82.1339 78.5509 83.7294 78.5509V78.1963ZM77.5149 76.9299V76.5753C77.2298 76.5753 76.9625 76.6258 76.7456 76.7174C76.5469 76.8014 76.315 76.9529 76.2312 77.2048L76.567 77.3169L76.9028 77.4289C76.8892 77.4698 76.8855 77.4278 77.0203 77.3711C77.1369 77.322 77.3085 77.2845 77.5149 77.2845V76.9299ZM76.567 77.3169V76.9623H76.4616V77.3169V77.6715H76.567V77.3169ZM93.0087 59.7282H92.6548V60.0828H93.0087V59.7282ZM93.0087 59.3413L92.9821 58.9878L92.6548 59.0125V59.3413H93.0087ZM98.9423 56.1401V55.7855H98.7769L98.6707 55.9126L98.9423 56.1401ZM99.2934 56.1401H99.6473V55.7855H99.2934V56.1401ZM99.2934 59.2006H98.9395V59.5552H99.2934V59.2006ZM103.156 59.2006L103.459 59.383L103.781 58.846H103.156V59.2006ZM102.84 59.7282V60.0828H103.04L103.143 59.9106L102.84 59.7282ZM99.2934 59.7282V59.3736H98.9395V59.7282H99.2934ZM103.085 75.1007V74.7461H102.809L102.742 75.0147L103.085 75.1007ZM103.296 75.1007L103.647 75.1486L103.701 74.7461H103.296V75.1007ZM95.7824 74.1509H96.1363V62.7887H95.7824H95.4284V74.1509H95.7824ZM95.7824 62.7887H96.1363C96.1363 61.7413 95.9081 60.8834 95.4151 60.2817C94.9128 59.6681 94.1789 59.3736 93.2896 59.3736V59.7282V60.0828C94.0153 60.0828 94.5278 60.316 94.8681 60.7313C95.2178 61.1586 95.4284 61.8309 95.4284 62.7887H95.7824ZM93.2896 59.7282V59.3736H93.0087V59.7282V60.0828H93.2896V59.7282ZM93.0087 59.7282H93.3626V59.3413H93.0087H92.6548V59.7282H93.0087ZM93.0087 59.3413L93.0353 59.6947C95.4579 59.5109 97.5441 58.3677 99.2138 56.3677L98.9423 56.1401L98.6707 55.9126C97.1103 57.7821 95.194 58.8199 92.9821 58.9878L93.0087 59.3413ZM98.9423 56.1401V56.4948H99.2934V56.1401V55.7855H98.9423V56.1401ZM99.2934 56.1401H98.9395V59.2006H99.2934H99.6473V56.1401H99.2934ZM99.2934 59.2006V59.5552H103.156V59.2006V58.846H99.2934V59.2006ZM103.156 59.2006L102.852 59.0182L102.536 59.5458L102.84 59.7282L103.143 59.9106L103.459 59.383L103.156 59.2006ZM102.84 59.7282V59.3736H99.2934V59.7282V60.0828H102.84V59.7282ZM99.2934 59.7282H98.9395V73.8695H99.2934H99.6473V59.7282H99.2934ZM99.2934 73.8695H98.9395C98.9395 74.7146 99.0941 75.5041 99.4344 76.0956C99.7827 76.7013 100.336 77.1087 101.084 77.1087V76.754V76.3994C100.638 76.3994 100.296 76.1736 100.048 75.7416C99.7912 75.2953 99.6473 74.6426 99.6473 73.8695H99.2934ZM101.084 76.754V77.1087C101.811 77.1087 102.372 76.7325 102.751 76.3285C103.124 75.9305 103.359 75.4647 103.429 75.1867L103.085 75.1007L102.742 75.0147C102.706 75.1589 102.538 75.5197 102.235 75.8428C101.937 76.16 101.55 76.3994 101.084 76.3994V76.754ZM103.085 75.1007V75.4553H103.296V75.1007V74.7461H103.085V75.1007ZM103.296 75.1007L102.945 75.0528C102.9 75.3861 102.702 76.0567 102.203 76.6366C101.715 77.2031 100.925 77.701 99.6445 77.701V78.0556V78.4102C101.138 78.4102 102.121 77.8176 102.739 77.1001C103.345 76.396 103.587 75.5892 103.647 75.1486L103.296 75.1007ZM99.6445 78.0556V77.701C98.3635 77.701 97.4994 77.1946 96.9484 76.5132C96.388 75.8204 96.1363 74.9265 96.1363 74.1509H95.7824H95.4284C95.4284 75.0638 95.7209 76.1223 96.3982 76.9597C97.0848 77.8085 98.1517 78.4102 99.6445 78.4102V78.0556ZM118.898 61.9796L118.736 62.295L119.192 62.5299L119.249 62.0193L118.898 61.9796ZM113.526 77.8797H113.88V77.5623L113.565 77.5274L113.526 77.8797ZM113.526 78.0556V78.4102H113.88V78.0556H113.526ZM106.293 78.0556H105.939V78.4102H106.293V78.0556ZM106.293 77.8797L106.254 77.5274L105.939 77.5623V77.8797H106.293ZM106.363 59.8338H106.009V60.164L106.338 60.1875L106.363 59.8338ZM106.363 59.6579L106.329 59.305L106.009 59.3359V59.6579H106.363ZM111.068 59.2006L111.168 58.8604L111.102 58.8409L111.034 58.8477L111.068 59.2006ZM111.665 59.3765H112.019V59.1112L111.765 59.0363L111.665 59.3765ZM111.665 64.2309H111.311L112.012 64.3013L111.665 64.2309ZM119.249 58.8488L119.6 58.8885L119.638 58.5501L119.302 58.4984L119.249 58.8488ZM118.898 61.9796L119.059 61.6641C117.789 61.0096 116.645 60.7455 115.703 60.7455V61.1001V61.4548C116.515 61.4548 117.548 61.6831 118.736 62.295L118.898 61.9796ZM115.703 61.1001V60.7455C114.132 60.7455 113.016 61.4933 112.308 62.5719C111.61 63.6352 111.311 65.0105 111.311 66.3064H111.665H112.019C112.019 65.1047 112.299 63.8769 112.9 62.9614C113.491 62.0613 114.394 61.4548 115.703 61.4548V61.1001ZM111.665 66.3064H111.311V75.6635H111.665H112.019V66.3064H111.665ZM111.665 75.6635H111.311C111.311 76.396 111.47 77.0094 111.851 77.4618C112.235 77.9183 112.797 78.1555 113.487 78.2321L113.526 77.8797L113.565 77.5274C112.99 77.4633 112.622 77.2783 112.392 77.0048C112.158 76.7274 112.019 76.303 112.019 75.6635H111.665ZM113.526 77.8797H113.172V78.0556H113.526H113.88V77.8797H113.526ZM113.526 78.0556V77.701H106.293V78.0556V78.4102H113.526V78.0556ZM106.293 78.0556H106.647V77.8797H106.293H105.939V78.0556H106.293ZM106.293 77.8797L106.332 78.2321C107.011 78.1566 107.57 77.9424 107.956 77.5279C108.344 77.1112 108.508 76.5455 108.508 75.8746H108.154H107.8C107.8 76.4349 107.665 76.8014 107.439 77.0443C107.21 77.2894 106.839 77.4621 106.254 77.5274L106.293 77.8797ZM108.154 75.8746H108.508V62.1906H108.154H107.8V75.8746H108.154ZM108.154 62.1906H108.508C108.508 61.2621 108.295 60.5909 107.89 60.1416C107.482 59.6891 106.933 59.5191 106.388 59.48L106.363 59.8338L106.338 60.1875C106.776 60.2187 107.122 60.3478 107.364 60.6165C107.609 60.8882 107.8 61.3603 107.8 62.1906H108.154ZM106.363 59.8338H106.717V59.6579H106.363H106.009V59.8338H106.363ZM106.363 59.6579L106.397 60.0108L111.102 59.5535L111.068 59.2006L111.034 58.8477L106.329 59.305L106.363 59.6579ZM111.068 59.2006L110.968 59.5407L111.565 59.7166L111.665 59.3765L111.765 59.0363L111.168 58.8604L111.068 59.2006ZM111.665 59.3765H111.311V64.2309H111.665H112.019V59.3765H111.665ZM111.665 64.2309L112.012 64.3013C112.585 61.4641 114.616 59.0979 117.914 59.0979V58.7433V58.3887C114.191 58.3887 111.938 61.0879 111.318 64.1606L111.665 64.2309ZM117.914 58.7433V59.0979C118.317 59.0979 118.755 59.1316 119.195 59.1991L119.249 58.8488L119.302 58.4984C118.829 58.4252 118.354 58.3887 117.914 58.3887V58.7433ZM119.249 58.8488L118.897 58.8091L118.546 61.9399L118.898 61.9796L119.249 62.0193L119.6 58.8885L119.249 58.8488ZM121.515 69.2261H121.869C121.869 64.0264 125.091 60.3643 129.52 60.3643V60.0096V59.655C124.61 59.655 121.161 63.7319 121.161 69.2261H121.515ZM129.52 60.0096V60.3643C133.914 60.3643 137.136 64.0261 137.136 69.1909H137.49H137.844C137.844 63.7322 134.396 59.655 129.52 59.655V60.0096ZM137.49 69.1909H137.136C137.136 74.3906 133.914 78.0528 129.485 78.0528V78.4074V78.762C134.396 78.762 137.844 74.6851 137.844 69.1909H137.49ZM129.485 78.4074V78.0528C125.091 78.0528 121.869 74.3909 121.869 69.2261H121.515H121.161C121.161 74.6848 124.61 78.762 129.485 78.762V78.4074ZM125.763 71.2312L125.422 71.3226C125.958 73.3282 126.776 75.0062 127.765 76.1901C128.752 77.3713 129.94 78.0936 131.205 78.0936V77.739V77.3844C130.224 77.3844 129.217 76.8227 128.308 75.735C127.402 74.6499 126.622 73.0738 126.105 71.1396L125.763 71.2312ZM131.205 77.739V78.0936C132.008 78.0936 132.688 77.8068 133.216 77.2678C133.736 76.7364 134.087 75.981 134.29 75.0675C134.693 73.2445 134.522 70.6936 133.76 67.6965L133.417 67.7838L133.074 67.8712C133.823 70.819 133.968 73.2457 133.598 74.914C133.414 75.7464 133.108 76.3648 132.71 76.7713C132.321 77.1699 131.825 77.3844 131.205 77.3844V77.739ZM133.417 67.7838L133.76 67.6965C133.207 65.5152 132.346 63.6806 131.315 62.3833C130.29 61.0922 129.058 60.2882 127.765 60.2882V60.6428V60.9974C128.753 60.9974 129.803 61.6182 130.762 62.8247C131.715 64.025 132.539 65.7608 133.074 67.8712L133.417 67.7838ZM127.765 60.6428V60.2882C126.962 60.2882 126.286 60.5969 125.768 61.1685C125.259 61.7308 124.919 62.5288 124.731 63.495C124.357 65.425 124.572 68.1316 125.422 71.3226L125.763 71.2312L126.105 71.1399C125.269 67.9989 125.081 65.4113 125.426 63.6301C125.599 62.7404 125.899 62.0789 126.292 61.6451C126.676 61.221 127.163 60.9974 127.765 60.9974V60.6428ZM140.646 78.0556H140.292V78.4102H140.646V78.0556ZM140.646 77.8797L140.597 77.5285L140.292 77.5711V77.8797H140.646ZM140.646 53.6074H140.292V53.916L140.597 53.9586L140.646 53.6074ZM140.646 53.4315V53.0769H140.292V53.4315H140.646ZM146.018 64.8289V64.4743H145.664V64.8289H146.018ZM147.879 77.8797H148.233V77.5623L147.918 77.5274L147.879 77.8797ZM147.879 78.0556V78.4102H148.233V78.0556H147.879ZM146.018 64.4772H145.664V64.8318H146.018V64.4772ZM146.018 53.7833V53.4287H145.664V53.7833H146.018ZM140.646 78.0556H141V77.8797H140.646H140.292V78.0556H140.646ZM140.646 77.8797L140.695 78.2309C141.406 78.1319 141.969 77.8255 142.343 77.2743C142.707 76.7382 142.861 76.0142 142.861 75.1359H142.507H142.153C142.153 75.9461 142.008 76.5061 141.758 76.8757C141.517 77.2304 141.15 77.4516 140.597 77.5285L140.646 77.8797ZM142.507 75.1359H142.861V56.3512H142.507H142.153V75.1359H142.507ZM142.507 56.3512H142.861C142.861 55.4729 142.707 54.7489 142.343 54.2128C141.969 53.6616 141.406 53.3552 140.695 53.2562L140.646 53.6074L140.597 53.9586C141.15 54.0355 141.517 54.2567 141.758 54.6113C142.008 54.981 142.153 55.541 142.153 56.3512H142.507ZM140.646 53.6074H141V53.4315H140.646H140.292V53.6074H140.646ZM140.646 53.4315V53.7861H151.916V53.4315V53.0769H140.646V53.4315ZM151.916 53.4315V53.7861C154.306 53.7861 156.267 54.3464 157.62 55.2681C158.966 56.1853 159.708 57.4548 159.708 58.9191H160.062H160.416C160.416 57.1824 159.525 55.7081 158.018 54.6817C156.518 53.6599 154.407 53.0769 151.916 53.0769V53.4315ZM160.062 58.9191H159.708C159.708 60.7904 158.47 62.1713 156.706 63.1038C154.944 64.0357 152.729 64.4743 150.968 64.4743V64.8289V65.1835C152.824 65.1835 155.156 64.7251 157.036 63.7311C158.915 62.7376 160.416 61.1637 160.416 58.9191H160.062ZM150.968 64.8289V64.4743H146.018V64.8289V65.1835H150.968V64.8289ZM146.018 64.8289H145.664V75.5228H146.018H146.372V64.8289H146.018ZM146.018 75.5228H145.664C145.664 76.2871 145.821 76.9311 146.196 77.4085C146.577 77.8942 147.141 78.1543 147.84 78.2321L147.879 77.8797L147.918 77.5274C147.352 77.4644 146.986 77.2672 146.752 76.9702C146.513 76.665 146.372 76.2008 146.372 75.5228H146.018ZM147.879 77.8797H147.525V78.0556H147.879H148.233V77.8797H147.879ZM147.879 78.0556V77.701H140.646V78.0556V78.4102H147.879V78.0556ZM146.018 64.4772V64.8318H151.074V64.4772V64.1226H146.018V64.4772ZM151.074 64.4772V64.8318C154.569 64.8318 157.01 62.2105 157.01 59.0599H156.656H156.302C156.302 61.819 154.178 64.1226 151.074 64.1226V64.4772ZM156.656 59.0599H157.01C157.01 55.8786 154.504 53.4287 151.565 53.4287V53.7833V54.1379C154.104 54.1379 156.302 56.261 156.302 59.0599H156.656ZM151.565 53.7833V53.4287H146.018V53.7833V54.1379H151.565V53.7833ZM146.018 53.7833H145.664V64.4772H146.018H146.372V53.7833H146.018ZM179.922 72.6383L180.062 72.3123L179.731 72.1708L179.595 72.5033L179.922 72.6383ZM180.168 72.7438L180.508 72.8434L180.596 72.5416L180.307 72.4179L180.168 72.7438ZM162.894 68.6633L163.248 68.6655V68.6652L162.894 68.6633ZM179.185 64.9345V65.2891H179.539V64.9345H179.185ZM166.685 64.9345V64.5799H166.395L166.338 64.865L166.685 64.9345ZM166.756 64.653L166.411 64.5716L166.309 65.0077H166.756V64.653ZM175.919 64.653V65.0077H176.273V64.653H175.919ZM166.405 67.7838H166.051C166.051 70.5163 166.768 72.8173 168.068 74.4431C169.374 76.076 171.249 77.0031 173.497 77.0031V76.6485V76.2939C171.461 76.2939 169.79 75.4621 168.621 73.9994C167.445 72.5296 166.759 70.3983 166.759 67.7838H166.405ZM173.497 76.6485V77.0031C176.501 77.0031 179.205 75.3143 180.249 72.7733L179.922 72.6383L179.595 72.5033C178.673 74.7464 176.251 76.2939 173.497 76.2939V76.6485ZM179.922 72.6383L179.783 72.9643L180.028 73.0698L180.168 72.7438L180.307 72.4179L180.062 72.3123L179.922 72.6383ZM180.168 72.7438L179.828 72.6443C178.971 75.583 175.564 77.8065 171.671 77.8065V78.1611V78.5157C175.784 78.5157 179.539 76.1662 180.508 72.8434L180.168 72.7438ZM171.671 78.1611V77.8065C169.165 77.8065 167.058 76.8755 165.58 75.2814C164.1 73.6857 163.231 71.4026 163.248 68.6655L162.894 68.6633L162.54 68.661C162.522 71.5523 163.442 74.0179 165.061 75.7643C166.682 77.5121 168.981 78.5157 171.671 78.5157V78.1611ZM162.894 68.6633L163.248 68.6652C163.282 62.7472 167.434 59.4145 172.022 59.4145V59.0599V58.7052C167.06 58.7052 162.576 62.3376 162.54 68.6613L162.894 68.6633ZM172.022 59.0599V59.4145C175.986 59.4145 178.831 61.9004 178.831 64.5123H179.185H179.539C179.539 61.3552 176.204 58.7052 172.022 58.7052V59.0599ZM179.185 64.5123H178.831V64.9345H179.185H179.539V64.5123H179.185ZM179.185 64.9345V64.5799H166.685V64.9345V65.2891H179.185V64.9345ZM166.685 64.9345L166.338 64.865C166.159 65.766 166.051 66.739 166.051 67.7838H166.405H166.759C166.759 66.7884 166.861 65.8618 167.033 65.004L166.685 64.9345ZM166.756 64.653V65.0077H175.919V64.653V64.2984H166.756V64.653ZM175.919 64.653H176.273C176.273 63.0437 175.835 61.6505 175.047 60.6516C174.254 59.6465 173.118 59.057 171.776 59.057V59.4116V59.7662C172.893 59.7662 173.828 60.2496 174.492 61.0913C175.161 61.9393 175.566 63.1668 175.566 64.653H175.919ZM171.776 59.4116V59.057C169.109 59.057 167.164 61.3753 166.411 64.5716L166.756 64.653L167.1 64.7345C167.822 61.6692 169.598 59.7662 171.776 59.7662V59.4116ZM199.704 72.6383L199.844 72.3123L199.514 72.1708L199.377 72.5033L199.704 72.6383ZM199.95 72.7438L200.29 72.8434L200.378 72.5416L200.09 72.4179L199.95 72.7438ZM182.676 68.6633L183.03 68.6655V68.6652L182.676 68.6633ZM198.967 64.9345V65.2891H199.321V64.9345H198.967ZM186.468 64.9345V64.5799H186.178L186.121 64.865L186.468 64.9345ZM186.538 64.653L186.194 64.5716L186.091 65.0077H186.538V64.653ZM195.702 64.653V65.0077H196.056V64.653H195.702ZM186.187 67.7838H185.833C185.833 70.5163 186.551 72.8173 187.851 74.4431C189.157 76.076 191.032 77.0031 193.279 77.0031V76.6485V76.2939C191.243 76.2939 189.572 75.4621 188.403 73.9994C187.228 72.5296 186.541 70.3983 186.541 67.7838H186.187ZM193.279 76.6485V77.0031C196.283 77.0031 198.987 75.3143 200.032 72.7733L199.704 72.6383L199.377 72.5033C198.455 74.7464 196.033 76.2939 193.279 76.2939V76.6485ZM199.704 72.6383L199.565 72.9643L199.811 73.0698L199.95 72.7438L200.09 72.4179L199.844 72.3123L199.704 72.6383ZM199.95 72.7438L199.611 72.6443C198.754 75.583 195.346 77.8065 191.453 77.8065V78.1611V78.5157C195.566 78.5157 199.321 76.1662 200.29 72.8434L199.95 72.7438ZM191.453 78.1611V77.8065C188.947 77.8065 186.84 76.8755 185.362 75.2814C183.883 73.6857 183.013 71.4026 183.03 68.6655L182.676 68.6633L182.322 68.661C182.304 71.5523 183.225 74.0179 184.844 75.7643C186.464 77.5121 188.764 78.5157 191.453 78.5157V78.1611ZM182.676 68.6633L183.03 68.6652C183.064 62.7472 187.216 59.4145 191.804 59.4145V59.0599V58.7052C186.843 58.7052 182.358 62.3376 182.322 68.6613L182.676 68.6633ZM191.804 59.0599V59.4145C195.769 59.4145 198.613 61.9004 198.613 64.5123H198.967H199.321C199.321 61.3552 195.986 58.7052 191.804 58.7052V59.0599ZM198.967 64.5123H198.613V64.9345H198.967H199.321V64.5123H198.967ZM198.967 64.9345V64.5799H186.468V64.9345V65.2891H198.967V64.9345ZM186.468 64.9345L186.121 64.865C185.941 65.766 185.833 66.739 185.833 67.7838H186.187H186.541C186.541 66.7884 186.644 65.8618 186.815 65.004L186.468 64.9345ZM186.538 64.653V65.0077H195.702V64.653V64.2984H186.538V64.653ZM195.702 64.653H196.056C196.056 63.0437 195.618 61.6505 194.83 60.6516C194.037 59.6465 192.9 59.057 191.559 59.057V59.4116V59.7662C192.675 59.7662 193.61 60.2496 194.274 61.0913C194.943 61.9393 195.348 63.1668 195.348 64.653H195.702ZM191.559 59.4116V59.057C188.892 59.057 186.946 61.3753 186.194 64.5716L186.538 64.653L186.883 64.7345C187.605 61.6692 189.381 59.7662 191.559 59.7662V59.4116ZM201.897 59.7282H201.543V60.0828H201.897V59.7282ZM201.897 59.3413L201.87 58.9878L201.543 59.0125V59.3413H201.897ZM207.83 56.1401V55.7855H207.665L207.559 55.9126L207.83 56.1401ZM208.181 56.1401H208.535V55.7855H208.181V56.1401ZM208.181 59.2006H207.827V59.5552H208.181V59.2006ZM212.043 59.2006L212.347 59.383L212.668 58.846H212.043V59.2006ZM211.727 59.7282V60.0828H211.928L212.031 59.9106L211.727 59.7282ZM208.181 59.7282V59.3736H207.827V59.7282H208.181ZM211.973 75.1007V74.7461H211.697L211.63 75.0147L211.973 75.1007ZM212.184 75.1007L212.534 75.1486L212.589 74.7461H212.184V75.1007ZM204.67 74.1509H205.024V62.7887H204.67H204.316V74.1509H204.67ZM204.67 62.7887H205.024C205.024 61.7413 204.796 60.8834 204.303 60.2817C203.801 59.6681 203.067 59.3736 202.178 59.3736V59.7282V60.0828C202.903 60.0828 203.416 60.316 203.756 60.7313C204.106 61.1586 204.316 61.8309 204.316 62.7887H204.67ZM202.178 59.7282V59.3736H201.897V59.7282V60.0828H202.178V59.7282ZM201.897 59.7282H202.251V59.3413H201.897H201.543V59.7282H201.897ZM201.897 59.3413L201.923 59.6947C204.346 59.5109 206.432 58.3677 208.102 56.3677L207.83 56.1401L207.559 55.9126C205.998 57.7821 204.082 58.8199 201.87 58.9878L201.897 59.3413ZM207.83 56.1401V56.4948H208.181V56.1401V55.7855H207.83V56.1401ZM208.181 56.1401H207.827V59.2006H208.181H208.535V56.1401H208.181ZM208.181 59.2006V59.5552H212.043V59.2006V58.846H208.181V59.2006ZM212.043 59.2006L211.74 59.0182L211.424 59.5458L211.727 59.7282L212.031 59.9106L212.347 59.383L212.043 59.2006ZM211.727 59.7282V59.3736H208.181V59.7282V60.0828H211.727V59.7282ZM208.181 59.7282H207.827V73.8695H208.181H208.535V59.7282H208.181ZM208.181 73.8695H207.827C207.827 74.7146 207.982 75.5041 208.322 76.0956C208.671 76.7013 209.224 77.1087 209.972 77.1087V76.754V76.3994C209.526 76.3994 209.184 76.1736 208.936 75.7416C208.679 75.2953 208.535 74.6426 208.535 73.8695H208.181ZM209.972 76.754V77.1087C210.699 77.1087 211.26 76.7325 211.639 76.3285C212.012 75.9305 212.247 75.4647 212.316 75.1867L211.973 75.1007L211.63 75.0147C211.594 75.1589 211.425 75.5197 211.123 75.8428C210.825 76.16 210.438 76.3994 209.972 76.3994V76.754ZM211.973 75.1007V75.4553H212.184V75.1007V74.7461H211.973V75.1007ZM212.184 75.1007L211.833 75.0528C211.788 75.3861 211.59 76.0567 211.091 76.6366C210.603 77.2031 209.813 77.701 208.532 77.701V78.0556V78.4102C210.025 78.4102 211.009 77.8176 211.627 77.1001C212.233 76.396 212.474 75.5892 212.534 75.1486L212.184 75.1007ZM208.532 78.0556V77.701C207.252 77.701 206.387 77.1946 205.836 76.5132C205.276 75.8204 205.024 74.9265 205.024 74.1509H204.67H204.316C204.316 75.0638 204.609 76.1223 205.286 76.9597C205.973 77.8085 207.039 78.4102 208.532 78.4102V78.0556ZM221.728 77.8797H222.082V77.5711L221.776 77.5285L221.728 77.8797ZM221.728 78.0556V78.4102H222.082V78.0556H221.728ZM214.495 78.0556H214.141V78.4102H214.495V78.0556ZM214.495 77.8797L214.446 77.5285L214.141 77.5711V77.8797H214.495ZM214.565 54.0647H214.211V54.3949L214.54 54.4184L214.565 54.0647ZM214.565 53.8888L214.531 53.5359L214.211 53.5668V53.8888H214.565ZM219.27 53.4315L219.37 53.0913L219.304 53.0718L219.236 53.0786L219.27 53.4315ZM219.867 53.6074H220.221V53.3421L219.967 53.2672L219.867 53.6074ZM219.867 65.2862H219.513L220.207 65.3827L219.867 65.2862ZM234.753 77.8797H235.107V77.5711L234.802 77.5285L234.753 77.8797ZM234.753 78.0556V78.4102H235.107V78.0556H234.753ZM227.521 78.0556H227.167V78.4102H227.521V78.0556ZM227.521 77.8797L227.472 77.5285L227.167 77.5711V77.8797H227.521ZM229.382 75.1007H229.736V67.2562H229.382H229.028V75.1007H229.382ZM229.382 67.2562H229.736C229.736 65.2318 229.24 63.5782 228.395 62.421C227.545 61.2576 226.346 60.6048 224.993 60.6048V60.9594V61.314C226.097 61.314 227.093 61.8397 227.823 62.8397C228.558 63.846 229.028 65.3407 229.028 67.2562H229.382ZM224.993 60.9594V60.6048C223.43 60.6048 222.051 61.476 221.077 62.8272C220.102 64.1784 219.513 66.0298 219.513 68.0652H219.867H220.221C220.221 66.1608 220.773 64.4593 221.65 63.2425C222.528 62.0258 223.712 61.314 224.993 61.314V60.9594ZM219.867 68.0652H219.513V74.9952H219.867H220.221V68.0652H219.867ZM219.867 74.9952H219.513C219.513 75.9228 219.666 76.6797 220.026 77.2372C220.398 77.8122 220.963 78.1313 221.679 78.2309L221.728 77.8797L221.776 77.5285C221.229 77.4522 220.863 77.2261 220.62 76.8513C220.367 76.459 220.221 75.8616 220.221 74.9952H219.867ZM221.728 77.8797H221.374V78.0556H221.728H222.082V77.8797H221.728ZM221.728 78.0556V77.701H214.495V78.0556V78.4102H221.728V78.0556ZM214.495 78.0556H214.849V77.8797H214.495H214.141V78.0556H214.495ZM214.495 77.8797L214.544 78.2309C215.255 78.1319 215.818 77.8255 216.192 77.2743C216.556 76.7382 216.71 76.0142 216.71 75.1359H216.356H216.002C216.002 75.9461 215.857 76.5061 215.607 76.8757C215.366 77.2304 214.999 77.4516 214.446 77.5285L214.495 77.8797ZM216.356 75.1359H216.71V56.4216H216.356H216.002V75.1359H216.356ZM216.356 56.4216H216.71C216.71 55.4931 216.497 54.8218 216.092 54.3725C215.684 53.92 215.135 53.7501 214.59 53.7109L214.565 54.0647L214.54 54.4184C214.979 54.4496 215.325 54.5787 215.566 54.8474C215.811 55.1192 216.002 55.5912 216.002 56.4216H216.356ZM214.565 54.0647H214.919V53.8888H214.565H214.211V54.0647H214.565ZM214.565 53.8888L214.599 54.2417L219.304 53.7844L219.27 53.4315L219.236 53.0786L214.531 53.5359L214.565 53.8888ZM219.27 53.4315L219.17 53.7716L219.767 53.9475L219.867 53.6074L219.967 53.2672L219.37 53.0913L219.27 53.4315ZM219.867 53.6074H219.513V65.2862H219.867H220.221V53.6074H219.867ZM219.867 65.2862L220.207 65.3827C221.095 62.238 223.451 59.6959 226.713 59.6959V59.3413V58.9867C223.024 58.9867 220.465 61.8618 219.526 65.1898L219.867 65.2862ZM226.713 59.3413V59.6959C228.402 59.6959 229.849 60.3816 230.879 61.5699C231.911 62.7617 232.539 64.4777 232.539 66.5526H232.893H233.247C233.247 64.3359 232.575 62.4462 231.413 61.1052C230.249 59.7608 228.606 58.9867 226.713 58.9867V59.3413ZM232.893 66.5526H232.539V74.9952H232.893H233.247V66.5526H232.893ZM232.893 74.9952H232.539C232.539 75.9228 232.692 76.6797 233.052 77.2372C233.424 77.8122 233.988 78.1313 234.705 78.2309L234.753 77.8797L234.802 77.5285C234.255 77.4522 233.888 77.2261 233.646 76.8513C233.392 76.459 233.247 75.8616 233.247 74.9952H232.893ZM234.753 77.8797H234.4V78.0556H234.753H235.107V77.8797H234.753ZM234.753 78.0556V77.701H227.521V78.0556V78.4102H234.753V78.0556ZM227.521 78.0556H227.875V77.8797H227.521H227.167V78.0556H227.521ZM227.521 77.8797L227.569 78.2309C228.281 78.1319 228.845 77.8252 229.219 77.2687C229.582 76.7279 229.736 75.9955 229.736 75.1007H229.382H229.028C229.028 75.9296 228.883 76.4987 228.632 76.8726C228.391 77.2306 228.025 77.4516 227.472 77.5285L227.521 77.8797Z" fill="#851739"/>
<path d="M133.142 69.2128C130.466 69.2128 129.633 68.4684 129.633 63.8162C129.633 63.7847 129.608 63.7589 129.578 63.7589C129.547 63.7589 129.522 63.7847 129.522 63.8162C129.522 67.9313 129.038 69.2128 126.013 69.2128C125.982 69.2128 125.957 69.2383 125.957 69.2698C125.957 69.3007 125.982 69.3262 126.013 69.3262C128.689 69.3262 129.522 70.0703 129.522 74.7228C129.522 74.7543 129.547 74.7798 129.578 74.7798C129.608 74.7798 129.633 74.7543 129.633 74.7228C129.633 70.6076 130.117 69.3262 133.142 69.3262C133.173 69.3262 133.198 69.3007 133.198 69.2698C133.198 69.2383 133.173 69.2128 133.142 69.2128Z" fill="#F68A32"/>
</g>
<defs>
<clipPath id="clip0_1_17378">
<rect width="235.294" height="80" fill="white"/>
</clipPath>
</defs>
</svg>
