<svg width="35" height="40" viewBox="0 0 35 40" fill="none" xmlns="http://www.w3.org/2000/svg">
<path d="M34.8589 17.8385C34.3319 13.7152 32.3157 9.91772 29.1804 7.14308C26.0452 4.36844 22.0011 2.80275 17.7904 2.73338L18.9905 1.55861C19.0774 1.47479 19.1466 1.37484 19.1941 1.26452C19.2417 1.15419 19.2666 1.03567 19.2676 0.915791C19.2685 0.795908 19.2454 0.677027 19.1995 0.565997C19.1537 0.454968 19.0861 0.353983 19.0005 0.268859C18.915 0.183736 18.8132 0.116156 18.7011 0.0700134C18.589 0.0238704 18.4687 7.57431e-05 18.3472 1.80536e-07C18.2258 -7.53821e-05 18.1055 0.0235696 17.9933 0.0695731C17.8811 0.115577 17.7793 0.183029 17.6936 0.268046L14.7764 3.12363C14.6905 3.20766 14.6222 3.30756 14.5755 3.41763C14.5287 3.52771 14.5044 3.64579 14.5039 3.76514C14.5034 3.88449 14.5268 4.00276 14.5726 4.11321C14.6184 4.22366 14.6859 4.32411 14.771 4.40883L17.6882 7.31145C17.7731 7.39717 17.8744 7.46545 17.9862 7.51237C18.098 7.55929 18.2181 7.58392 18.3395 7.58484C18.461 7.58575 18.5815 7.56294 18.694 7.51772C18.8065 7.47249 18.9088 7.40575 18.9951 7.32133C19.0813 7.23691 19.1498 7.13648 19.1966 7.02583C19.2433 6.91518 19.2674 6.79649 19.2675 6.6766C19.2676 6.55672 19.2436 6.438 19.197 6.32729C19.1504 6.21658 19.082 6.11607 18.9959 6.03154L17.5084 4.55113C20.7514 4.55337 23.9138 5.54937 26.5586 7.40156C29.2033 9.25375 31.2001 11.8707 32.273 14.891C33.3459 17.9113 33.4419 21.1858 32.5479 24.2623C31.6539 27.3388 29.814 30.0654 27.2822 32.0655C27.0917 32.2163 26.9696 32.4356 26.9428 32.6752C26.9296 32.7939 26.9402 32.9139 26.9739 33.0285C27.0077 33.1431 27.064 33.2501 27.1397 33.3432C27.2153 33.4363 27.3088 33.5138 27.4148 33.5713C27.5209 33.6288 27.6373 33.6651 27.7575 33.6782C28.0003 33.7045 28.2438 33.6347 28.4344 33.4839C33.2247 29.6929 35.6265 23.8442 34.8589 17.8385Z" fill="white"/>
<path d="M17.3116 32.6884C17.2267 32.6027 17.1254 32.5344 17.0136 32.4875C16.9018 32.4406 16.7817 32.416 16.6603 32.4151C16.5388 32.4141 16.4183 32.437 16.3058 32.4822C16.1933 32.5274 16.091 32.5942 16.0047 32.6786C15.9185 32.763 15.85 32.8634 15.8032 32.9741C15.7565 33.0847 15.7324 33.2034 15.7323 33.3233C15.7322 33.4432 15.7562 33.5619 15.8028 33.6726C15.8494 33.7833 15.9178 33.8838 16.0039 33.9684L17.4914 35.4483C14.2487 35.4462 11.0866 34.4505 8.44196 32.5988C5.79728 30.747 3.80047 28.1305 2.72731 25.1107C1.65415 22.0909 1.5576 18.8167 2.45099 15.7404C3.34438 12.6641 5.18362 9.93745 7.71471 7.93704C7.90524 7.78615 8.02723 7.56674 8.05384 7.32709C8.08045 7.08743 8.00951 6.84716 7.85661 6.65913C7.70371 6.4711 7.48139 6.35071 7.23854 6.32444C6.9957 6.29818 6.75224 6.3682 6.5617 6.51909C1.77373 10.3104 -0.626733 16.158 0.140928 22.1613C0.667753 26.2847 2.68394 30.0823 5.81939 32.8569C8.95483 35.6315 12.9991 37.197 17.2099 37.2659L16.0093 38.4414C15.9224 38.5252 15.8532 38.6251 15.8057 38.7355C15.7581 38.8458 15.7332 38.9643 15.7322 39.0842C15.7313 39.2041 15.7544 39.323 15.8003 39.434C15.8461 39.545 15.9137 39.646 15.9993 39.7311C16.0848 39.8162 16.1866 39.8838 16.2987 39.93C16.4108 39.9761 16.5311 39.9999 16.6526 40C16.774 40.0001 16.8943 39.9764 17.0065 39.9304C17.1187 39.8844 17.2205 39.817 17.3062 39.7319L20.2233 36.8761C20.3092 36.7921 20.3775 36.6922 20.4243 36.5821C20.471 36.472 20.4953 36.354 20.4958 36.2346C20.4963 36.1153 20.473 35.997 20.4272 35.8865C20.3814 35.7761 20.3139 35.6756 20.2288 35.5909L17.3116 32.6884Z" fill="white"/>
<path d="M18.2319 19.2812C18.101 19.2317 17.9783 19.186 17.8726 19.1401C17.7566 19.0895 17.6176 19.0369 17.4643 18.9795C16.5922 18.6526 16.1193 18.3944 16.1193 17.9668C16.1193 17.778 16.3235 17.4848 16.7133 17.29C16.9896 17.1522 17.9868 16.7747 19.2577 17.6965C19.3551 17.7681 19.4658 17.82 19.5836 17.8491C19.7014 17.8783 19.8238 17.8842 19.9439 17.8665C20.064 17.8488 20.1794 17.8078 20.2833 17.7459C20.3873 17.6841 20.4779 17.6025 20.5498 17.506C20.6217 17.4094 20.6736 17.2998 20.7024 17.1834C20.7312 17.067 20.7364 16.9461 20.7177 16.8277C20.699 16.7093 20.6568 16.5957 20.5935 16.4935C20.5301 16.3912 20.4469 16.3024 20.3486 16.232C19.7766 15.8111 19.1193 15.5169 18.4216 15.3695V14.5466C18.4193 14.3071 18.3212 14.0782 18.1488 13.9096C17.9763 13.741 17.7434 13.6465 17.5007 13.6465C17.258 13.6465 17.0251 13.741 16.8526 13.9096C16.6801 14.0782 16.5821 14.3071 16.5797 14.5466V15.4122C16.3389 15.474 16.1051 15.5596 15.8818 15.6679C14.892 16.1621 14.2773 17.043 14.2773 17.9667C14.2773 19.7295 15.988 20.3708 16.8105 20.679C16.9297 20.7234 17.0385 20.7637 17.1289 20.8032C17.2607 20.8605 17.4122 20.9181 17.5745 20.9794C18.4789 21.3202 18.8823 21.5453 18.8823 21.9763C18.8823 22.165 18.6781 22.4583 18.2882 22.6527C18.012 22.7903 17.0151 23.1684 15.7439 22.2462C15.5471 22.1034 15.3009 22.0437 15.0594 22.08C14.818 22.1164 14.601 22.246 14.4564 22.4402C14.3117 22.6344 14.2511 22.8774 14.288 23.1156C14.3249 23.3539 14.4561 23.568 14.6529 23.7108C15.2246 24.1335 15.8818 24.4297 16.5799 24.5794V25.4533C16.5822 25.6928 16.6803 25.9217 16.8528 26.0903C17.0252 26.2588 17.2581 26.3534 17.5009 26.3534C17.7436 26.3534 17.9765 26.2588 18.1489 26.0903C18.3214 25.9217 18.4195 25.6928 18.4218 25.4533V24.5343C18.6627 24.4713 18.8966 24.3844 19.1197 24.2749C20.1095 23.7807 20.7242 22.9001 20.7242 21.9765C20.724 20.221 19.1029 19.6096 18.2319 19.2812Z" fill="white"/>
<path d="M17.5018 10.0022C15.4981 10.0022 13.5395 10.5886 11.8735 11.6871C10.2075 12.7857 8.90902 14.3471 8.14225 16.174C7.37548 18.0008 7.17486 20.011 7.56576 21.9504C7.95665 23.8898 8.92151 25.6712 10.3383 27.0694C11.7551 28.4676 13.5602 29.4198 15.5254 29.8056C17.4906 30.1914 19.5275 29.9934 21.3786 29.2367C23.2298 28.48 24.812 27.1985 25.9252 25.5544C27.0383 23.9103 27.6325 21.9773 27.6325 19.9999C27.6294 17.3493 26.5611 14.8081 24.6619 12.9338C22.7627 11.0595 20.1877 10.0052 17.5018 10.0022ZM17.5018 28.18C15.8624 28.18 14.2599 27.7002 12.8968 26.8014C11.5337 25.9025 10.4713 24.625 9.84396 23.1303C9.21661 21.6356 9.05246 19.9909 9.37229 18.4041C9.69211 16.8173 10.4815 15.3598 11.6407 14.2158C12.7999 13.0718 14.2769 12.2928 15.8847 11.9771C17.4926 11.6615 19.1592 11.8235 20.6738 12.4426C22.1883 13.0617 23.4829 14.1102 24.3937 15.4554C25.3044 16.8006 25.7906 18.3821 25.7906 19.9999C25.788 22.1686 24.9139 24.2478 23.36 25.7813C21.8061 27.3148 19.6993 28.1774 17.5018 28.18Z" fill="white"/>
</svg>
