<svg width="30" height="32" viewBox="0 0 30 32" fill="none" xmlns="http://www.w3.org/2000/svg">
<g clip-path="url(#clip0_1_17489)">
<path d="M3.82449 2.06832C3.82449 1.53171 3.82593 1.05862 3.82376 0.584802C3.82232 0.331465 3.87439 0.102221 4.17457 0.0912699C4.48776 0.0795887 4.58324 0.308103 4.58758 0.576041C4.59626 1.05862 4.58975 1.54193 4.58975 2.04788H8.00232C8.00232 1.76315 7.99943 1.48791 8.00232 1.21267C8.011 0.515445 8.46669 0.0292134 9.13213 0.00220056C9.8323 -0.0262724 10.3762 0.444627 10.4254 1.14185C10.4464 1.44118 10.429 1.74416 10.429 2.05372H19.5941C19.5941 1.75877 19.5919 1.4828 19.5941 1.20683C19.6013 0.501573 20.0773 0.0168021 20.7716 0.00658102C21.4588 -0.00437013 21.9673 0.46872 22.0005 1.16229C22.0143 1.4514 22.0027 1.74124 22.0027 2.04642H25.4326C25.4326 1.55142 25.4326 1.07979 25.4326 0.608894C25.4326 0.330005 25.484 0.073018 25.8319 0.0846993C26.1646 0.0956504 26.182 0.356288 26.1813 0.613275C26.1798 1.0849 26.1813 1.55653 26.1813 2.0727C26.7281 2.0727 27.2185 2.0727 27.7089 2.0727C28.966 2.0727 29.9924 3.0897 29.9931 4.35857C29.996 12.4741 30.0083 20.5889 29.9837 28.7044C29.9779 30.6428 28.5747 32.0007 26.6767 32.0015C18.9019 32.0029 11.127 32.0015 3.35217 32.0022C1.47807 32.0022 0.00468705 30.5676 0.00324043 28.6855C-0.00254605 20.5561 0.000347189 12.4288 0.00468705 4.30089C0.00468705 3.11306 1.05638 2.07124 2.2332 2.06832C2.7482 2.06686 3.2632 2.06832 3.82449 2.06832ZM0.772842 7.998C0.772842 8.14621 0.772842 8.25353 0.772842 8.36085C0.772842 14.6147 0.772842 20.8685 0.774289 27.1224C0.774289 27.2545 0.785138 27.3896 0.816241 27.5173C1.10556 28.7242 1.94316 29.3834 3.18291 29.3841C7.38968 29.3849 11.5972 29.3856 15.8039 29.3856C19.529 29.3856 23.2533 29.3849 26.9784 29.3805C28.2109 29.379 29.2271 28.408 29.2271 27.2341C29.2286 20.9561 29.2271 14.6775 29.2257 8.39955C29.2257 8.27105 29.2134 8.14256 29.2054 7.998H0.772842ZM0.772842 7.20587H29.2156C29.2156 6.16551 29.2416 5.15654 29.2054 4.14977C29.1845 3.57009 28.6051 2.95098 28.0163 2.89039C27.4246 2.82979 26.8221 2.87724 26.1871 2.87724C26.1871 3.31894 26.1849 3.74165 26.1878 4.16437C26.19 4.43888 26.1538 4.71485 25.8174 4.71996C25.4804 4.7258 25.4334 4.45713 25.437 4.17751C25.442 3.74385 25.4384 3.31091 25.4384 2.87067H21.9875C21.9875 3.14445 21.9911 3.39706 21.9875 3.64894C21.9759 4.36952 21.5058 4.86378 20.8288 4.87035C20.112 4.87765 19.6143 4.37974 19.5999 3.63725C19.5948 3.38611 19.5992 3.13496 19.5992 2.86702H10.4319C10.4319 3.15248 10.4457 3.41823 10.429 3.68252C10.3856 4.39507 9.85472 4.89226 9.18132 4.86524C8.48911 4.8375 8.01679 4.32718 8.01317 3.60148C8.01173 3.36275 8.01317 3.12401 8.01317 2.87797H4.59553C4.59553 3.19921 4.59698 3.48978 4.59553 3.78108C4.59409 3.97528 4.63893 4.19138 4.56877 4.35784C4.50657 4.50605 4.312 4.69514 4.18252 4.69002C4.06173 4.68491 3.92503 4.46224 3.84329 4.30965C3.79266 4.21474 3.83244 4.07165 3.83244 3.94973C3.83244 3.5898 3.83244 3.22914 3.83244 2.85242C3.21546 2.85242 2.66068 2.8276 2.1088 2.85899C1.43901 2.89623 0.808284 3.50949 0.783692 4.18919C0.74825 5.18429 0.774289 6.18157 0.774289 7.2066L0.772842 7.20587ZM29.1179 29.2797C28.3765 30.0631 27.4377 30.1369 26.4503 30.1354C18.6039 30.1252 10.7574 30.1317 2.91095 30.1252C2.652 30.1252 2.37063 30.0923 2.13773 29.9879C1.69217 29.7879 1.2741 29.5243 0.878445 29.306C1.06434 30.3457 2.13266 31.2444 3.282 31.2451C11.0684 31.2502 18.8549 31.2524 26.6406 31.2422C26.9805 31.2422 27.3407 31.1648 27.6561 31.0363C28.4358 30.7187 28.9125 30.1142 29.1172 29.2797H29.1179ZM21.2577 2.43847H21.2563C21.2563 2.04934 21.2642 1.66021 21.2534 1.2718C21.2454 0.977583 21.0776 0.768781 20.7933 0.75856C20.4881 0.747609 20.3463 0.985614 20.3427 1.26815C20.3326 2.03327 20.3377 2.79913 20.3463 3.56498C20.3499 3.8738 20.5141 4.07384 20.823 4.10304C21.0588 4.12495 21.2512 3.8592 21.2563 3.53212C21.262 3.16781 21.2577 2.80278 21.2577 2.43847ZM9.67751 2.44942H9.67534C9.67534 2.04861 9.68836 1.64779 9.671 1.24771C9.65798 0.953491 9.47354 0.762211 9.18711 0.765861C8.90212 0.769511 8.76325 0.992915 8.75963 1.26085C8.7495 2.02524 8.75457 2.79036 8.76397 3.55549C8.76759 3.85993 8.92382 4.06873 9.2305 4.10377C9.46847 4.13079 9.66811 3.86869 9.67606 3.54234C9.68474 3.17804 9.67823 2.81373 9.67823 2.44942H9.67751Z" fill="#851739"/>
<path d="M10.6102 18.503C8.96968 18.4344 7.79792 17.6824 7.05147 16.2705C6.97841 16.1325 6.99216 15.8762 7.07461 15.7441C7.19396 15.5535 7.40155 15.5827 7.6171 15.6959C9.42754 16.6443 11.5461 15.2783 11.4318 13.2239C11.3769 12.2339 10.8286 11.5001 10.0554 10.9358C9.85791 10.792 9.68287 10.6314 9.80294 10.4138C9.87816 10.278 10.114 10.1751 10.2868 10.1597C11.4543 10.0546 12.5168 10.3714 13.4021 11.1409C15.2509 12.7471 15.3175 15.4082 13.771 17.1144C12.8994 18.0759 11.8152 18.4695 10.6094 18.503H10.6102ZM8.331 16.729C9.2431 17.7846 10.911 18.0504 12.1696 17.3634C13.7016 16.5267 14.4039 14.9702 13.9685 13.3743C13.6314 12.139 12.2412 10.93 11.2011 10.9796C12.1985 12.1441 12.5544 13.4363 11.8557 14.8629C11.1454 16.3121 9.90492 16.848 8.331 16.729Z" fill="#851739"/>
<path d="M23.4568 16.3267C23.4597 17.451 22.6958 18.4374 21.391 18.4899C20.212 18.5374 19.2919 17.5847 19.2623 16.3508C19.2355 15.2499 20.1628 14.2978 21.2919 14.2672C22.4702 14.2351 23.4285 15.1469 23.456 16.3267H23.4568ZM20.0218 16.3435C20.0203 17.1305 20.6272 17.7781 21.3577 17.7701C22.0658 17.7621 22.724 17.0948 22.7212 16.3881C22.7183 15.6799 22.0362 14.979 21.3635 14.9921C20.6387 15.006 20.0232 15.6266 20.0218 16.3442V16.3435Z" fill="#851739"/>
<path d="M9.88101 21.2985C9.89548 21.1306 9.88246 20.9539 9.93092 20.7977C10.0155 20.5254 10.4741 20.429 11.0369 20.5451C11.303 20.5999 11.4123 20.7795 11.4086 21.043C11.4086 21.0912 11.4086 21.1401 11.4086 21.1883C11.4072 22.0739 11.1707 22.2914 10.3078 22.1184C10.1501 22.087 10.0054 21.8607 9.90777 21.6935C9.84991 21.5942 9.89692 21.4336 9.89692 21.3C9.89186 21.3 9.8868 21.3 9.88101 21.2993V21.2985Z" fill="#851739"/>
<path d="M14.6836 21.2642C14.7755 21.0459 14.8275 20.6743 14.9664 20.6386C15.3187 20.5458 15.7548 20.494 16.0738 20.6283C16.476 20.797 16.2525 21.2774 16.2626 21.619C16.2669 21.7716 16.1165 22.0381 15.9964 22.0637C15.6926 22.1286 15.3483 22.1542 15.0539 22.0717C14.693 21.9702 14.7574 21.5979 14.6836 21.265V21.2642Z" fill="#851739"/>
<path d="M19.5788 25.2198C19.6801 24.9949 19.7387 24.6204 19.8913 24.5759C20.2154 24.4817 20.59 24.5423 20.9394 24.578C21.0197 24.5861 21.1369 24.746 21.147 24.846C21.1766 25.1344 21.1665 25.4271 21.1578 25.7184C21.1557 25.7827 21.1065 25.8586 21.0573 25.9061C20.7419 26.2134 20.3477 26.0966 19.9969 26.0448C19.7098 26.0024 19.6403 25.7199 19.6628 25.4395C19.6678 25.3789 19.6628 25.3183 19.6628 25.257C19.6345 25.2446 19.6063 25.2315 19.5781 25.2191L19.5788 25.2198Z" fill="#851739"/>
<path d="M4.89525 25.2366C4.9929 25.0103 5.04353 24.6372 5.19687 24.5875C5.51658 24.4839 5.89921 24.5043 6.23989 24.5642C6.4822 24.6065 6.59359 25.2753 6.46267 25.7228C6.38527 25.9871 6.18564 26.1039 5.91078 26.0849C5.86304 26.0813 5.81458 26.0835 5.76684 26.0835C5.04498 26.0784 4.97554 26.0075 4.89453 25.2373L4.89525 25.2366Z" fill="#851739"/>
<path d="M4.97729 21.3102C4.97295 20.6028 5.60801 20.2473 6.24669 20.5999C6.47454 20.7255 6.59967 21.3117 6.4702 21.7403C6.38774 22.0111 6.19317 22.1557 5.89951 22.1352C5.86406 22.133 5.8279 22.1345 5.79173 22.1345C5.04238 22.133 4.98163 22.071 4.97656 21.3102H4.97729Z" fill="#851739"/>
<path d="M14.6758 25.2089C14.7807 24.9876 14.8465 24.6153 14.9984 24.5759C15.3347 24.4875 15.7166 24.5474 16.0747 24.5897C16.1506 24.5985 16.2193 24.7876 16.2642 24.9037C16.2924 24.9774 16.2707 25.0709 16.2707 25.1556C16.2728 26.0178 16.0327 26.2215 15.1915 26.0747C14.8566 26.0163 14.764 25.8389 14.6758 25.2089Z" fill="#851739"/>
<path d="M9.89069 25.2453C9.89358 24.5335 9.94494 24.4875 10.7304 24.4904C11.3221 24.4926 11.3995 24.6087 11.3952 25.4782C11.3923 25.9747 11.2295 26.082 10.4831 26.0791C9.98472 26.0769 9.88779 25.9411 9.89069 25.2453Z" fill="#851739"/>
<path d="M24.2309 18.9419C24.2381 19.2062 23.9835 19.3938 23.7752 19.2405C23.5286 19.0587 23.3043 18.828 23.1242 18.579C22.9687 18.3644 23.1474 18.1147 23.4164 18.1191C23.6551 18.1227 24.2251 18.698 24.2316 18.9419H24.2309Z" fill="#851739"/>
<path d="M19.6514 14.3292C19.5747 14.4387 19.5277 14.5774 19.4423 14.6088C19.3367 14.6475 19.1668 14.6409 19.0814 14.576C18.8832 14.4256 18.6843 14.2518 18.5563 14.043C18.4868 13.9299 18.5628 13.7262 18.5736 13.5626C18.7291 13.5787 18.9107 13.5502 19.0351 13.6218C19.2058 13.7203 19.3396 13.889 19.4771 14.0394C19.5443 14.1131 19.5841 14.2139 19.6514 14.3277V14.3292Z" fill="#851739"/>
<path d="M23.4422 14.6403C23.1659 14.6403 23.014 14.373 23.1862 14.1307C23.3446 13.9073 23.5435 13.7036 23.7576 13.5327C23.976 13.3582 24.2444 13.5276 24.2516 13.8189C24.2581 14.0744 23.6997 14.6417 23.4422 14.641V14.6403Z" fill="#851739"/>
<path d="M21.6902 13.0589C21.6743 13.3465 21.7705 13.7313 21.3792 13.7386C20.9582 13.7466 21.0551 13.3473 21.0407 13.0698C21.0341 12.9486 20.9994 12.8019 21.0522 12.7121C21.1318 12.577 21.2772 12.4807 21.3944 12.3682C21.4927 12.4836 21.6193 12.5865 21.6808 12.7194C21.7271 12.8187 21.6902 12.9574 21.6902 13.0589Z" fill="#851739"/>
<path d="M18.489 19.0207C18.4745 18.671 19.0474 18.1022 19.3295 18.138C19.4206 18.1497 19.5566 18.2191 19.5761 18.2891C19.6072 18.4023 19.6007 18.5702 19.5349 18.6564C19.3823 18.8571 19.1993 19.0419 18.9997 19.1937C18.9158 19.2572 18.7458 19.2536 18.6344 19.2178C18.5577 19.193 18.515 19.0608 18.4883 19.0214L18.489 19.0207Z" fill="#851739"/>
<path d="M21.031 19.6442C21.031 19.523 20.9941 19.3843 21.0404 19.2857C21.099 19.1609 21.2408 18.9711 21.3203 18.9828C21.4513 19.0025 21.6379 19.1463 21.6632 19.2675C21.7167 19.5223 21.7117 19.8019 21.6661 20.0596C21.6458 20.1735 21.457 20.3487 21.3674 20.3356C21.2444 20.3173 21.1077 20.1662 21.0426 20.0377C20.9891 19.9326 21.0317 19.7771 21.0317 19.6442H21.0303H21.031Z" fill="#851739"/>
<path d="M18.0907 16.6772C17.9952 16.6772 17.899 16.675 17.8036 16.6772C17.5887 16.6823 17.4535 16.5881 17.4571 16.3625C17.4607 16.1413 17.5967 16.0434 17.8094 16.0427C18.001 16.0427 18.192 16.0383 18.3837 16.0369C18.6325 16.0354 18.7959 16.1873 18.7612 16.4092C18.7446 16.5173 18.5196 16.6071 18.375 16.6728C18.2954 16.7093 18.1862 16.6793 18.0907 16.6793V16.6764V16.6772Z" fill="#851739"/>
<path d="M24.611 16.6918C24.4917 16.6918 24.3521 16.7312 24.2573 16.6823C24.13 16.6173 24.0375 16.4837 23.9297 16.38C24.0454 16.2676 24.1438 16.1011 24.2812 16.0559C24.4541 15.9989 24.6595 16.0383 24.8512 16.0413C25.066 16.0449 25.2302 16.1208 25.2396 16.3683C25.2497 16.6312 25.0754 16.6881 24.8628 16.6932C24.7789 16.6954 24.6957 16.6932 24.6118 16.6932V16.6903L24.611 16.6918Z" fill="#851739"/>
</g>
<defs>
<clipPath id="clip0_1_17489">
<rect width="30" height="32" fill="white"/>
</clipPath>
</defs>
</svg>
