<svg width="33" height="32" viewBox="0 0 33 32" fill="none" xmlns="http://www.w3.org/2000/svg">
<g clip-path="url(#clip0_1_17517)">
<path d="M16.1277 15.0696C15.9148 14.9789 15.7172 14.9012 15.5244 14.813C13.8358 14.0413 12.957 12.685 12.7265 10.8632C12.5465 9.43725 12.9988 8.14575 13.5884 6.89231C14.0873 5.8332 14.6384 4.79919 15.1332 3.73765C15.575 2.78866 15.8361 1.7919 15.7999 0.726315C15.7774 0.0639666 16.2008 -0.196762 16.7639 0.158704C17.1664 0.412955 17.5504 0.731173 17.8596 1.09312C19.8783 3.44939 21.207 6.14413 21.4585 9.27125C21.6818 12.0551 20.2744 14.2891 17.6548 15.0996C18.0797 16.1903 18.7393 17.0955 19.6815 17.7838C21.6585 19.2267 23.8901 19.9198 26.3088 20.0648C27.6231 20.1433 28.9349 20.119 30.2186 19.8138C30.7158 19.6955 31.1865 19.4445 31.6541 19.2227C31.9103 19.1012 31.9216 18.8802 31.6822 18.7223C31.3826 18.5247 31.0773 18.2907 30.7407 18.204C29.2795 17.8275 27.8199 17.4089 26.3337 17.1741C24.0106 16.8081 21.6657 16.5789 19.3176 16.2583C19.6285 16.23 19.9386 16.1935 20.2503 16.1749C23.4434 15.987 26.6173 16.1263 29.7422 16.8542C30.4764 17.0251 31.205 17.3045 31.8758 17.6526C32.9064 18.1879 33.1225 18.7619 32.9426 19.919C32.6277 21.9474 31.8236 23.77 30.6234 25.4113C28.0625 28.9158 24.5528 30.8704 20.3635 31.6324C17.2989 32.1895 14.2359 32.132 11.209 31.3239C7.83752 30.4243 4.97533 28.6955 2.78309 25.9344C1.30982 24.081 0.349062 21.9862 0.022918 19.6081C-0.0919555 18.7684 0.229369 18.1968 0.888887 17.7644C1.81671 17.1563 2.87146 16.8842 3.93745 16.6874C7.23263 16.0794 10.5575 16.0024 13.8937 16.1943C13.9596 16.1984 14.0254 16.2073 14.0889 16.2227C14.1066 16.2267 14.1162 16.2632 14.1572 16.3279C13.1948 16.4138 12.2549 16.485 11.3183 16.5846C8.32674 16.9036 5.32236 17.153 2.44088 18.115C2.12599 18.2202 1.81832 18.3652 1.53154 18.5336C1.02947 18.8283 1.01501 19.1231 1.55483 19.349C2.21435 19.6251 2.91243 19.8769 3.61532 19.966C6.5466 20.3377 9.38631 19.966 12.0597 18.6494C13.7202 17.8324 15.1549 16.7304 16.1285 15.0696H16.1277ZM2.55897 23.7725C2.7108 24.0219 2.8096 24.1951 2.91885 24.3619C4.4106 26.6251 6.41004 28.3004 8.86255 29.3879C13.1088 31.2713 17.4981 31.3919 21.9268 30.1887C25.0637 29.3368 27.6697 27.6024 29.6651 24.9895C29.9398 24.6291 30.168 24.2332 30.4579 23.7911C25.1882 24.7571 20.6447 23.4032 16.6306 20.0753C12.4831 23.2721 7.89536 24.813 2.55977 23.7717L2.55897 23.7725ZM1.22467 20.3474C1.18932 20.3684 1.15478 20.3895 1.11944 20.4105C1.4512 21.2729 1.77494 22.1385 2.12599 22.9927C2.17258 23.1069 2.35573 23.2283 2.48105 23.2348C3.75912 23.3028 5.04682 23.4632 6.31686 23.3781C10.041 23.1296 13.3683 21.8081 16.2225 19.349C16.5213 19.0915 16.7446 19.1101 17.0587 19.3628C17.8299 19.9838 18.5971 20.63 19.443 21.1336C22.4907 22.9506 25.7939 23.6972 29.3301 23.3789C30.8556 23.2413 30.8628 23.2575 31.3978 21.7992C31.5689 21.3336 31.6999 20.8534 31.8613 20.3417C31.4251 20.481 31.0741 20.6162 30.7118 20.7061C27.8223 21.4211 24.9697 21.2186 22.1822 20.2332C19.8888 19.4219 17.9247 18.1595 16.8708 15.8089C13.9081 20.6648 5.61717 22.2389 1.22467 20.3482V20.3474ZM17.8821 14.0016C18.8308 13.5409 19.5988 12.8543 20.0478 11.8324C20.5507 10.6883 20.562 9.50121 20.3274 8.30283C19.9201 6.21943 19.0268 4.34818 17.8042 2.63239C17.515 2.22672 17.1704 1.86073 16.7824 1.39352C16.7237 2.73927 16.2329 3.81134 15.7357 4.88502C15.1147 6.2251 14.4536 7.55061 13.921 8.9255C13.4663 10.1004 13.6487 11.2923 14.2576 12.3943C14.7653 13.3126 15.5557 13.8664 16.5591 14.1247C16.5984 14.0777 16.6322 14.0518 16.6474 14.017C16.6892 13.9182 16.7262 13.817 16.7599 13.715C17.1471 12.5433 17.2395 11.3466 17.0515 10.1279C17.0065 9.83563 17.078 9.60405 17.3929 9.54656C17.7086 9.48907 17.9641 9.60486 18.0211 9.95061C18.0974 10.4146 18.2123 10.8883 18.1842 11.3498C18.1319 12.2259 17.9906 13.0972 17.8821 14.0008V14.0016Z" fill="#851739"/>
<path d="M28.0401 6.35058C26.9275 6.55706 26.2504 7.13519 26.1339 8.33277C25.9957 7.1773 25.3547 6.57001 24.2461 6.34572C25.4262 6.21698 25.9933 5.54167 26.1515 4.40564C26.2977 5.55301 26.8416 6.24127 28.0401 6.35058Z" fill="#851739"/>
<path d="M24.1398 12.0664C24.09 11.3725 23.7077 11.128 23.1445 10.9871C23.7542 10.9126 24.0796 10.5846 24.1896 9.98706C24.2965 10.5539 24.5953 10.9085 25.2396 10.9741C24.7265 11.2105 24.3599 11.5746 24.1398 12.0664Z" fill="#851739"/>
</g>
<defs>
<clipPath id="clip0_1_17517">
<rect width="33" height="32" fill="white"/>
</clipPath>
</defs>
</svg>
