<svg width="62" height="12" viewBox="0 0 62 12" fill="none" xmlns="http://www.w3.org/2000/svg">
<path d="M6.00016 8.635L8.07516 9.89001C8.45516 10.12 8.92016 9.78 8.82016 9.35001L8.27016 6.99L10.1052 5.40001C10.4402 5.11001 10.2602 4.56001 9.82016 4.52501L7.40516 4.32001L6.46016 2.09C6.29016 1.685 5.71016 1.685 5.54016 2.09L4.59516 4.31501L2.18016 4.52C1.74016 4.55501 1.56016 5.10501 1.89516 5.395L3.73016 6.985L3.18016 9.34501C3.08016 9.775 3.54516 10.115 3.92516 9.885L6.00016 8.635Z" fill="#FBBC05"/>
<path d="M18.5003 8.635L20.7482 9.89001C21.1598 10.12 21.6636 9.78 21.5553 9.35001L20.9594 6.99L22.9473 5.40001C23.3103 5.11001 23.1153 4.56001 22.6386 4.52501L20.0223 4.32001L18.9986 2.09C18.8144 1.685 18.1861 1.685 18.0019 2.09L16.9782 4.31501L14.3619 4.52C13.8853 4.55501 13.6903 5.10501 14.0532 5.395L16.0411 6.985L15.4453 9.34501C15.3369 9.775 15.8407 10.115 16.2523 9.885L18.5003 8.635Z" fill="#FBBC05"/>
<path d="M31.0002 8.635L33.0752 9.89001C33.4552 10.12 33.9202 9.78 33.8202 9.35001L33.2702 6.99L35.1052 5.40001C35.4402 5.11001 35.2602 4.56001 34.8202 4.52501L32.4052 4.32001L31.4602 2.09C31.2902 1.685 30.7102 1.685 30.5402 2.09L29.5952 4.31501L27.1802 4.52C26.7402 4.55501 26.5602 5.10501 26.8952 5.395L28.7302 6.985L28.1802 9.34501C28.0802 9.775 28.5452 10.115 28.9252 9.885L31.0002 8.635Z" fill="#FBBC05"/>
<path d="M43.0002 8.635L45.0752 9.89001C45.4552 10.12 45.9202 9.78001 45.8202 9.35001L45.2702 6.99L47.1052 5.40001C47.4402 5.11001 47.2602 4.56001 46.8202 4.52501L44.4052 4.32001L43.4602 2.09C43.2902 1.685 42.7102 1.685 42.5402 2.09L41.5952 4.31501L39.1802 4.52C38.7402 4.555 38.5602 5.105 38.8952 5.395L40.7302 6.985L40.1802 9.34501C40.0802 9.77501 40.5452 10.115 40.9252 9.885L43.0002 8.635Z" fill="#FBBC05"/>
<g clip-path="url(#clip0_140_22576)">
<path d="M59.644 4.52L57.0223 4.31L55.9986 2.085C55.8144 1.68 55.1861 1.68 55.0019 2.085L53.9782 4.315L51.3619 4.52C50.8853 4.555 50.6903 5.105 51.0532 5.395L53.0411 6.985L52.4453 9.345C52.3369 9.775 52.8407 10.115 53.2523 9.885L55.5003 8.635L57.7482 9.89C58.1598 10.12 58.6636 9.78 58.5553 9.35L57.9594 6.985L59.9473 5.395C60.3103 5.105 60.1207 4.555 59.644 4.52ZM55.5003 7.7V3.05L56.4265 5.07L58.799 5.26L57.0007 6.7L57.5423 8.84L55.5003 7.7Z" fill="#FBBC05"/>
</g>
<defs>
<clipPath id="clip0_140_22576">
<rect width="13" height="12" fill="white" transform="translate(49)"/>
</clipPath>
</defs>
</svg>
