<svg width="26" height="32" viewBox="0 0 26 32" fill="none" xmlns="http://www.w3.org/2000/svg">
<g clip-path="url(#clip0_1_17526)">
<path d="M0.00188042 16.0487C0.00188042 11.6818 0.00501121 7.31555 1.94271e-06 2.94867C-0.00187653 1.34114 1.35877 0 3.01997 0C9.36358 0.000616618 15.7072 0.00308309 22.0508 0.0067828C22.4779 0.0067828 22.9099 -0.0160321 23.3301 0.0394635C24.9549 0.255896 26.0006 1.4509 26.0006 3.05596C26 11.7176 26.0006 20.3786 25.9975 29.0402C25.9975 30.7402 24.6819 32.0006 22.95 32C16.3039 31.9963 9.6585 31.9994 3.01245 32.0006C1.58857 32.0006 0.405753 31.0886 0.087038 29.7284C0.0432069 29.5403 0.0244221 29.3424 0.023796 29.1488C0.020039 24.7819 0.0212913 20.4156 0.0212913 16.0487C0.0150298 16.0487 0.00876817 16.0487 0.00188042 16.0487ZM25.1409 6.21736C25.1409 5.25358 25.144 4.20657 25.1403 3.15893C25.1347 1.75489 24.2054 0.847233 22.7834 0.84785C16.2194 0.849699 9.65537 0.851549 3.09135 0.852782C1.82776 0.852782 0.857214 1.81409 0.857214 3.06582C0.858466 7.22799 0.85784 11.3902 0.859718 15.5517C0.860971 20.0222 0.863475 24.4921 0.865354 28.9625C0.865354 29.7111 1.16027 30.3105 1.77391 30.7649C2.21974 31.0948 2.72567 31.1509 3.2554 31.1509C6.35489 31.1497 9.45438 31.1509 12.5532 31.1515C16.0178 31.1515 19.4823 31.1558 22.9469 31.1515C24.196 31.1503 25.1409 30.2044 25.1409 28.978C25.1409 21.877 25.1428 14.7754 25.1434 7.67443C25.1434 7.56713 25.1434 7.46046 25.1434 7.29829C25.0351 7.38153 24.9756 7.41853 24.9268 7.46601C23.6801 8.67951 22.4321 9.89117 21.1949 11.1139C21.1235 11.1848 21.1022 11.3489 21.1216 11.4586C21.2412 12.1252 20.8179 12.7652 20.1773 12.8589C19.4222 12.9699 18.8123 12.5075 18.7359 11.7885C18.724 11.6744 18.6307 11.5308 18.5318 11.4716C18.23 11.2903 17.9119 11.1312 17.5882 10.9906C17.4905 10.948 17.3302 10.9554 17.2369 11.0079C16.932 11.178 16.6145 11.2755 16.2795 11.1682C16.0879 11.1065 15.9977 11.1737 15.8825 11.294C14.4762 12.7689 13.0686 14.2439 11.6522 15.7096C11.49 15.8773 11.4481 16.021 11.5013 16.2491C11.6484 16.8774 11.2752 17.446 10.6409 17.6149C10.0104 17.7826 9.29345 17.4639 9.17887 16.8528C9.09934 16.4285 8.84512 16.3176 8.5358 16.185C8.373 16.1153 8.21834 16.0228 8.0499 15.9741C7.95159 15.9457 7.81008 15.9482 7.72868 15.9988C7.25593 16.2929 6.66296 16.2978 6.24093 15.9476C6.07813 15.8125 5.96542 15.8366 5.80074 15.9087C4.92537 16.2941 4.04687 16.6733 3.16586 17.047C2.83838 17.1864 2.59355 17.1148 2.50025 16.8768C2.4007 16.6234 2.53344 16.3885 2.85028 16.2553C3.76134 15.8724 4.67365 15.4938 5.58033 15.101C5.67238 15.0609 5.77006 14.945 5.79072 14.8488C5.91658 14.2507 6.31982 13.8739 6.91655 13.827C7.43877 13.7863 8.09937 14.1372 8.16574 14.6527C8.23024 15.1485 8.54958 15.2391 8.88395 15.3932C8.99728 15.4457 9.115 15.4901 9.2227 15.5523C9.38112 15.6442 9.4957 15.6276 9.66978 15.5345C9.89582 15.4136 10.1939 15.3069 10.4312 15.3513C10.7699 15.4148 10.9296 15.2564 11.1074 15.0572C11.1557 15.0035 11.1932 14.94 11.2427 14.8882C12.5163 13.5594 13.7843 12.2257 15.0723 10.9104C15.3202 10.657 15.4448 10.4449 15.3716 10.0675C15.2582 9.48112 15.7448 8.90889 16.3503 8.81085C16.9952 8.70603 17.6621 9.07538 17.7209 9.6809C17.7635 10.1218 18.0058 10.2667 18.3321 10.4122C18.55 10.5096 18.7572 10.636 18.9814 10.7144C19.0891 10.752 19.2281 10.7199 19.3496 10.6983C19.6201 10.6502 19.9031 10.509 20.1536 10.5546C20.4428 10.6077 20.5906 10.5152 20.7684 10.3394C22.0057 9.11669 23.2462 7.89702 24.4941 6.68475C24.665 6.51888 24.8836 6.40049 25.139 6.21797L25.1409 6.21736ZM17.1173 9.98859C17.1198 9.70988 16.8462 9.42377 16.5688 9.41575C16.3002 9.40835 16.0109 9.69262 16.0034 9.97194C15.9959 10.2445 16.2745 10.5337 16.5538 10.5423C16.8249 10.5509 17.1142 10.2667 17.1173 9.98798V9.98859ZM7.01987 14.4566C6.75814 14.4474 6.49202 14.7168 6.48325 14.9992C6.47449 15.2779 6.74687 15.5641 7.02989 15.5739C7.29162 15.5832 7.56463 15.3088 7.56839 15.0331C7.57214 14.7587 7.2935 14.4665 7.01987 14.4566ZM19.9526 12.2479C20.2118 12.2491 20.5199 11.9316 20.5105 11.6732C20.5017 11.4309 20.2231 11.1756 19.9594 11.1682C19.6852 11.1608 19.4103 11.4265 19.4103 11.6991C19.4103 11.9605 19.6927 12.246 19.9526 12.2473V12.2479ZM10.3216 17.0125C10.5927 17.0094 10.8651 16.7325 10.857 16.468C10.8488 16.1967 10.5739 15.9346 10.3034 15.9408C10.0323 15.947 9.76558 16.2183 9.76683 16.4871C9.76808 16.7492 10.0492 17.0156 10.3216 17.0125Z" fill="#851739"/>
<path d="M18.7422 21.8424C18.7422 19.7466 18.7422 17.6507 18.7422 15.5548C18.7422 14.908 19.0296 14.6218 19.6983 14.6188C20.4284 14.6151 21.1592 14.6169 21.8893 14.6175C22.5323 14.6181 22.8542 14.9215 22.8561 15.561C22.8629 17.9651 22.8636 20.3693 22.8642 22.7735C22.8642 24.5303 22.8636 26.2876 22.8604 28.0444C22.8592 28.6332 22.7753 28.7097 22.166 28.7097C21.2268 28.7097 20.2882 28.7097 19.3489 28.7097C18.8148 28.7097 18.7447 28.64 18.7453 28.0999C18.7453 26.0145 18.7453 23.9285 18.7453 21.8431H18.7422V21.8424ZM21.9857 27.8588V15.4728H19.6075V27.8588H21.9857Z" fill="#851739"/>
<path d="M13.6018 23.7262C13.6018 22.3086 13.5993 20.891 13.6031 19.4728C13.605 18.633 13.8341 18.4091 14.6751 18.4091C15.3739 18.4091 16.0733 18.4085 16.7721 18.4135C17.3669 18.4178 17.6944 18.7495 17.6944 19.3347C17.6931 22.2624 17.6931 25.1907 17.6919 28.1184C17.6919 28.6142 17.593 28.7085 17.0883 28.7085C16.0971 28.7085 15.1059 28.7097 14.1153 28.7085C13.7045 28.7079 13.5993 28.6049 13.5987 28.1949C13.5968 26.7051 13.5981 25.2154 13.5981 23.7262H13.6024H13.6018ZM16.8278 19.2391C16.1271 19.2391 15.4709 19.2558 14.8166 19.2317C14.5104 19.2206 14.4365 19.3162 14.4377 19.6085C14.449 22.2266 14.4453 24.8454 14.4459 27.4636C14.4459 27.5456 14.4265 27.6368 14.4565 27.7071C14.4847 27.7731 14.5661 27.8637 14.625 27.8644C15.3513 27.8748 16.0777 27.8711 16.8278 27.8711V19.2385V19.2391Z" fill="#851739"/>
<path d="M7.42541 25.0464C7.42541 26.0934 7.42729 27.1404 7.42479 28.1874C7.42353 28.6049 7.30832 28.7122 6.88441 28.7116C5.87316 28.7103 4.86254 28.7097 3.8513 28.7085C3.43991 28.7085 3.32031 28.6018 3.32031 28.2053C3.32156 26.0909 3.3247 23.9766 3.33346 21.8622C3.33597 21.3393 3.66157 21.0236 4.19819 21.018C4.99028 21.01 5.78237 21.0106 6.57446 21.0168C7.0973 21.0211 7.42604 21.3535 7.42792 21.8745C7.4323 22.932 7.42917 23.9889 7.42917 25.0464H7.42479H7.42541ZM4.20883 21.8634V27.8551H6.5563V21.8634H4.20883Z" fill="#851739"/>
<path d="M8.47765 25.8628C8.47765 25.0815 8.47451 24.3009 8.4789 23.5196C8.4814 23.0146 8.75503 22.7291 9.26473 22.7224C10.0888 22.7119 10.9134 22.7113 11.7381 22.7193C12.2396 22.7242 12.5546 23.0442 12.5564 23.5363C12.5608 25.0877 12.5602 26.6397 12.5589 28.1911C12.5589 28.5771 12.4218 28.7085 12.0349 28.7091C11.0123 28.7091 9.98982 28.7103 8.96668 28.7091C8.58785 28.7085 8.48266 28.608 8.48078 28.2362C8.47702 27.445 8.47952 26.6539 8.47952 25.8622H8.47827L8.47765 25.8628ZM9.33736 23.561V27.8582H11.6748V23.561H9.33736Z" fill="#851739"/>
<path d="M7.97125 5.45152C9.1071 5.45152 10.2436 5.4472 11.3794 5.45768C11.5228 5.45892 11.7169 5.499 11.7952 5.59457C11.8829 5.70125 11.9342 5.9257 11.8766 6.03669C11.8134 6.15939 11.6124 6.27655 11.4665 6.28272C10.8109 6.30862 10.154 6.2932 9.4972 6.29382C7.83975 6.29567 6.18294 6.30553 4.52549 6.29012C4.36081 6.28827 4.14917 6.16803 4.05087 6.03669C3.98512 5.94851 4.0302 5.69878 4.11786 5.60197C4.20866 5.50146 4.40965 5.45892 4.56306 5.45768C5.69892 5.44658 6.83539 5.45152 7.97125 5.45152Z" fill="#851739"/>
<path d="M6.75644 8.79421C7.48529 8.79421 8.21414 8.79236 8.94362 8.79483C9.30491 8.79606 9.48024 8.93233 9.48587 9.2055C9.49151 9.48297 9.29301 9.64083 8.93172 9.64083C7.48404 9.64083 6.03636 9.63898 4.58931 9.63836C4.54735 9.63836 4.50603 9.64021 4.46408 9.63713C4.15726 9.61493 3.98882 9.46078 3.99633 9.21105C4.00385 8.95947 4.17479 8.79545 4.47597 8.79236C5.23613 8.78435 5.99629 8.7899 6.75644 8.7899V8.79483V8.79421Z" fill="#851739"/>
</g>
<defs>
<clipPath id="clip0_1_17526">
<rect width="26" height="32" fill="white"/>
</clipPath>
</defs>
</svg>
