<svg width="33" height="40" viewBox="0 0 33 40" fill="none" xmlns="http://www.w3.org/2000/svg">
<path d="M32.4858 7.56972L16.9014 0.0889072C16.6522 -0.0296357 16.361 -0.0296357 16.1119 0.0889072L0.517019 7.54792C0.207295 7.69235 0.0069679 7.99518 0 8.33105V22.6019C0 24.3763 0.592272 26.4215 1.63955 28.3594C2.68822 30.3003 4.10131 31.9211 5.60498 32.9236L15.9934 39.8485C16.2976 40.0505 16.6972 40.0505 17.0013 39.8485L27.402 32.9236C30.532 30.8372 33 26.3033 33 22.6019V8.35217C32.9934 8.01732 32.7944 7.71449 32.4858 7.56972ZM31.2162 22.6019C31.2162 24.1051 30.6971 25.8635 29.7833 27.5524C28.8694 29.2413 27.6598 30.6359 26.3899 31.4827L16.5038 38.0724L6.60383 31.4827C4.00062 29.7471 1.78378 25.6802 1.78378 22.6019V8.87505L16.4993 1.84321L31.2162 8.89549V22.6019Z" fill="white"/>
<path d="M5.21875 19.9997C5.21875 26.091 10.2687 31.0286 16.4987 31.0286C22.7284 31.0286 27.7787 26.091 27.7787 19.9997C27.7787 13.9087 22.7284 8.97107 16.4987 8.97107C10.2719 8.97788 5.22572 13.9114 5.21875 19.9997ZM16.4987 10.7152C21.7431 10.7152 25.995 14.872 25.995 19.9997C25.995 25.1277 21.7431 29.2845 16.4987 29.2845C11.254 29.2845 7.00253 25.1277 7.00253 19.9997C7.00846 14.8744 11.2564 10.7209 16.4987 10.7152Z" fill="white"/>
<path d="M14.9976 19.7381H12.9856C12.6191 19.7418 12.2913 19.9622 12.1568 20.2957C12.0223 20.6288 12.1077 21.0086 12.3728 21.2563L17.4022 25.905C17.7597 26.2358 18.3238 26.2204 18.662 25.871C19.0003 25.5215 18.985 24.97 18.6272 24.6392L15.2213 21.4763C16.9577 21.384 18.4203 20.1758 18.8031 18.5172H20.0177C20.5103 18.5172 20.9095 18.1268 20.9095 17.6452C20.9095 17.1638 20.5103 16.7731 20.0177 16.7731H18.8024C18.7025 16.3661 18.5237 15.9811 18.2757 15.6395H20.0173C20.5099 15.6395 20.9092 15.2491 20.9092 14.7674C20.9092 14.2861 20.5099 13.8954 20.0173 13.8954H12.9856C12.493 13.8954 12.0938 14.2861 12.0938 14.7674C12.0938 15.2491 12.493 15.6395 12.9856 15.6395H14.9976C15.8512 15.6395 16.5884 16.0755 16.926 16.7731H12.9856C12.493 16.7731 12.0938 17.1638 12.0938 17.6452C12.0938 18.1268 12.493 18.5172 12.9856 18.5172H16.926C16.5884 19.302 15.8512 19.7381 14.9976 19.7381Z" fill="white"/>
</svg>
