<svg width="29" height="32" viewBox="0 0 29 32" fill="none" xmlns="http://www.w3.org/2000/svg">
<g clip-path="url(#clip0_1_17562)">
<path d="M18.2366 7.62505C19.1504 7.62505 20.0312 7.62271 20.9128 7.62505C22.234 7.62974 23.1892 8.53263 23.2882 9.87643C23.4256 11.7423 23.556 13.609 23.6987 15.4748C23.7071 15.5825 23.7685 15.7355 23.8506 15.78C24.555 16.1608 24.9148 16.7328 24.8365 17.6294C25.2846 17.6294 25.712 17.6333 26.1394 17.6287C26.6588 17.6232 27.1 17.8121 27.4099 18.2296C27.5649 18.4387 27.7038 18.704 27.7345 18.9584C28.1542 22.4264 28.5554 25.8967 28.9559 29.3678C29.0388 30.0889 29.0603 30.7982 28.4856 31.3703C28.0805 31.7737 27.6094 31.986 27.0432 31.986C20.8292 31.9829 14.6159 31.9797 8.40191 31.9774C6.93185 31.9774 5.45795 31.9165 3.99172 31.9946C1.70146 32.1155 -0.3663 30.3378 0.0549238 27.4231C0.448527 24.6996 0.677169 21.9512 0.98177 19.2144C1.24494 16.8522 1.51271 14.49 1.77742 12.1278C1.86411 11.3537 1.95312 10.5795 2.03138 9.80464C2.16181 8.5061 3.10554 7.63364 4.39836 7.62818C5.43416 7.62427 6.46996 7.61491 7.50499 7.62505C7.75665 7.6274 7.85409 7.5556 7.89782 7.29106C8.14565 5.78571 8.54922 4.32486 9.18911 2.93891C9.6886 1.85731 10.3569 0.917744 11.4472 0.380067C13.1297 -0.449471 15.0387 0.112398 16.1673 1.75743C17.1448 3.18161 17.6343 4.80322 17.9995 6.474C18.0793 6.84078 18.1514 7.2099 18.2374 7.62584L18.2366 7.62505ZM17.5169 31.0948C17.4394 30.8185 17.3213 30.5868 17.319 30.3534C17.3144 29.84 17.3451 29.3233 17.4026 28.813C17.7701 25.5869 18.1468 22.3616 18.5243 19.1371C18.6371 18.1734 19.2409 17.6341 20.2 17.6263C20.6197 17.6232 21.0394 17.6263 21.4867 17.6263C21.4361 16.5915 21.8949 15.947 22.8509 15.6848C22.8509 15.6098 22.854 15.5583 22.8509 15.5068C22.7143 13.6168 22.587 11.7251 22.435 9.83585C22.3806 9.15927 21.865 8.54668 21.2258 8.50376C20.2875 8.44211 19.343 8.48815 18.3732 8.48815C18.4146 8.83854 18.4614 9.15693 18.4875 9.47688C18.509 9.74143 18.598 9.89984 18.8681 10.0146C19.4665 10.2697 19.7696 11.0134 19.5893 11.6448C19.4013 12.305 18.7737 12.7365 18.0954 12.6725C17.3566 12.6031 16.8195 12.0857 16.7673 11.4021C16.7121 10.6724 17.0711 10.1979 17.6911 9.87331C17.6274 9.40509 17.566 8.94857 17.5046 8.49205H8.5592C8.50779 8.88848 8.43797 9.26072 8.42186 9.63452C8.41649 9.76172 8.51086 9.94433 8.61674 10.0161C9.19909 10.4149 9.44308 11.0759 9.22518 11.7501C9.0372 12.3315 8.37889 12.7443 7.7367 12.6842C7.07609 12.6226 6.54208 12.1348 6.43773 11.4988C6.32725 10.8222 6.66637 10.2346 7.31547 9.94355C7.41138 9.90062 7.52494 9.78903 7.54182 9.69304C7.60857 9.30286 7.64079 8.90643 7.69066 8.46864C6.60499 8.46864 5.55922 8.4663 4.51269 8.46864C3.52446 8.47176 2.93904 9.0188 2.83623 10.0099C2.69889 11.3404 2.55695 12.6709 2.40963 14.0007C1.89634 18.6486 1.37537 23.2965 0.867449 27.9452C0.676402 29.694 1.93624 31.0971 3.67561 31.0971C8.16329 31.0971 12.6502 31.0948 17.1379 31.0932C17.2607 31.0932 17.3826 31.0932 17.5169 31.0932V31.0948ZM21.4568 18.4754C20.998 18.4754 20.5507 18.4621 20.1049 18.4793C19.712 18.4949 19.4404 18.7399 19.356 19.1402C19.3085 19.3681 19.297 19.6038 19.2701 19.8356C18.8773 23.1514 18.4821 26.4664 18.0939 29.783C18.0011 30.5774 18.5136 31.1455 19.3008 31.1455C21.8327 31.1455 24.3647 31.1455 26.8966 31.144C27.7897 31.144 28.2585 30.5907 28.1534 29.6932C27.9102 27.6167 27.6762 25.5385 27.4352 23.4612C27.2741 22.0674 27.1046 20.6745 26.9473 19.2807C26.9012 18.8718 26.7133 18.5526 26.3174 18.505C25.8301 18.4465 25.3314 18.491 24.8435 18.491C24.6915 19.9027 24.1775 20.5168 23.1731 20.5231C22.1527 20.5293 21.6586 19.9542 21.4568 18.4761V18.4754ZM17.3757 7.59774C17.2706 7.11001 17.1916 6.67768 17.0827 6.25316C16.755 4.98193 16.3798 3.72475 15.6908 2.59711C15.2428 1.86356 14.6704 1.25877 13.8249 1.00437C12.5919 0.633688 11.3213 1.15186 10.5088 2.36222C9.57428 3.75362 9.1684 5.35261 8.79781 6.96252C8.75255 7.15995 8.7326 7.36285 8.695 7.59774H17.3765H17.3757ZM24.001 18.1203C24.001 18.1203 23.9956 18.1203 23.9926 18.1203C23.9926 17.8745 23.9987 17.6279 23.991 17.3821C23.9765 16.9068 23.6197 16.5377 23.1731 16.5268C22.7381 16.5166 22.3153 16.9271 22.3054 17.3891C22.2954 17.8682 22.2962 18.3474 22.3054 18.8265C22.3138 19.2909 22.7128 19.6662 23.1823 19.6678C23.6097 19.6693 23.978 19.3104 23.9987 18.8578C24.0102 18.6119 24.001 18.3661 24.001 18.1195V18.1203ZM7.37148 10.969C7.15742 11.1968 7.24105 11.4528 7.46816 11.669C7.68759 11.8773 7.9523 11.9093 8.19322 11.6994C8.42876 11.4941 8.53004 11.2475 8.37045 11.0228C8.17097 11.1149 7.99987 11.2546 7.82877 11.2546C7.68913 11.2546 7.54949 11.0876 7.37148 10.969ZM17.7387 10.9791C17.5653 11.2554 17.5975 11.502 17.886 11.7103C18.1422 11.8953 18.3824 11.8687 18.6011 11.6354C18.8282 11.3927 18.8282 11.2234 18.6617 11.0337C18.4944 11.1274 18.344 11.2819 18.2082 11.2694C18.054 11.2554 17.9121 11.0938 17.7394 10.9791H17.7387Z" fill="#851739"/>
</g>
<defs>
<clipPath id="clip0_1_17562">
<rect width="29" height="32" fill="white"/>
</clipPath>
</defs>
</svg>
