<svg width="12" height="11" viewBox="0 0 12 11" fill="none" xmlns="http://www.w3.org/2000/svg">
<path d="M4.58215 0.690965C4.8815 -0.230346 6.18491 -0.230344 6.48426 0.690967L7.1048 2.6008C7.23868 3.01282 7.62263 3.29178 8.05586 3.29178H10.064C11.0327 3.29178 11.4355 4.5314 10.6518 5.1008L9.02716 6.28114C8.67667 6.53578 8.53001 6.98715 8.66389 7.39917L9.28443 9.309C9.58378 10.2303 8.5293 10.9964 7.74559 10.427L6.12099 9.24669C5.7705 8.99205 5.29591 8.99205 4.94542 9.24669L3.32082 10.427C2.5371 10.9964 1.48263 10.2303 1.78198 9.309L2.40252 7.39917C2.53639 6.98715 2.38974 6.53578 2.03925 6.28114L0.414648 5.1008C-0.369066 4.53139 0.0337112 3.29178 1.00243 3.29178H3.01055C3.44378 3.29178 3.82773 3.01282 3.96161 2.6008L4.58215 0.690965Z" fill="#E4A70A"/>
</svg>
