<svg width="34" height="34" viewBox="0 0 34 34" fill="none" xmlns="http://www.w3.org/2000/svg">
<g clip-path="url(#clip0_1_19873)">
<path d="M10.6844 30.8135C23.4974 30.8135 30.5075 20.1839 30.5075 10.9687C30.5075 10.6698 30.5009 10.3644 30.4876 10.0655C31.8513 9.07827 33.0281 7.8554 33.9628 6.45438C32.6928 7.02005 31.3443 7.3895 29.9636 7.55008C31.4174 6.67766 32.506 5.30712 33.0275 3.69254C31.6598 4.50399 30.164 5.0764 28.6044 5.38524C27.5535 4.26742 26.1641 3.52729 24.6509 3.27928C23.1377 3.03127 21.5851 3.28919 20.233 4.01317C18.8809 4.73716 17.8047 5.88687 17.1708 7.28456C16.5369 8.68225 16.3806 10.2501 16.726 11.7456C13.9566 11.6065 11.2473 10.8863 8.7737 9.63168C6.30014 8.37707 4.11756 6.61607 2.36745 4.46285C1.47795 5.99813 1.20576 7.81487 1.6062 9.54383C2.00664 11.2728 3.04967 12.7843 4.52329 13.771C3.41698 13.7359 2.33491 13.4377 1.36647 12.9011V12.9874C1.36548 14.5986 1.92187 16.1604 2.94105 17.4073C3.96024 18.6542 5.37932 19.5093 6.95707 19.8273C5.93225 20.108 4.85666 20.1489 3.81352 19.9468C4.25873 21.3324 5.12495 22.5443 6.29129 23.4133C7.45762 24.2824 8.86588 24.7652 10.3195 24.7945C7.85167 26.7351 4.80315 27.7877 1.66497 27.7827C1.10844 27.7819 0.55246 27.7477 0 27.6805C3.18806 29.728 6.89662 30.8155 10.6844 30.8135Z" fill="#851739"/>
</g>
<defs>
<clipPath id="clip0_1_19873">
<rect width="33.9628" height="34" fill="white"/>
</clipPath>
</defs>
</svg>
