<svg width="40" height="40" viewBox="0 0 40 40" fill="none" xmlns="http://www.w3.org/2000/svg">
<g clip-path="url(#clip0_1_17422)">
<g clip-path="url(#clip1_1_17422)">
<g clip-path="url(#clip2_1_17422)">
<path d="M40 20C40 8.9543 31.0457 0 20 0C8.9543 0 0 8.9543 0 20C0 31.0457 8.9543 40 20 40C31.0457 40 40 31.0457 40 20Z" fill="#851739"/>
<path fill-rule="evenodd" clip-rule="evenodd" d="M16.4804 15.7238C16.4804 13.9433 17.9238 12.5 19.7042 12.5C21.4847 12.5 22.928 13.9433 22.928 15.7238C22.928 17.5042 21.4847 18.9476 19.7042 18.9476C17.9238 18.9476 16.4804 17.5042 16.4804 15.7238ZM19.7042 11C17.0953 11 14.9804 13.1149 14.9804 15.7238C14.9804 18.3327 17.0953 20.4476 19.7042 20.4476C22.3131 20.4476 24.428 18.3327 24.428 15.7238C24.428 13.1149 22.3131 11 19.7042 11ZM13.5 26.9828C13.5 25.5502 14.6275 24.4214 15.9787 24.4214H23.4295C24.7807 24.4214 25.9082 25.5502 25.9082 26.9828V27.8886H13.5V26.9828ZM15.9787 22.9214C13.7635 22.9214 12 24.7578 12 26.9828V28.6386C12 29.0528 12.3358 29.3886 12.75 29.3886H26.6582C27.0725 29.3886 27.4082 29.0528 27.4082 28.6386V26.9828C27.4082 24.7578 25.6447 22.9214 23.4295 22.9214H15.9787Z" fill="white"/>
</g>
</g>
</g>
<defs>
<clipPath id="clip0_1_17422">
<rect width="40" height="40" fill="white"/>
</clipPath>
<clipPath id="clip1_1_17422">
<rect width="40" height="40" fill="white"/>
</clipPath>
<clipPath id="clip2_1_17422">
<rect width="40" height="40" fill="white"/>
</clipPath>
</defs>
</svg>
