<svg width="40" height="40" viewBox="0 0 40 40" fill="none" xmlns="http://www.w3.org/2000/svg">
<g clip-path="url(#clip0_140_9084)">
<path d="M37.6559 16.4568C37.0095 15.894 38.7551 17.414 37.6559 16.4568V16.4568Z" fill="white"/>
<path d="M37.6544 16.4568C36.9412 15.8356 36.01 15.1872 36.052 14.1448C36.0972 13.0328 36.5084 11.9604 36.652 10.86C36.7844 9.8456 36.7032 8.7572 35.9628 7.98C35.3052 7.2892 34.3364 7.0404 33.4228 6.9104C32.4 6.7648 31.2788 6.83 30.3 6.4684C29.3892 6.1312 29.0496 4.8664 28.7044 4.06C28.34 3.2088 27.9492 2.3164 27.2796 1.6556C26.512 0.897598 25.4696 0.693198 24.4436 0.991598C23.2728 1.3324 22.2908 2.1028 21.2196 2.6556C20.8252 2.8596 20.3616 3.092 19.904 3.054C19.37 3.0096 18.8568 2.7088 18.4008 2.4508C17.368 1.8668 16.3476 1.1088 15.1548 0.897198C14.1224 0.713998 13.1668 1.1056 12.4972 1.8948C11.8812 2.6208 11.5216 3.5272 11.1516 4.3932C10.7636 5.3028 10.4228 6.3112 9.37002 6.5664C7.57522 7.002 5.06322 6.5304 3.81842 8.2404C3.18562 9.1096 3.23122 10.234 3.40522 11.2436C3.58602 12.29 4.04242 13.406 3.93922 14.4784C3.84922 15.4136 2.71682 16.1272 2.07402 16.6928C1.34042 17.338 0.569224 18.046 0.199624 18.9736C-0.652776 21.1128 1.36042 22.6536 2.75762 23.9028C3.12082 24.228 3.51162 24.57 3.76722 24.9904C4.01522 25.3988 3.96202 25.9036 3.89562 26.3552C3.73362 27.4592 3.35962 28.5272 3.29842 29.6468C3.24282 30.6632 3.52002 31.674 4.36402 32.3092C5.12482 32.882 6.11482 33.0428 7.03802 33.1444C7.55442 33.2008 8.07322 33.2344 8.58882 33.2976C9.06602 33.356 9.64042 33.4124 10.042 33.7048C10.4056 33.9696 10.622 34.4432 10.81 34.8368C11.048 35.3352 11.25 35.8492 11.4752 36.3524C11.8484 37.1876 12.294 38.0624 13.044 38.622C13.9548 39.3016 15.0752 39.236 16.0832 38.8172C17.1964 38.3548 18.144 37.568 19.2604 37.1156C20.31 36.6912 21.22 37.3156 22.1108 37.8444C23.1036 38.4344 24.1828 39.1484 25.382 39.1484C26.3936 39.1484 27.2108 38.5564 27.7688 37.7516C28.3348 36.9352 28.6652 35.9876 29.0712 35.0892C29.2688 34.6516 29.4792 34.1712 29.8196 33.8236C30.152 33.4844 30.6852 33.4016 31.1336 33.3352C32.92 33.068 35.5188 33.2944 36.4312 31.3288C36.8784 30.3664 36.704 29.2436 36.4944 28.2444C36.3816 27.7036 36.2444 27.1688 36.1464 26.6256C36.064 26.1676 35.9524 25.6012 36.144 25.1552C36.4992 24.3292 37.4544 23.7256 38.1036 23.1444C38.7748 22.5436 39.4584 21.8756 39.7976 21.0232C40.5644 19.1 38.9716 17.6036 37.6544 16.4568ZM37.9784 20.1628C37.7908 20.9252 36.91 21.5376 36.3496 22.0236C36.5396 21.8588 36.6996 21.7188 36.3412 22.0308C35.5388 22.73 34.6376 23.4728 34.2536 24.5004C33.826 25.6432 34.148 26.9184 34.4068 28.0612C34.5544 28.7112 35.1076 30.244 34.3972 30.7364C34.0448 30.9808 33.5656 31.0464 33.1516 31.1052C32.5804 31.1856 32.004 31.2208 31.4304 31.2816C30.3956 31.3924 29.2892 31.5824 28.5004 32.3184C27.7156 33.0504 27.3128 34.1044 26.9012 35.07C26.6396 35.6824 26.1744 37.2248 25.292 37.1436C24.8032 37.0984 24.332 36.8184 23.9136 36.5828C23.3552 36.268 22.816 35.9212 22.25 35.6212C21.1964 35.0628 20.0976 34.7492 18.9248 35.114C17.7604 35.4764 16.7832 36.2384 15.708 36.7884C15.364 36.964 14.8392 37.2556 14.4368 37.122C14.0348 36.9916 13.7836 36.5032 13.6012 36.158C13.0884 35.1876 12.7728 34.1212 12.1924 33.1852C11.616 32.2548 10.8012 31.7032 9.73802 31.4632C8.66442 31.2212 7.55362 31.2524 6.47562 31.0436C6.13042 30.9764 5.65962 30.8852 5.43722 30.5796C5.18442 30.232 5.28802 29.6608 5.34802 29.2716C5.53002 28.0864 5.95202 26.9316 5.95002 25.7216C5.94802 24.5468 5.37962 23.646 4.56162 22.8472C3.78602 22.0892 2.75082 21.452 2.17682 20.5144C1.62522 19.6124 2.73202 18.782 3.33722 18.2472C4.15322 17.5256 5.08322 16.8228 5.59562 15.8364C6.15482 14.7588 5.93962 13.5088 5.69242 12.376C5.57242 11.8276 5.43362 11.2816 5.34842 10.726C5.28842 10.336 5.18442 9.7652 5.43762 9.4176C5.66002 9.112 6.13082 9.0208 6.47642 8.9536C7.03562 8.8452 7.60682 8.8072 8.17282 8.7544C9.21322 8.658 10.3496 8.544 11.2208 7.9104C12.0836 7.2824 12.5368 6.2436 12.9444 5.2928C13.1536 4.8044 13.3528 4.3096 13.6016 3.8396C13.784 3.4944 14.0352 3.0056 14.4372 2.8752C14.8432 2.7452 15.3608 3.0316 15.708 3.2092C16.2768 3.5004 16.814 3.8488 17.3688 4.1648C18.382 4.742 19.4888 5.2324 20.6772 4.9872C21.864 4.742 22.8768 3.9988 23.9136 3.414C24.332 3.178 24.8036 2.8984 25.2924 2.8532C25.732 2.8124 26.0112 3.1872 26.2196 3.5232C27.3336 5.3148 27.5756 7.7488 29.8928 8.4376C30.6916 8.6748 31.5328 8.726 32.358 8.8028C32.996 8.862 34.0372 8.8536 34.5168 9.3612C34.9576 9.8276 34.6412 10.8604 34.5272 11.3944C34.3252 12.3436 34.0492 13.2964 34.0512 14.2744C34.0544 16.1928 35.5892 17.266 36.8764 18.438C37.2996 18.8228 38.1428 19.4932 37.9784 20.1628Z" fill="white"/>
<path d="M26.0818 14.7608C23.5198 17.5532 20.9578 20.3452 18.3958 23.1376C18.3014 23.2408 18.2974 23.3096 18.1762 23.2376C17.8158 23.0252 17.4554 22.8124 17.095 22.6004C16.077 22.0008 15.0594 21.4008 14.0414 20.8008C13.6782 20.5868 13.331 20.3608 12.883 20.5016C12.0594 20.7596 11.9534 21.8924 12.6854 22.3236C13.457 22.7784 14.2282 23.2328 14.9998 23.6876C15.927 24.2336 16.8546 24.7804 17.7818 25.3268C18.373 25.6752 18.8942 25.5524 19.3434 25.0632C20.7306 23.5512 22.1178 22.0392 23.5046 20.5268C24.6154 19.3164 25.7262 18.1056 26.8366 16.8948C27.0706 16.64 27.3042 16.3852 27.5382 16.1304C28.4198 15.1696 26.9638 13.7984 26.0818 14.7608Z" fill="white"/>
</g>
<defs>
<clipPath id="clip0_140_9084">
<rect width="40" height="40" fill="white"/>
</clipPath>
</defs>
</svg>
