<svg width="32" height="32" viewBox="0 0 32 32" fill="none" xmlns="http://www.w3.org/2000/svg">
<path d="M18.1007 6.59961H3.50109C1.57549 6.59961 0 8.1751 0 10.1007V21.8994C0 23.825 1.57549 25.4005 3.50109 25.4005H18.1007C20.0263 25.4005 21.6017 23.825 21.6017 21.8994V10.1007C21.6017 8.14009 20.0263 6.59961 18.1007 6.59961Z" fill="white"/>
<path d="M29.4085 8.52514C29.1984 8.56015 28.9883 8.66519 28.8133 8.77022L23.3516 11.9212V20.0437L28.8483 23.1947C29.8636 23.7899 31.124 23.4398 31.7192 22.4245C31.8942 22.1094 31.9993 21.7593 31.9993 21.3742V10.5558C31.9993 9.26037 30.7739 8.21004 29.4085 8.52514Z" fill="white"/>
</svg>
