<svg width="32" height="32" viewBox="0 0 32 32" fill="none" xmlns="http://www.w3.org/2000/svg">
<path d="M29.393 23.3601C28.519 22.6271 23.393 19.3811 22.541 19.5301C22.141 19.6011 21.835 19.9421 21.016 20.9191C20.6373 21.4 20.2213 21.8504 19.772 22.2661C18.9488 22.0673 18.1519 21.7719 17.398 21.3861C14.4413 19.9466 12.0526 17.5573 10.614 14.6001C10.2282 13.8462 9.93286 13.0493 9.734 12.2261C10.1497 11.7768 10.6001 11.3609 11.081 10.9821C12.057 10.1631 12.399 9.85912 12.47 9.45712C12.619 8.60312 9.37 3.47912 8.64 2.60512C8.334 2.24312 8.056 2.00012 7.7 2.00012C6.668 2.00012 2 7.77212 2 8.52012C2 8.58112 2.1 14.5901 9.689 22.3111C17.41 29.9001 23.419 30.0001 23.48 30.0001C24.228 30.0001 30 25.3321 30 24.3001C30 23.9441 29.757 23.6661 29.393 23.3601Z" fill="white"/>
<path d="M23 15H25C24.9976 12.879 24.154 10.8456 22.6542 9.34578C21.1544 7.846 19.121 7.00238 17 7V9C18.5908 9.00159 20.116 9.63424 21.2409 10.7591C22.3658 11.884 22.9984 13.4092 23 15Z" fill="white"/>
<path d="M28 15.0001H30C29.996 11.5535 28.6251 8.24923 26.188 5.81212C23.7509 3.37501 20.4466 2.00409 17 2.00012V4.00012C19.9163 4.00356 22.7122 5.16359 24.7744 7.22575C26.8365 9.2879 27.9966 12.0838 28 15.0001Z" fill="white"/>
</svg>
