<svg width="34" height="34" viewBox="0 0 34 34" fill="none" xmlns="http://www.w3.org/2000/svg">
<path d="M30.5998 16.9371C30.5998 24.4817 24.4836 30.5978 16.939 30.5978C14.0614 30.5978 11.3915 29.708 9.1896 28.1886L4.5202 29.3559L5.74381 24.7674C4.19009 22.5501 3.27832 19.8501 3.27832 16.9371C3.27832 9.39248 9.39443 3.27637 16.939 3.27637C24.4836 3.27637 30.5998 9.39248 30.5998 16.9371Z" fill="#851739"/>
<path fill-rule="evenodd" clip-rule="evenodd" d="M16.9375 32.875C25.7395 32.875 32.875 25.7395 32.875 16.9375C32.875 8.13546 25.7395 1 16.9375 1C8.13546 1 1 8.13546 1 16.9375C1 19.7959 1.75247 22.4785 3.07014 24.7981L1 32.875L9.32719 30.9441C11.5886 32.1754 14.1814 32.875 16.9375 32.875ZM16.9375 30.4231C24.3854 30.4231 30.4231 24.3854 30.4231 16.9375C30.4231 9.48962 24.3854 3.45192 16.9375 3.45192C9.48962 3.45192 3.45192 9.48962 3.45192 16.9375C3.45192 19.8132 4.352 22.4786 5.8858 24.6674L4.67788 29.1971L9.28742 28.0447C11.4611 29.5447 14.0967 30.4231 16.9375 30.4231Z" fill="#851739"/>
<path d="M12.9512 9.53802C12.5723 8.77692 11.991 8.8443 11.4037 8.8443C10.3542 8.8443 8.71777 10.1014 8.71777 12.441C8.71777 14.3584 9.56269 16.4573 12.4098 19.5971C15.1574 22.6273 18.7677 24.1947 21.7648 24.1414C24.762 24.088 25.3787 21.5089 25.3787 20.6378C25.3787 20.2518 25.1391 20.0592 24.974 20.0068C23.9527 19.5167 22.0689 18.6033 21.6403 18.4317C21.2117 18.2601 20.9879 18.4922 20.8488 18.6185C20.4601 18.9889 19.6896 20.0806 19.4258 20.3261C19.162 20.5716 18.7687 20.4474 18.605 20.3545C18.0027 20.1129 16.3697 19.3865 15.068 18.1246C13.4581 16.5641 13.3636 16.0271 13.0603 15.5492C12.8177 15.1669 12.9958 14.9323 13.0846 14.8298C13.4315 14.4296 13.9104 13.8117 14.1252 13.5046C14.3399 13.1976 14.1694 12.7314 14.0671 12.441C13.6271 11.1922 13.2543 10.1469 12.9512 9.53802Z" fill="white"/>
</svg>
