<svg width="13" height="13" viewBox="0 0 13 13" fill="none" xmlns="http://www.w3.org/2000/svg">
<path d="M5.53332 0.690968C5.83267 -0.230342 7.13608 -0.230343 7.43543 0.690968L8.28049 3.29178C8.41436 3.7038 8.79832 3.98276 9.23154 3.98276H11.9662C12.9349 3.98276 13.3377 5.22238 12.554 5.79178L10.3416 7.39917C9.99111 7.65381 9.84446 8.10518 9.97833 8.5172L10.8234 11.118C11.1227 12.0393 10.0683 12.8055 9.28454 12.2361L7.07216 10.6287C6.72167 10.374 6.24708 10.374 5.89659 10.6287L3.68421 12.2361C2.90049 12.8055 1.84601 12.0393 2.14536 11.118L2.99042 8.51721C3.12429 8.10518 2.97764 7.65381 2.62715 7.39917L0.414766 5.79178C-0.368948 5.22238 0.0338273 3.98276 1.00255 3.98276H3.73721C4.17043 3.98276 4.55439 3.7038 4.68826 3.29178L5.53332 0.690968Z" fill="white"/>
</svg>
