<svg width="34" height="34" viewBox="0 0 34 34" fill="none" xmlns="http://www.w3.org/2000/svg">
<g clip-path="url(#clip0_1_19860)">
<path d="M33.2888 8.76388C33.0968 8.04035 32.7179 7.37999 32.1904 6.84892C31.6628 6.31785 31.0049 5.93471 30.2827 5.73788C27.6321 5.02246 17 5.02246 17 5.02246C17 5.02246 6.36792 5.02246 3.71592 5.73788C2.99399 5.93506 2.3365 6.31833 1.80919 6.84937C1.28189 7.3804 0.903254 8.04058 0.711167 8.76388C0 11.4329 0 17.0004 0 17.0004C0 17.0004 0 22.5679 0.711167 25.2369C0.903247 25.9604 1.28205 26.6208 1.80964 27.1518C2.33723 27.6829 2.99509 28.066 3.71733 28.2629C6.36792 28.9783 17 28.9783 17 28.9783C17 28.9783 27.6321 28.9783 30.2841 28.2629C31.0064 28.0662 31.6643 27.6831 32.1919 27.152C32.7195 26.6209 33.0983 25.9605 33.2902 25.2369C34 22.5679 34 17.0004 34 17.0004C34 17.0004 34 11.4329 33.2888 8.76388ZM13.5221 22.055V11.9457L22.4088 17.0004L13.5221 22.055Z" fill="#851739"/>
</g>
<defs>
<clipPath id="clip0_1_19860">
<rect width="34" height="34" fill="white"/>
</clipPath>
</defs>
</svg>
